<svg width="296" height="291" viewBox="0 0 296 291" fill="none" xmlns="http://www.w3.org/2000/svg">
    <path d="M42.799 155.503C36.7897 139.117 32.6783 130.614 40.4911 109.675C48.3039 88.7363 66.2148 82.0094 74.1325 78.4702C84.0296 74.0462 159.366 32.5152 220.801 74.9317C282.236 117.348 261.493 169.643 240.399 204.191C219.304 238.74 194.861 250.716 164.642 255.41C129.879 260.81 96.7436 231.587 84.4988 222.635C66.0455 209.144 50.3107 175.986 42.799 155.503Z" fill="#FFEECA"/>
    <path fill-rule="evenodd" clip-rule="evenodd" d="M96.0564 107.612C96.0564 102.089 100.534 97.6118 106.056 97.6118H237.939C243.462 97.6118 247.939 102.089 247.939 107.612V205.286C247.939 210.809 243.462 215.286 237.939 215.286H106.056C100.534 215.286 96.0564 210.809 96.0564 205.286V107.612ZM96.0565 246.758C96.0565 242.601 99.4259 239.232 103.582 239.232H159.683V215.287H187.049V239.232H240.413C244.569 239.232 247.939 242.601 247.939 246.758C247.939 250.914 244.569 254.283 240.413 254.283H103.582C99.4259 254.283 96.0565 250.914 96.0565 246.758Z" fill="#224D4F"/>
    <rect x="102.214" y="104.454" width="139.568" height="103.307" fill="white"/>
    <rect x="117.265" y="183.815" width="8.89401" height="6.15739" fill="#F2941C"/>
    <rect x="116.343" y="185.471" width="11.3431" height="5.23527" fill="#F2941C"/>
    <rect x="116.343" y="190.707" width="11.3431" height="3.49018" fill="#F5391D"/>
    <rect x="116.343" y="194.197" width="11.3431" height="1.74509" fill="#B42914"/>
    <rect x="116.343" y="174.128" width="11.3431" height="11.3431" fill="#FFD77B"/>
    <rect x="129.431" y="181.702" width="11.3431" height="7.11997" fill="#F2941C"/>
    <rect x="129.431" y="188.822" width="11.3431" height="4.74664" fill="#F5391D"/>
    <rect x="129.431" y="193.568" width="11.3431" height="2.37332" fill="#B42914"/>
    <rect x="129.431" y="166.275" width="11.3431" height="15.4266" fill="#FFD77B"/>
    <rect x="142.52" y="172.907" width="11.3431" height="11.5176" fill="#F2941C"/>
    <rect x="142.52" y="184.424" width="11.3431" height="7.67839" fill="#F5391D"/>
    <rect x="142.52" y="192.102" width="11.3431" height="3.8392" fill="#B42914"/>
    <rect x="142.52" y="147.952" width="11.3431" height="24.9548" fill="#FFD77B"/>
    <rect x="155.608" y="179.607" width="11.3431" height="8.167" fill="#F2941C"/>
    <rect x="155.608" y="187.774" width="11.3431" height="5.44467" fill="#F5391D"/>
    <rect x="155.608" y="193.219" width="11.3431" height="2.72233" fill="#B42914"/>
    <rect x="155.608" y="161.913" width="11.3431" height="17.6952" fill="#FFD77B"/>
    <rect x="169.568" y="184.215" width="11.3431" height="5.86346" fill="#F2941C"/>
    <rect x="169.568" y="190.078" width="11.3431" height="3.90898" fill="#F5391D"/>
    <rect x="169.568" y="193.987" width="11.3431" height="1.95449" fill="#B42914"/>
    <rect x="169.568" y="171.511" width="11.3431" height="12.7042" fill="#FFD77B"/>
    <mask id="path-25-inside-1_1007_18081" fill="white">
        <rect x="111.108" y="109.927" width="18.4722" height="14.3672" rx="2"/>
    </mask>
    <rect x="111.108" y="109.927" width="18.4722" height="14.3672" rx="2" stroke="#6EBFA9" stroke-width="10" mask="url(#path-25-inside-1_1007_18081)"/>
    <mask id="path-26-inside-2_1007_18081" fill="white">
        <rect x="201.416" y="177.658" width="34.8919" height="14.3672" rx="2"/>
    </mask>
    <rect x="201.416" y="177.658" width="34.8919" height="14.3672" rx="2" stroke="#6EBFA9" stroke-width="10" mask="url(#path-26-inside-2_1007_18081)"/>
    <path d="M136.764 111.295H179.865" stroke="#6EBFA9" stroke-width="4" stroke-linecap="round"/>
    <path d="M202.785 197.499H234.256" stroke="#6EBFA9" stroke-width="5" stroke-linecap="round"/>
    <path d="M136.422 116.768H161.051" stroke="#6EBFA9" stroke-width="4" stroke-linecap="round"/>
    <path d="M136.422 122.242H148.736" stroke="#6EBFA9" stroke-width="4" stroke-linecap="round"/>
    <path d="M196.285 137.293H187.049L188.417 145.845L193.549 154.397L200.732 147.897C200.39 147.213 199.295 145.503 197.653 144.135C196.011 142.766 196.057 139.003 196.285 137.293Z" fill="#FFD77B"/>
    <path d="M199.364 128.057L196.627 136.267L192.18 137.635L187.049 137.293L188.417 130.109L191.496 123.952L196.627 117.795L203.469 114.374L210.994 113.348V122.584L205.179 123.952L199.364 128.057Z" fill="#F2941C"/>
    <path d="M201.416 148.24L195.259 154.397L199.022 158.16L206.548 160.554H213.389L219.889 159.186L227.072 155.423L231.861 149.608L234.256 141.398V132.846L231.519 124.636L226.046 119.163L221.599 116.084L215.784 113.69L211.337 113.348V122.926H215.1L219.889 125.662L224.678 131.478L225.362 136.951L224.678 143.793L219.889 148.924L213.389 151.66H206.548L201.416 148.24Z" fill="#E6EEFE"/>
    <circle cx="210.994" cy="137.293" r="22.8137" stroke="#6EBFA9" stroke-width="5"/>
    <circle cx="210.994" cy="137.293" r="13.9197" stroke="#6EBFA9" stroke-width="5"/>
    <path d="M210.994 113.348V121.9" stroke="#6EBFA9" stroke-width="4" stroke-linecap="round"/>
    <path d="M196.627 137.293H188.417" stroke="#6EBFA9" stroke-width="4" stroke-linecap="round"/>
    <path d="M200.732 148.239L194.917 154.055" stroke="#6EBFA9" stroke-width="4" stroke-linecap="round"/>
    <path d="M111.108 137.293V197.499H191.838" stroke="#6EBFA9" stroke-width="5" stroke-linecap="round"/>
</svg>
