<svg width="120" height="121" viewBox="0 0 120 121" fill="none" xmlns="http://www.w3.org/2000/svg">
<path d="M111.337 51.4718C98.2286 32.7091 65.5736 30.0489 29.8079 48.817C-5.95768 67.5851 -7.31243 111.403 13.9437 116.484C35.1999 121.566 43.4206 106.576 75.3278 118.732C100.093 128.176 136.915 88.0499 111.337 51.4718Z" fill="#FEECC2"/>
<g style="mix-blend-mode:overlay" opacity="0.6">
<path d="M66.7801 36.5833C72.6392 49.5959 85.2925 62.4541 104.583 63.7913C108.71 64.062 112.897 63.3718 117.011 61.9966C115.539 58.2571 113.621 54.7088 111.298 51.4285C102.959 39.5177 86.7098 34.1227 66.7801 36.5833Z" fill="#231F20" fill-opacity="0.6"/>
</g>
<g style="mix-blend-mode:overlay" opacity="0.6">
<path d="M47.0623 108.411C28.1087 102.732 35.6772 92.4859 14.5983 82.5274C10.7912 80.7202 6.61046 79.8448 2.39996 79.9733C-3.29262 96.9013 1.37259 113.473 13.9451 116.481C35.2055 121.568 43.4353 106.564 75.3572 118.731C87.7534 123.456 103.161 115.778 112.272 102.338C97.5853 106.746 66.9755 114.378 47.0623 108.411Z" fill="#231F20" fill-opacity="0.6"/>
</g>
<g style="mix-blend-mode:overlay" opacity="0.6">
<path d="M116.036 95.456C116.843 93.6894 117.534 91.8721 118.104 90.0156C113.813 89.5519 109.53 88.9932 105.284 88.2121C95.1313 86.3489 85.0735 83.1893 76.4904 77.3068C63.2634 68.2349 51.7388 56.0116 41.7731 43.2188C37.6776 44.8636 33.6682 46.7157 29.7606 48.7677C28.1521 49.6102 26.6158 50.5025 25.1519 51.4445C31.6312 59.1305 38.1377 66.6077 45.883 73.1709C56.0927 81.8279 67.0967 89.2318 80.1123 92.8606C91.7751 96.1097 104.026 96.568 116.036 95.456Z" fill="#231F20" fill-opacity="0.6"/>
</g>
<g style="mix-blend-mode:overlay" opacity="0.6">
<path d="M114.056 96.9708C112.293 97.4814 110.522 97.9604 108.743 98.4076C106.968 98.8503 105.187 99.2686 103.401 99.6379C101.614 100.007 99.8225 100.344 98.0308 100.646C94.4638 101.238 90.8665 101.63 87.2558 101.819C86.3523 101.861 85.4559 101.89 84.5668 101.906C84.1196 101.906 83.6723 101.906 83.2251 101.906H82.5555L81.8887 101.89C80.1051 101.849 78.335 101.737 76.5785 101.536C74.8334 101.346 73.0997 101.062 71.3848 100.686C70.9565 100.599 70.5364 100.485 70.1135 100.388L68.8395 100.051C68.4139 99.9367 67.9911 99.809 67.5655 99.6895C67.1399 99.57 66.7225 99.4179 66.2996 99.2984C62.9437 98.2224 59.6884 96.8537 56.571 95.2081C50.3364 91.9326 44.7064 87.5599 39.5127 82.6738C36.9159 80.2294 34.4085 77.6627 31.9228 75.0445L28.2228 71.0981L26.3578 69.1236C25.7362 68.4627 25.11 67.8072 24.4793 67.1572C21.966 64.5034 19.2928 62.0063 16.4747 59.68L15.6615 59.0391C15.3687 59.327 15.0841 59.6149 14.7995 59.9082C15.0706 60.1363 15.3416 60.3672 15.6127 60.6035C18.2655 63.0027 20.7439 65.5885 23.0291 68.3414C27.6373 73.806 31.9418 79.5829 36.8888 84.9851C39.3724 87.7258 42.0299 90.3032 44.8446 92.7013C46.274 93.9072 47.7595 95.0578 49.301 96.1533C50.8488 97.2397 52.4481 98.2663 54.107 99.2115C57.4473 101.121 60.9708 102.689 64.6244 103.891C65.0825 104.035 65.5406 104.19 66.0041 104.326C66.4677 104.462 66.9312 104.597 67.3974 104.73L68.7988 105.103C69.2759 105.211 69.753 105.336 70.2328 105.431C72.1454 105.842 74.0806 106.14 76.0282 106.322C79.8838 106.671 83.7636 106.655 87.6163 106.276C89.5274 106.088 91.4248 105.844 93.3088 105.51C95.1927 105.176 97.0468 104.79 98.8846 104.337C100.722 103.883 102.541 103.367 104.339 102.81C105.242 102.522 106.134 102.224 107.014 101.917C107.9 101.612 108.779 101.281 109.651 100.947C111.234 100.339 112.794 99.685 114.33 98.9861C114.785 98.1731 115.217 97.3456 115.626 96.5037C115.094 96.6612 114.577 96.8187 114.056 96.9708Z" fill="#231F20" fill-opacity="0.6"/>
</g>
<g style="mix-blend-mode:overlay" opacity="0.6">
<path d="M109.648 49.1238C107.31 46.3874 104.541 44.0541 101.453 42.2167H101.071C96.5218 42.2215 92.1456 40.4631 88.8538 37.3075C85.1923 36.5084 81.4619 36.0705 77.7157 36C82.1129 44.9227 91.1619 50.5719 101.071 50.5808C103.991 50.5833 106.891 50.0907 109.648 49.1238Z" fill="#231F20" fill-opacity="0.6"/>
</g>
<g style="mix-blend-mode:overlay" opacity="0.6">
<path d="M7.93238 96.0742C5.29168 96.0718 2.66603 96.4724 0.145813 97.2623C0.378477 100.065 1.0185 102.82 2.04564 105.437C6.68257 103.807 11.7864 104.171 16.1457 106.444C20.505 108.717 23.731 112.695 25.058 117.435C27.8581 117.261 30.6425 116.889 33.39 116.32C30.6182 104.474 20.0786 96.0924 7.93238 96.0742Z" fill="#231F20" fill-opacity="0.6"/>
</g>
<g clip-path="url(#clip0_12160_68218)">
<path fill-rule="evenodd" clip-rule="evenodd" d="M78.9658 35.1699C61.9293 15.2038 60.3448 7.99146 60.2028 7H60.1869C60.0832 7.72728 59.2024 11.8013 52.0157 21.8003C49.844 24.8224 47.0948 28.3856 43.6195 32.5615C42.9158 33.4066 42.185 34.2755 41.4207 35.1699C26.2575 52.9414 29.3386 74.1074 43.6211 83.7674C46.0959 85.4416 48.9058 86.7704 52.0173 87.6759C54.5096 88.4016 57.1919 88.8584 60.0497 89H60.3417C87.354 87.6521 98.8664 58.4875 78.9658 35.1699Z" fill="#EFCB3A"/>
<path fill-rule="evenodd" clip-rule="evenodd" d="M81.9368 61.1704L69.5548 73.9957C69.3777 74.166 69.1511 74.2631 68.9213 74.2424C68.6932 74.2313 68.4777 74.1215 68.3182 73.9353L62.4016 66.995C62.1304 66.734 61.8415 66.5208 61.5464 66.3426C59.9954 65.3941 58.3104 65.4673 58.3104 65.4673L46.7421 65.1904L46.7852 62.773L52.9938 62.9417C53.3592 62.9417 53.9304 62.8541 54.4155 62.6584C54.9373 62.4483 55.4718 62.095 55.8053 61.4744C55.9792 61.1529 56.0877 60.6993 56.0111 60.1789C55.9393 59.6808 55.7 59.1207 55.1894 58.543H55.191L50.5892 53.1448L61.7075 41.5369L68.2575 47.4984C68.2607 47.5016 68.2639 47.5064 68.2671 47.5112L81.9193 59.9339C82.1012 60.101 82.2049 60.319 82.2082 60.5482C82.2113 60.7773 82.1156 60.9985 81.9368 61.1704ZM68.1219 39.9694C69.8675 38.2888 71.6562 38.1217 73.1801 39.5158L79.2849 44.9076C79.9551 45.5235 80.3476 46.437 80.3604 47.4173C80.3731 48.3626 80.0365 49.2124 79.3567 49.8681L77.667 51.6584L76.7319 50.8054V50.8038L66.504 41.4956L68.1219 39.9694ZM43.4583 66.2821L39.589 69.7753L38.3922 69.753L38.5997 57.9223L39.7964 57.943L43.5413 61.5699L43.4583 66.2821ZM84.1197 57.5292L80.0811 53.853L81.68 52.1534C82.9389 50.9407 83.6458 49.1997 83.625 47.3759C83.5995 45.5028 82.824 43.7299 81.4709 42.4918L75.3661 37.0969C72.5721 34.5442 68.84 34.7527 65.8673 37.6173L64.0882 39.2962L62.7766 38.1026C62.1399 37.5234 61.1634 37.5377 60.5427 38.1345L47.2192 51.8653C46.5985 52.4605 46.5507 53.4361 47.1075 54.0901L51.8641 59.6665L46.0943 59.5042L41.6058 55.158C41.309 54.8699 40.9117 54.706 40.4985 54.6997L37.0232 54.6392C36.1217 54.6249 35.3797 55.3394 35.3637 56.2386L35.1002 71.3253C35.0845 72.2229 35.8009 72.9645 36.7041 72.9804L40.1777 73.0425C40.591 73.0488 40.9947 72.8977 41.3011 72.6207L45.9395 68.4321L59.5949 68.7313L65.8306 76.0439C66.5806 76.9224 67.6225 77.4396 68.7602 77.4937C68.8049 77.4969 68.8495 77.4985 68.8942 77.4985C69.984 77.5192 71.0196 77.1086 71.8206 76.3367L84.2042 63.5114C85.0387 62.7093 85.4871 61.6399 85.4716 60.5004C85.4552 59.3625 84.9749 58.3074 84.1197 57.5292Z" fill="white"/>
<path fill-rule="evenodd" clip-rule="evenodd" d="M23.1569 78.1731H23.1441C22.5059 78.1651 21.9937 77.6415 22 77.005C22.0495 72.506 22.2011 58.8118 36.1884 57.0548C36.8154 56.9816 37.4026 57.4224 37.4808 58.0558C37.5606 58.6892 37.1106 59.2669 36.4756 59.3465C28.1879 60.3873 24.4382 65.8411 24.3153 77.0304C24.3073 77.6638 23.7919 78.1731 23.1569 78.1731Z" fill="white"/>
<path fill-rule="evenodd" clip-rule="evenodd" d="M27.1962 78.1734C26.5644 78.1734 26.0458 77.6642 26.0394 77.0276C25.9708 70.1526 27.1164 62.8973 36.1206 61.2168C36.7397 61.1086 37.3508 61.5112 37.4689 62.1382C37.5885 62.7668 37.1737 63.3668 36.545 63.4877C29.6487 64.772 28.2828 69.8216 28.3546 77.0053C28.3626 77.6419 27.8472 78.1655 27.2074 78.1734H27.1962Z" fill="white"/>
<path fill-rule="evenodd" clip-rule="evenodd" d="M31.6006 78.1733C30.9895 78.1733 30.4773 77.6927 30.447 77.0784C30.2172 72.6988 30.4374 67.8672 35.9455 65.9241C36.5471 65.706 37.2108 66.0259 37.4215 66.6259C37.6369 67.2274 37.3225 67.8895 36.7178 68.0996C33.0686 69.387 32.5085 72.207 32.7575 76.959C32.7894 77.5956 32.3011 78.1367 31.6613 78.1701C31.6405 78.1733 31.6214 78.1733 31.6006 78.1733Z" fill="white"/>
</g>
<defs>
<clipPath id="clip0_12160_68218">
<rect width="96" height="96" fill="white" transform="translate(12)"/>
</clipPath>
</defs>
</svg>
