<svg width="154" height="154" viewBox="0 0 154 154" fill="none" xmlns="http://www.w3.org/2000/svg">
  <g clip-path="url(#clip0_10747_143173)">
    <path d="M77 1.72656L117.836 42.562C140.388 65.1146 140.388 101.68 117.836 124.233C95.2824 146.785 58.7174 146.785 36.1646 124.233C13.6118 101.68 13.6118 65.1146 36.1646 42.562L77 1.72656ZM77 19.8756L45.2391 51.6365C27.6981 69.1776 27.6981 97.6169 45.2391 115.158C54.0164 123.936 65.5225 128.321 77.0269 128.314L77 19.8756Z" fill="#000091"/>
    <path d="M69.0001 27.6137L39.0715 57.5423C22.5425 74.0714 22.5425 100.87 39.0715 117.399C55.6006 133.928 82.3997 133.928 98.9283 117.399C115.458 100.87 115.458 74.0714 98.9283 57.5423L69.0001 27.6137ZM69.0001 10.5117L107.48 48.9912C128.731 70.2428 128.731 104.699 107.48 125.95C86.2277 147.202 51.7722 147.202 30.5205 125.95C9.26887 104.699 9.26887 70.2428 30.5205 48.9912L69.0001 10.5117ZM69.0001 117.703V57.2384C85.6968 57.2384 99.2325 70.7737 99.2325 87.471C99.2325 104.168 85.6968 117.703 69.0001 117.703Z" fill="#0063CB"/>
  </g>
  <defs>
    <clipPath id="clip0_10747_143173">
      <rect width="154" height="154" fill="white"/>
    </clipPath>
  </defs>
</svg>
