<svg width="487" height="496" viewBox="0 0 487 496" fill="none" xmlns="http://www.w3.org/2000/svg">
  <path d="M194.152 92.7495L188.55 91.6033L184.682 88.6914L185.641 83.2701L190.283 76.2999L198.205 72.0249L207.891 68.5552L222.592 64.8688L230.885 58.4872L238.437 49.1935L243.667 52.2914V50.3398L239.396 46.4674L239.984 39.3114V13.1654L248.495 6.59796L259.729 4.46043L269.384 2.9115L275.573 -0.000488281L278.08 5.04903L278.854 7.96102L277.523 10.0676V13.3823L278.668 15.4888H281.391L283.309 17.6263L283.897 19.7639L285.445 21.6845H287.766L290.087 18.8036L294.915 17.2546L297.422 17.0377L297.824 19.3612H298.969L299.186 20.5384L300.919 21.3128L301.105 29.0575L301.878 31.5667L304.602 31.9695L305.932 33.3015L309.801 31.5667L311.162 33.1157L313.484 32.7439L316.578 36.3994L316.392 43.1837H317.754L318.899 41.263L329.73 40.6744L335.92 45.5071L336.693 47.056L333.785 49.1935V51.8888L332.825 52.88L336.508 53.8404L337.096 57.5268L333.228 59.8503L333.413 61.7709H341.335L344.059 63.9084L346.38 62.9481L350.619 61.585L352.941 60.0361V57.7127V55.9779L354.674 54.2121L356.624 51.3311H359.532L360.306 51.8888V55.3893L358.171 57.31L359.532 58.4872L358.759 60.4079L358.171 62.5454L361.265 64.497V66.2318L360.491 67.0063L360.863 71.4673L367.053 72.2417L368.817 73.3879L369.776 75.8971L375.192 76.4857L376.739 77.663L377.513 81.5353L380.019 81.9071L381.566 83.456L382.34 87.1425H383.516L384.661 85.9652L387.942 85.7794L390.263 83.6418H394.719L398.216 87.5141H401.311L402.456 88.6914H405.736L406.324 87.731L408.645 85.7794L411.555 85.5935L414.246 87.9169H416.196L416.784 87.5141H418.703L422.758 89.4658L424.706 91.3865L424.892 96.0336L427.616 97.2108V99.9053L428.761 100.309L430.711 103.995L433.991 103.592L434.177 101.269L436.9 100.123C437.116 100.25 438.871 101.269 439.778 101.269C439.798 101.269 439.846 101.268 439.871 101.269C439.874 101.269 439.899 101.269 439.902 101.269C439.913 101.274 439.954 101.294 439.964 101.3C439.987 101.306 440.028 101.319 440.056 101.331C440.095 101.347 440.148 101.375 440.18 101.392C441.016 101.859 441.969 103.541 442.099 103.778L444.049 105.141L450.61 104.955L453.333 102.446L457.975 102.043L459.336 104.18L463.205 106.504L464.536 108.425L464.938 108.3L468.62 107.278H470.725L472.273 109.014L475.182 107.278L479.452 109.416L484.28 109.974L486.973 112.112L484.28 112.7L482.547 117.346L482.918 120.63L481.185 122.365H479.638L477.688 124.906V127.229L472.675 130.884L472.087 137.483L469.766 145.041L470.354 150.648L465.31 160.531L465.526 166.726L467.444 169.422L465.712 171.931V175.804L464.753 178.127V182.99L463.205 185.097L464.536 188.195L467.074 191.107L465.124 193.616L464.938 197.891L461.255 200.803L454.107 200.989L452.745 199.812L453.147 197.705L448.288 198.48L443.275 204.273L443.461 205.047L448.103 204.087L449.464 205.45L446.957 208.548L444.823 209.508L445.781 211.831L439.592 218.988L436.9 220.35L436.683 224.037L433.991 226.546L431.082 227.909L426.842 230.016L427.213 239.31L415.237 250.555L415.02 251.917L416.97 252.692L414.061 256.162L413.69 260.22L417.341 262.172L417.744 263.318L414.834 267.004L416.011 267.779L415.794 269.731L412.329 270.102L410.007 271.466V275.152H416.382L418.889 272.829L422.758 270.288L420.653 268.554L420.436 266.818L422.386 262.543L424.521 262.358L425.666 264.093L429.937 260.622L434.362 259.849H440.954L441.14 262.358L444.637 266.044V268.739L442.502 271.063L442.687 272.611L446.369 274.377V277.259V279.025L447.731 278.25L451.971 282.68L452.374 286.955L451.6 288.876L445.009 291.601L444.915 294.978L444.823 298.169L447.731 301.483C447.731 301.483 450.61 301.275 451.383 301.081C451.386 301.081 451.41 301.081 451.414 301.081C451.417 301.081 451.442 301.081 451.445 301.081C451.448 301.081 451.473 301.081 451.476 301.081C451.476 301.081 451.476 301.105 451.476 301.112C451.479 301.112 451.504 301.112 451.507 301.112C451.512 301.117 451.533 301.138 451.538 301.143C451.551 301.159 451.584 301.209 451.6 301.236C452.097 302.302 451.786 308.237 451.786 308.237L457.016 311.334L457.789 314.061L460.296 315.021L457.572 319.668L458.563 321.217L457.975 324.501L452.931 326.453L451.971 327.599L449.464 328.962L449.279 331.285H447.143L445.009 329.922L439.221 332.246L439.283 332.37L440.552 335.158L441.542 337.109L444.421 338.069L445.194 343.863L450.238 346.403L452.931 346L455.066 346.774L455.654 352.382L458.346 353.745V355.479L456.242 355.293L453.921 357.803L454.478 360.529L451.012 364.216L450.238 365.95L451.198 368.459L453.147 369.048L454.695 370.411L451.971 370.783V374.655L456.025 377.165V380.665H458.934L463.979 382.028L468.992 386.086H471.901L480.999 382.803L483.878 382.586L484.651 385.126L485.642 386.861L486.199 389.772L485.054 394.017L480.783 395.38L481.371 398.292L478.461 400.802L480.411 405.262L476.915 407.369L476.729 409.507H473.263L469.394 413.007L464.938 413.378L464.753 419.389L462.803 418.985L461.441 420.751L457.572 419.977L457.387 424.406L454.107 428.093L448.505 428.868L448.103 431.965L446.555 434.103L443.461 436.024L447.515 435.838V440.888L444.421 442.22L441.728 441.445L440.552 443.211H436.497L434.95 444.543L434.579 447.083L433.218 448.043L432.258 446.866L431.082 446.495L428.173 445.534L425.666 447.269L426.068 449.778L427.213 450.955L422.572 450.739L424.521 449.778L424.706 448.23L418.703 447.641L415.237 449.778L413.287 451.141L411.152 450.739L410.193 446.866L406.727 445.318L405.736 443.986L401.095 442.436H391.624L392.8 441.073L393.574 439.122L389.304 438.936L392.398 436.24L391.81 434.475L388.932 435.652L377.884 435.466L376.151 431.779L372.468 430.231L370.147 432.152L373.644 435.466L367.053 436.613L358.759 434.877L360.677 431.594H363.586L362.039 430.045L353.9 429.456L347.773 429.177L345.39 429.054L340.964 429.271V425.398L337.993 425.181L335.332 424.995L328.771 429.642L318.311 437.975L316.578 440.113L311.162 440.299L310.389 442.034L303.426 444.171L303.302 445.224L303.054 447.269L301.105 449.189L298.195 451.513L294.915 448.416L293.367 450.955L295.317 453.837L297.638 453.651L297.422 460.032L297.577 465.577L298.01 482.492L300.733 483.669L302.281 485.806V488.904L299.186 488.687L296.648 485.993H292.594L289.685 486.952L287.766 489.462L281.948 490.825L281.763 493.552L280.618 494.109L279.256 493.148H277.894L276.347 495.1L270.931 490.454L264.556 488.316L260.502 489.09L257.191 493.148L254.87 493.552L251.775 490.825L251.589 487.356L245.802 485.806L242.893 483.081L242.552 481.035L241.933 477.474L233.423 476.296L230.514 477.474L227.234 472.238L218.909 472.64L215.629 468.365H213.091L207.118 467.219L206.066 466.631L202.074 464.307L199.381 463.905L198.979 473.415L191.118 472.889L187.374 472.64L185.641 471.866L184.279 474.19L180.597 473.199L177.904 470.101L171.529 472.826H168.992L165.897 470.317L165.525 467.994L161.657 465.082L158.377 463.13L157.881 463.409L154.508 465.267L152.744 466.228L151.784 465.267L149.866 465.671L147.731 466.817L145.781 464.494L140.768 460.621L140.365 456.562H133.031L128.575 453.837L123.932 453.062L122.385 450.955H118.92L117.558 449.004L117.744 446.495L116.01 448.416L115.422 451.327L112.327 450.367L110.594 448.416L110.78 446.68L113.503 445.318V441.661L114.834 440.484L114.277 438.161L111.956 437.573L108.273 436.024L107.5 437.79L104.777 437.573L104.591 435.063L101.124 434.877L98.8034 432.74V430.602L101.31 430.231L104.777 428.868L109.232 423.447L110.037 422.022L112.915 417.065L114.061 412.418L115.422 405.82L119.878 388.781L123.329 370.288L123.344 365.764L125.48 362.852L125.882 359.941L127.801 359.166L128.575 360.343L133.402 360.126L132.257 358.577L131.855 357.431L127.987 353.93L125.294 357.431L123.932 361.891L124.118 358.577L125.882 345.814L128.389 329.364L129.348 313.1L132.443 308.454L134.392 308.64L134.176 312.698L144.048 321.62L146.771 332.246L147.731 336.892L148.69 335.344L148.319 329.737L146.957 324.129L146.679 322.89L145.224 316.198L139.035 310.002L136.899 309.6L136.714 307.679L133.99 306.131L129.936 302.816L127.615 303.033L127.213 298.758L126.439 294.513L126.068 290.827L121.611 287.543L122.014 280.759L124.706 284.043L127.987 284.446L128.389 289.092L129.348 289.867L129.936 291.199L128.203 293.522L128.575 295.071H131.297L130.709 294.111L130.524 291.415L132.845 291.601L133.804 287.326L132.071 284.817L132.845 283.671L135.166 284.043L135.352 281.905L133.619 281.13L132.628 278.436L129.936 277.847L129.163 276.112L125.109 276.298L122.973 274.563L120.249 272.829H117.558L115.422 269.731L118.702 268.554L121.023 270.102L121.426 272.054L125.294 272.425L126.842 274.161L129.751 273.789L130.121 271.837L133.216 269.328L131.793 268.027L130.709 267.004L130.524 269.731L126.254 267.593L124.335 264.681H120.064L118.332 260.809H113.875L110.006 256.936L106.138 255.015L102.455 243.956H100.722L100.908 242.221L94.9348 236.428L95.1207 231.782L101.001 224.192L96.0806 219.39L91.8404 220.165L91.4381 217.252H93.7591L95.8946 215.115L95.1207 213.381L94.9348 211.429L98.4014 209.694H95.1207L92.6141 212.42H89.1171L86.9817 209.694L86.6104 211.243L82.9277 210.469L80.7923 209.322L82.7419 206.596L81.9683 205.047L81.1946 204.273L84.8773 200.989L83.7013 200.168L83.3299 198.263L84.6607 197.117L81.9683 196.528L71.5082 197.489L69.7752 194.793L67.4541 194.019L69.0015 192.067L71.9105 193.43L74.4173 194.205L75.3765 192.655L73.4579 190.332L70.9512 189.744L71.5082 191.107L68.8158 191.509L66.6805 188.598L67.8564 191.293L66.6805 193.244L64.1737 191.107L63.5858 189.744L62.812 192.067L60.491 191.509V194.979L61.667 196.528L60.491 197.891L58.1701 196.157L58.5723 193.616L58.9437 191.107L57.7987 188.969L54.3016 185.5L51.6092 184.323L52.1663 182.216L51.0213 183.95L47.9265 183.177L45.6828 179.598L43.0988 179.49L39.7875 178.902L38.4567 176.981L38.2401 178.127L32.8243 177.755L30.3177 173.697L29.544 170.382V173.697L27.6252 174.068L24.5305 172.334L22.7666 172.52L21.0336 171.745L22.7666 174.068L21.8072 175.804L17.3509 176.02L13.2968 175.245L14.6585 172.52L13.6991 167.501L9.61407 162.854L7.10737 163.04L5.37434 161.491L3.239 161.677L1.32028 160.531L2.651 158.765L9.24273 158.394L13.1111 157.805H15.4321L17.9388 157.99L19.1148 155.884L18.3412 152.786L16.3915 152.383L12.3374 150.06L10.2021 153.344L9.24273 154.119L9.42841 148.914L5.96234 147.737L8.65473 144.639L13.1111 146.776L16.7938 147.737L21.4359 147.923L21.6216 146.776L17.3509 146.591L18.1245 143.864L14.2561 145.599L13.8848 143.679L18.1245 139.62L13.2968 143.089L5.96234 144.05L5.37434 143.275L4.19836 144.453L1.10366 144.05L1.87732 139.806L0.917969 138.072L4.01268 135.531L1.69164 133.797L4.41498 130.513L9.61407 130.327L10.0164 128.003L11.5638 127.229L12.9254 128.19L16.0201 128.003V126.64L20.4456 126.052L20.8478 128.19L23.3546 127.601L24.1283 125.68L28.399 125.277L30.72 126.238L32.8243 123.914L33.2267 128.375L35.5477 128.003L35.9191 129.738H37.4664V125.865L42.8822 125.68L46.1316 127.57L48.8859 123.914L47.3386 121.808L51.3926 119.081L54.4874 121.405L55.4776 120.042L59.9031 119.484L61.667 118.121L62.812 120.817L63.4001 118.896H67.2685L67.0827 121.033L69.1872 121.219L69.0015 124.317L71.7248 124.906V128.19L75.3765 130.884L75.0052 134.385L79.0592 136.306V139.806H80.6066V137.854L87.7554 133.982L88.9314 131.659L92.3975 132.247L94.7187 130.513V134.385L96.0806 132.836L98.0295 133.424L98.2154 136.12L100.536 135.934L100.908 133.797L104.591 134.199L105.828 132.805L107.685 130.699L112.327 130.884L110.006 133.982L113.503 136.12H123.004H126.656L128.761 135.159L128.389 133.208L124.118 132.247L121.426 125.277L123.932 120.258V114.837L121.611 110.191V103.22L120.652 101.857L119.692 97.396L115.237 92.3778L113.875 89.28L114.277 85.5935L113.689 85.1908L112.73 84.2304L114.277 82.3097V78.0347L110.192 74.751L110.966 72.7993L118.146 74.9368L123.159 78.2206L127.615 75.1227L135.94 75.5254L137.859 80.7608H135.723L134.176 84.6332L139.221 90.612L139.406 95.2589L141.232 94.7941L146.957 93.3381L150.64 95.2589L166.485 97.5821L173.077 101.269L181.371 97.9845L188.736 93.7099L193.254 92.9045" fill="#DFEFFF"/>
</svg>
