<svg width="415" height="140" viewBox="0 0 415 140" fill="none" xmlns="http://www.w3.org/2000/svg">
  <g clip-path="url(#clip0_1117_195656)">
    <path d="M70 1.57031L107.123 38.6934C127.626 59.1958 127.626 92.4371 107.123 112.939C86.6203 133.442 53.3794 133.442 32.8769 112.939C12.3744 92.4371 12.3744 59.1958 32.8769 38.6934L70 1.57031ZM70 18.0695L41.1265 46.943C25.18 62.8895 25.18 88.7434 41.1265 104.69C49.1058 112.669 59.5659 116.656 70.0245 116.65L70 18.0695Z" fill="#000091"/>
    <path d="M66.727 15.102L36.5193 46.3097C21.4928 61.3362 22.4928 90.6986 37.5193 105.725C52.5457 120.752 80.9085 120.752 95.9345 105.725C110.961 90.6986 111.961 61.3362 96.9345 46.3097L66.727 15.102ZM66.727 6.55469L101.709 41.5361C121.028 60.8556 121.028 92.1791 101.709 111.499C82.3885 130.818 51.0653 130.818 31.7456 111.499C12.4259 92.1791 12.4259 60.8556 31.7456 41.5361L66.727 6.55469ZM66.727 104.002V49.0335C81.9059 49.0335 94.211 61.3383 94.211 76.5177C94.211 91.6965 81.9059 104.002 66.727 104.002Z" fill="#0063CB"/>
  </g>
  <path d="M151.432 51.6H165.04L178.072 87.528L191.104 51.6H204.712L186.424 102H169.72L151.432 51.6ZM215.653 61.752C211.693 61.752 208.381 58.368 208.381 54.48C208.381 50.592 211.693 47.28 215.653 47.28C219.469 47.28 222.781 50.592 222.781 54.48C222.781 58.368 219.469 61.752 215.653 61.752ZM209.821 102V65.712H221.269V102H209.821ZM227.537 108.192C227.537 104.664 229.265 101.784 232.289 99.552C230.993 97.968 230.273 96.096 230.273 94.296C230.273 91.344 231.281 89.04 234.017 86.952C230.849 84.576 229.193 81.048 229.193 77.016C229.193 69.816 234.593 64.272 244.097 64.272C247.049 64.272 249.641 64.776 251.729 65.712H264.761V75.288H259.073C259.145 75.864 259.145 76.44 259.145 77.016C259.145 84.288 253.817 89.832 244.097 89.832C243.377 89.832 242.729 89.832 242.081 89.76C241.649 90.192 241.433 90.696 241.433 91.2C241.433 92.496 242.225 92.928 243.377 92.928H251.657C260.441 92.928 265.769 98.112 265.769 105.024C265.769 113.376 258.065 120 246.473 120C234.233 120 227.537 116.112 227.537 108.192ZM244.169 81.48C246.977 81.48 248.993 79.968 248.993 77.016C248.993 74.064 246.977 72.624 244.169 72.624C241.361 72.624 239.417 74.136 239.417 77.016C239.417 79.968 241.361 81.48 244.169 81.48ZM238.193 106.464C238.193 109.272 240.569 111 246.329 111C252.161 111 254.537 108.984 254.537 106.248C254.537 104.088 253.097 102.648 250.217 102.648H239.633C238.841 103.584 238.193 104.736 238.193 106.464ZM276.754 61.752C272.794 61.752 269.482 58.368 269.482 54.48C269.482 50.592 272.794 47.28 276.754 47.28C280.57 47.28 283.882 50.592 283.882 54.48C283.882 58.368 280.57 61.752 276.754 61.752ZM270.922 102V65.712H282.37V102H270.922ZM294.039 102V51.6H325.143V62.184H306.855V71.04H322.263V81.624H306.855V91.416H325.143V102H294.039ZM345.278 103.08C337.934 103.08 332.822 98.832 332.822 91.776C332.822 86.232 337.07 81.984 344.99 80.688L355.214 78.96C355.142 76.224 352.766 74.136 349.382 74.136C346.358 74.136 344.126 75.576 342.47 77.952L334.118 71.616C337.43 67.008 342.974 64.272 349.742 64.272C361.262 64.272 366.59 71.184 366.59 79.104V102H355.214V99.264C353.198 101.496 349.094 103.08 345.278 103.08ZM344.126 91.2C344.126 93.072 345.566 94.224 347.798 94.224C351.47 94.224 353.774 92.496 355.214 90.336V86.736L348.086 87.96C345.134 88.464 344.126 89.544 344.126 91.2ZM398.586 86.232V65.712H410.106V85.584C410.106 96.456 403.626 103.44 392.466 103.44C381.162 103.44 374.898 96.456 374.898 85.584V65.712H386.418V86.232C386.418 90.048 388.29 92.712 392.538 92.712C396.642 92.712 398.586 90.048 398.586 86.232Z" fill="url(#paint0_linear_1117_195656)"/>
  <path d="M149.08 46.6H159.952L174.856 85.984L189.76 46.6H200.632L181.552 97H168.16L149.08 46.6ZM212.519 54.376C209.279 54.376 206.543 51.64 206.543 48.4C206.543 45.16 209.279 42.424 212.519 42.424C215.759 42.424 218.423 45.16 218.423 48.4C218.423 51.64 215.759 54.376 212.519 54.376ZM207.911 97V60.712H217.055V97H207.911ZM225.14 103.336C225.14 99.736 226.94 96.856 230.18 94.48C228.74 93.04 227.948 91.096 227.948 89.224C227.948 86.344 229.172 84.04 231.908 82.024C228.74 79.648 227.012 76.048 227.012 72.016C227.012 64.96 232.484 59.272 241.556 59.272C244.364 59.272 246.812 59.776 248.9 60.712H262.148V68.488H255.74C256.1 69.64 256.244 70.792 256.244 72.016C256.244 79.144 250.916 84.904 241.556 84.904C240.332 84.904 239.18 84.832 238.1 84.616C237.308 85.336 236.876 86.128 236.876 86.92C236.876 88.36 237.668 89.08 239.324 89.08H248.468C257.612 89.08 262.58 93.976 262.58 100.744C262.58 108.808 254.876 115 243.572 115C231.98 115 225.14 110.968 225.14 103.336ZM241.7 77.992C245.516 77.992 247.964 75.616 247.964 72.016C247.964 68.416 245.516 66.112 241.7 66.112C237.74 66.112 235.364 68.488 235.364 72.016C235.364 75.616 237.74 77.992 241.7 77.992ZM233.78 102.04C233.78 105.496 237.092 107.656 243.5 107.656C250.124 107.656 253.508 105.208 253.508 101.608C253.508 98.872 251.852 96.928 247.46 96.928H236.228C234.86 98.224 233.78 99.808 233.78 102.04ZM274.076 54.376C270.836 54.376 268.1 51.64 268.1 48.4C268.1 45.16 270.836 42.424 274.076 42.424C277.316 42.424 279.98 45.16 279.98 48.4C279.98 51.64 277.316 54.376 274.076 54.376ZM269.468 97V60.712H278.612V97H269.468ZM292.241 97V46.6H321.617V55.096H302.465V67.048H318.737V75.544H302.465V88.504H321.617V97H292.241ZM344.226 98.008C337.17 98.008 332.49 94.192 332.49 88.216C332.49 82.744 336.666 79 344.298 77.704L357.258 75.544V72.16C357.258 66.328 353.154 63.16 347.466 63.16C342.786 63.16 338.97 65.248 336.522 68.704L333.282 66.184C336.378 61.936 341.346 59.272 347.61 59.272C355.962 59.272 361.434 64.168 361.434 72.16V97H357.258V91.744C354.162 95.848 349.266 98.008 344.226 98.008ZM336.81 88.144C336.81 91.672 339.834 94.336 344.73 94.336C349.986 94.336 354.522 91.816 357.258 87.136V78.856L345.234 80.872C339.474 81.88 336.81 84.544 336.81 88.144ZM401.793 81.592V60.712H405.969V81.52C405.969 92.32 399.777 98.44 390.489 98.44C381.129 98.44 374.865 92.32 374.865 81.52V60.712H379.113V81.592C379.113 89.8 383.649 94.408 390.489 94.408C397.185 94.408 401.793 89.8 401.793 81.592Z" fill="black"/>
  <defs>
    <linearGradient id="paint0_linear_1117_195656" x1="415" y1="79" x2="150.998" y2="77.9329" gradientUnits="userSpaceOnUse">
      <stop stop-color="#FEECC2"/>
      <stop offset="1" stop-color="#6A6AF4"/>
    </linearGradient>
    <clipPath id="clip0_1117_195656">
      <rect width="140" height="140" fill="white"/>
    </clipPath>
  </defs>
</svg>
