<svg width="660" height="128" viewBox="0 0 660 128" fill="none" xmlns="http://www.w3.org/2000/svg">
  <path d="M53 0.570312L90.1233 37.6934C110.626 58.1958 110.626 91.4371 90.1233 111.939C69.6203 132.442 36.3794 132.442 15.8769 111.939C-4.62563 91.4371 -4.62563 58.1958 15.8769 37.6934L53 0.570312ZM53 17.0695L24.1265 45.943C8.18005 61.8895 8.18005 87.7434 24.1265 103.69C32.1058 111.669 42.5659 115.656 53.0245 115.65L53 17.0695Z" fill="#000091"/>
  <path d="M49.727 14.1029L19.5193 45.3106C4.49283 60.3371 5.49283 89.6995 20.5193 104.726C35.5457 119.753 63.9085 119.753 78.9345 104.726C93.9611 89.6995 94.9611 60.3371 79.9345 45.3106L49.727 14.1029ZM49.727 5.55558L84.7086 40.537C104.028 59.8565 104.028 91.18 84.7086 110.5C65.3885 129.819 34.0653 129.819 14.7456 110.5C-4.57407 91.18 -4.57407 59.8565 14.7456 40.537L49.727 5.55558ZM49.727 103.003V48.0344C64.9059 48.0344 77.211 60.3392 77.211 75.5186C77.211 90.6974 64.9059 103.003 49.727 103.003Z" fill="#0063CB"/>
  <path d="M140.984 101.001V50.6009H158.984C170.792 50.6009 178.064 56.4329 178.064 66.2969C178.064 76.0889 170.792 81.9209 158.984 81.9209H153.8V101.001H140.984ZM159.704 61.1849H153.8V71.3369H159.704C162.944 71.3369 164.816 69.2489 164.816 66.1529C164.816 63.2729 162.944 61.1849 159.704 61.1849Z" fill="url(#paint0_linear_11058_107)"/>
  <path d="M183.961 101.001V64.7129H195.409V67.6649C197.641 65.5769 200.449 63.9929 204.193 63.9929C205.489 63.9929 206.641 64.2089 207.505 64.4969V75.8009C206.281 75.5129 204.913 75.2969 203.041 75.2969C198.865 75.2969 196.129 77.7449 195.409 78.9689V101.001H183.961Z" fill="url(#paint1_linear_11058_107)"/>
  <path d="M246.922 95.1689C243.466 99.7049 237.778 102.441 230.794 102.441C217.474 102.441 210.418 93.4409 210.418 82.8569C210.418 72.3449 216.97 63.2729 229.282 63.2729C239.578 63.2729 246.346 70.1129 246.346 79.9769C246.346 82.4249 245.986 84.7289 245.626 86.0249H222.154C223.234 90.9209 226.402 92.2169 230.722 92.2169C234.178 92.2169 237.202 90.8489 238.858 88.7609L246.922 95.1689ZM228.994 72.4889C225.322 72.4889 223.09 74.2889 222.226 77.9609H235.258C235.114 75.5129 233.242 72.4889 228.994 72.4889Z" fill="url(#paint2_linear_11058_107)"/>
  <path d="M250.766 95.5289L258.254 88.6889C260.198 91.2089 262.646 93.3689 265.886 93.3689C267.974 93.3689 268.982 92.2889 268.982 90.8489C268.982 85.8809 252.206 87.8969 252.206 75.1529C252.206 68.2409 258.038 63.2729 266.03 63.2729C271.79 63.2729 277.262 66.0809 279.998 69.6089L272.51 76.3049C270.782 74.2889 268.622 72.3449 266.03 72.3449C264.014 72.3449 263.078 73.3529 263.078 74.5769C263.078 79.2569 279.854 77.3849 279.854 90.0569C279.71 98.2649 273.014 102.441 266.03 102.441C259.046 102.441 254.438 99.7049 250.766 95.5289Z" fill="url(#paint3_linear_11058_107)"/>
  <path d="M321.383 95.1689C317.927 99.7049 312.239 102.441 305.255 102.441C291.935 102.441 284.879 93.4409 284.879 82.8569C284.879 72.3449 291.431 63.2729 303.743 63.2729C314.039 63.2729 320.807 70.1129 320.807 79.9769C320.807 82.4249 320.447 84.7289 320.087 86.0249H296.615C297.695 90.9209 300.863 92.2169 305.183 92.2169C308.639 92.2169 311.663 90.8489 313.319 88.7609L321.383 95.1689ZM303.455 72.4889C299.783 72.4889 297.551 74.2889 296.687 77.9609H309.719C309.575 75.5129 307.703 72.4889 303.455 72.4889Z" fill="url(#paint4_linear_11058_107)"/>
  <path d="M328.594 101.001V64.7129H340.042V67.6649C342.274 65.5769 345.082 63.9929 348.826 63.9929C350.122 63.9929 351.274 64.2089 352.138 64.4969V75.8009C350.914 75.5129 349.546 75.2969 347.674 75.2969C343.498 75.2969 340.762 77.7449 340.042 78.9689V101.001H328.594Z" fill="url(#paint5_linear_11058_107)"/>
  <path d="M355.478 64.7129H367.718L375.494 87.2489L383.198 64.7129H395.438L382.982 101.001H367.934L355.478 64.7129Z" fill="url(#paint6_linear_11058_107)"/>
  <path d="M417.397 63.2729C429.277 63.2729 437.413 71.7689 437.413 82.8569C437.413 93.9449 429.277 102.441 417.397 102.441C405.445 102.441 397.309 93.9449 397.309 82.8569C397.309 71.7689 405.445 63.2729 417.397 63.2729ZM417.469 91.7129C422.077 91.7129 425.605 88.1849 425.605 82.8569C425.605 77.3849 422.077 74.0009 417.469 74.0009C412.717 74.0009 409.189 77.4569 409.189 82.8569C409.189 88.2569 412.717 91.7129 417.469 91.7129Z" fill="url(#paint7_linear_11058_107)"/>
  <path d="M444.61 101.001V64.7129H456.058V66.7289C458.434 64.7129 461.458 63.2729 465.706 63.2729C473.41 63.2729 479.746 68.6729 479.746 79.6889V101.001H468.226V80.1929C468.226 76.5209 466.282 74.0009 462.61 74.0009C458.578 74.0009 456.778 77.1689 456.058 78.3929V101.001H444.61Z" fill="url(#paint8_linear_11058_107)"/>
  <path d="M486.102 95.5289L493.59 88.6889C495.534 91.2089 497.982 93.3689 501.222 93.3689C503.31 93.3689 504.318 92.2889 504.318 90.8489C504.318 85.8809 487.542 87.8969 487.542 75.1529C487.542 68.2409 493.374 63.2729 501.366 63.2729C507.126 63.2729 512.598 66.0809 515.334 69.6089L507.846 76.3049C506.118 74.2889 503.958 72.3449 501.366 72.3449C499.35 72.3449 498.414 73.3529 498.414 74.5769C498.414 79.2569 515.19 77.3849 515.19 90.0569C515.046 98.2649 508.35 102.441 501.366 102.441C494.382 102.441 489.774 99.7049 486.102 95.5289Z" fill="url(#paint9_linear_11058_107)"/>
  <path d="M522.375 101.001V47.0009H533.823V101.001H522.375Z" fill="url(#paint10_linear_11058_107)"/>
  <path d="M577.532 95.1689C574.076 99.7049 568.388 102.441 561.404 102.441C548.084 102.441 541.028 93.4409 541.028 82.8569C541.028 72.3449 547.58 63.2729 559.892 63.2729C570.188 63.2729 576.956 70.1129 576.956 79.9769C576.956 82.4249 576.596 84.7289 576.236 86.0249H552.764C553.844 90.9209 557.012 92.2169 561.332 92.2169C564.788 92.2169 567.812 90.8489 569.468 88.7609L577.532 95.1689ZM559.604 72.4889C555.932 72.4889 553.7 74.2889 552.836 77.9609H565.868C565.724 75.5129 563.852 72.4889 559.604 72.4889Z" fill="url(#paint11_linear_11058_107)"/>
  <path d="M594.551 102.081C587.207 102.081 582.095 97.8329 582.095 90.7769C582.095 85.2329 586.343 80.9849 594.263 79.6889L604.487 77.9609C604.415 75.2249 602.039 73.1369 598.655 73.1369C595.631 73.1369 593.399 74.5769 591.743 76.9529L583.391 70.6169C586.703 66.0089 592.247 63.2729 599.015 63.2729C610.535 63.2729 615.863 70.1849 615.863 78.1049V101.001H604.487V98.2649C602.471 100.497 598.367 102.081 594.551 102.081ZM593.399 90.2009C593.399 92.0729 594.839 93.2249 597.071 93.2249C600.743 93.2249 603.047 91.4969 604.487 89.3369V85.7369L597.359 86.9609C594.407 87.4649 593.399 88.5449 593.399 90.2009Z" fill="url(#paint12_linear_11058_107)"/>
  <path d="M647.859 85.2329V64.7129H659.379V84.5849C659.379 95.4569 652.899 102.441 641.739 102.441C630.435 102.441 624.171 95.4569 624.171 84.5849V64.7129H635.691V85.2329C635.691 89.0489 637.563 91.7129 641.811 91.7129C645.915 91.7129 647.859 89.0489 647.859 85.2329Z" fill="url(#paint13_linear_11058_107)"/>
  <path d="M138.416 96.0009V45.6009H155.048C166.136 45.6009 172.904 51.2889 172.904 60.6489C172.904 69.9369 166.136 75.6249 155.048 75.6249H148.64V96.0009H138.416ZM155.48 54.0969H148.64V67.1289H155.48C159.8 67.1289 162.392 64.6089 162.392 60.5049C162.392 56.6889 159.8 54.0969 155.48 54.0969Z" fill="black"/>
  <path d="M180.715 96.0009V59.7129H189.859V63.3129C192.235 60.8649 195.331 58.9929 199.435 58.9929C200.659 58.9929 201.739 59.2089 202.603 59.4969V68.4969C201.451 68.2089 200.227 67.9929 198.571 67.9929C194.107 67.9929 191.227 70.4409 189.859 72.7449V96.0009H180.715Z" fill="black"/>
  <path d="M242.547 90.0969C239.163 94.6329 233.547 97.4409 226.707 97.4409C213.819 97.4409 206.547 88.4409 206.547 77.8569C206.547 67.1289 213.315 58.2729 225.195 58.2729C235.275 58.2729 241.899 65.1129 241.899 74.6169C241.899 76.6329 241.611 78.5049 241.323 79.7289H215.907C216.771 86.4969 220.947 89.2329 226.635 89.2329C230.595 89.2329 234.051 87.5049 235.995 84.9129L242.547 90.0969ZM224.979 65.7609C220.299 65.7609 217.203 68.3529 216.195 73.1049H232.899C232.755 69.4329 230.091 65.7609 224.979 65.7609Z" fill="black"/>
  <path d="M247.894 90.7449L253.942 85.2729C256.174 88.0809 258.838 90.0969 262.294 90.0969C265.246 90.0969 266.758 88.3689 266.758 86.2089C266.758 79.8729 249.406 82.2489 249.406 69.5049C249.406 63.0969 254.806 58.2729 262.366 58.2729C267.91 58.2729 272.95 60.9369 275.542 64.4649L269.494 69.7929C267.622 67.4889 265.246 65.6169 262.438 65.6169C259.558 65.6169 258.19 67.2009 258.19 69.0729C258.19 75.2649 275.542 73.1049 275.542 85.6329C275.398 93.2649 269.278 97.4409 262.438 97.4409C255.958 97.4409 251.35 94.8489 247.894 90.7449Z" fill="black"/>
  <path d="M317.955 90.0969C314.571 94.6329 308.955 97.4409 302.115 97.4409C289.227 97.4409 281.955 88.4409 281.955 77.8569C281.955 67.1289 288.723 58.2729 300.603 58.2729C310.683 58.2729 317.307 65.1129 317.307 74.6169C317.307 76.6329 317.019 78.5049 316.731 79.7289H291.315C292.179 86.4969 296.355 89.2329 302.043 89.2329C306.003 89.2329 309.459 87.5049 311.403 84.9129L317.955 90.0969ZM300.387 65.7609C295.707 65.7609 292.611 68.3529 291.603 73.1049H308.307C308.163 69.4329 305.499 65.7609 300.387 65.7609Z" fill="black"/>
  <path d="M326.963 96.0009V59.7129H336.107V63.3129C338.483 60.8649 341.579 58.9929 345.683 58.9929C346.907 58.9929 347.987 59.2089 348.851 59.4969V68.4969C347.699 68.2089 346.475 67.9929 344.819 67.9929C340.355 67.9929 337.475 70.4409 336.107 72.7449V96.0009H326.963Z" fill="black"/>
  <path d="M353.577 59.7129H363.369L372.801 85.6329L382.161 59.7129H392.025L378.777 96.0009H366.753L353.577 59.7129Z" fill="black"/>
  <path d="M415.362 58.2729C427.17 58.2729 435.234 66.9849 435.234 77.8569C435.234 88.7289 427.17 97.4409 415.362 97.4409C403.554 97.4409 395.49 88.7289 395.49 77.8569C395.49 66.9849 403.554 58.2729 415.362 58.2729ZM415.506 88.8009C421.338 88.8009 425.73 84.1209 425.73 77.8569C425.73 71.5209 421.338 66.9129 415.506 66.9129C409.458 66.9129 404.994 71.5209 404.994 77.8569C404.994 84.1929 409.458 88.8009 415.506 88.8009Z" fill="black"/>
  <path d="M444.295 96.0009V59.7129H453.439V62.5929C455.958 60.1449 459.342 58.2729 464.167 58.2729C472.014 58.2729 478.279 63.6729 478.279 74.4009V96.0009H469.062V74.7609C469.062 69.9369 466.327 66.9129 461.863 66.9129C457.255 66.9129 454.807 70.0089 453.439 72.3129V96.0009H444.295Z" fill="black"/>
  <path d="M486.214 90.7449L492.262 85.2729C494.494 88.0809 497.158 90.0969 500.614 90.0969C503.566 90.0969 505.078 88.3689 505.078 86.2089C505.078 79.8729 487.726 82.2489 487.726 69.5049C487.726 63.0969 493.126 58.2729 500.686 58.2729C506.23 58.2729 511.27 60.9369 513.862 64.4649L507.814 69.7929C505.942 67.4889 503.566 65.6169 500.758 65.6169C497.878 65.6169 496.51 67.2009 496.51 69.0729C496.51 75.2649 513.862 73.1049 513.862 85.6329C513.718 93.2649 507.598 97.4409 500.758 97.4409C494.278 97.4409 489.67 94.8489 486.214 90.7449Z" fill="black"/>
  <path d="M524.664 96.0009V42.0009H528.912V96.0009H524.664Z" fill="black"/>
  <path d="M575.34 90.0249C572.028 94.5609 566.7 97.4409 560.076 97.4409C548.196 97.4409 540.492 88.4409 540.492 77.8569C540.492 66.6249 547.692 58.2729 558.564 58.2729C568.284 58.2729 574.476 65.1849 574.476 73.7529C574.476 74.8329 574.404 75.9129 574.188 76.7769H544.884C544.884 77.0649 544.884 77.3529 544.884 77.6409C544.884 86.8569 551.148 93.5529 560.076 93.5529C565.188 93.5529 569.436 91.1769 572.1 87.4329L575.34 90.0249ZM558.492 62.0169C551.724 62.0169 546.684 66.2649 545.316 73.3929H570.156C569.94 67.0569 565.548 62.0169 558.492 62.0169Z" fill="black"/>
  <path d="M596.008 97.0089C588.952 97.0089 584.272 93.1929 584.272 87.2169C584.272 81.7449 588.448 78.0009 596.08 76.7049L609.04 74.5449V71.1609C609.04 65.3289 604.936 62.1609 599.248 62.1609C594.568 62.1609 590.752 64.2489 588.304 67.7049L585.064 65.1849C588.16 60.9369 593.128 58.2729 599.392 58.2729C607.744 58.2729 613.216 63.1689 613.216 71.1609V96.0009H609.04V90.7449C605.944 94.8489 601.048 97.0089 596.008 97.0089ZM588.592 87.1449C588.592 90.6729 591.616 93.3369 596.512 93.3369C601.768 93.3369 606.304 90.8169 609.04 86.1369V77.8569L597.016 79.8729C591.256 80.8809 588.592 83.5449 588.592 87.1449Z" fill="black"/>
  <path d="M653.575 80.5929V59.7129H657.751V80.5209C657.751 91.3209 651.559 97.4409 642.271 97.4409C632.911 97.4409 626.647 91.3209 626.647 80.5209V59.7129H630.895V80.5929C630.895 88.8009 635.431 93.4089 642.271 93.4089C648.967 93.4089 653.575 88.8009 653.575 80.5929Z" fill="black"/>
  <defs>
    <linearGradient id="paint0_linear_11058_107" x1="659.379" y1="78.2023" x2="0.267488" y2="74.0038" gradientUnits="userSpaceOnUse">
      <stop stop-color="#FEECC2"/>
      <stop offset="1" stop-color="#6A6AF4"/>
    </linearGradient>
    <linearGradient id="paint1_linear_11058_107" x1="659.379" y1="78.2023" x2="0.267488" y2="74.0038" gradientUnits="userSpaceOnUse">
      <stop stop-color="#FEECC2"/>
      <stop offset="1" stop-color="#6A6AF4"/>
    </linearGradient>
    <linearGradient id="paint2_linear_11058_107" x1="659.379" y1="78.2023" x2="0.267488" y2="74.0038" gradientUnits="userSpaceOnUse">
      <stop stop-color="#FEECC2"/>
      <stop offset="1" stop-color="#6A6AF4"/>
    </linearGradient>
    <linearGradient id="paint3_linear_11058_107" x1="659.379" y1="78.2023" x2="0.267488" y2="74.0038" gradientUnits="userSpaceOnUse">
      <stop stop-color="#FEECC2"/>
      <stop offset="1" stop-color="#6A6AF4"/>
    </linearGradient>
    <linearGradient id="paint4_linear_11058_107" x1="659.379" y1="78.2023" x2="0.267488" y2="74.0038" gradientUnits="userSpaceOnUse">
      <stop stop-color="#FEECC2"/>
      <stop offset="1" stop-color="#6A6AF4"/>
    </linearGradient>
    <linearGradient id="paint5_linear_11058_107" x1="659.379" y1="78.2023" x2="0.267488" y2="74.0038" gradientUnits="userSpaceOnUse">
      <stop stop-color="#FEECC2"/>
      <stop offset="1" stop-color="#6A6AF4"/>
    </linearGradient>
    <linearGradient id="paint6_linear_11058_107" x1="659.379" y1="78.2023" x2="0.267488" y2="74.0038" gradientUnits="userSpaceOnUse">
      <stop stop-color="#FEECC2"/>
      <stop offset="1" stop-color="#6A6AF4"/>
    </linearGradient>
    <linearGradient id="paint7_linear_11058_107" x1="659.379" y1="78.2023" x2="0.267488" y2="74.0038" gradientUnits="userSpaceOnUse">
      <stop stop-color="#FEECC2"/>
      <stop offset="1" stop-color="#6A6AF4"/>
    </linearGradient>
    <linearGradient id="paint8_linear_11058_107" x1="659.379" y1="78.2023" x2="0.267488" y2="74.0038" gradientUnits="userSpaceOnUse">
      <stop stop-color="#FEECC2"/>
      <stop offset="1" stop-color="#6A6AF4"/>
    </linearGradient>
    <linearGradient id="paint9_linear_11058_107" x1="659.379" y1="78.2023" x2="0.267488" y2="74.0038" gradientUnits="userSpaceOnUse">
      <stop stop-color="#FEECC2"/>
      <stop offset="1" stop-color="#6A6AF4"/>
    </linearGradient>
    <linearGradient id="paint10_linear_11058_107" x1="659.379" y1="78.2023" x2="0.267488" y2="74.0038" gradientUnits="userSpaceOnUse">
      <stop stop-color="#FEECC2"/>
      <stop offset="1" stop-color="#6A6AF4"/>
    </linearGradient>
    <linearGradient id="paint11_linear_11058_107" x1="659.379" y1="78.2023" x2="0.267488" y2="74.0038" gradientUnits="userSpaceOnUse">
      <stop stop-color="#FEECC2"/>
      <stop offset="1" stop-color="#6A6AF4"/>
    </linearGradient>
    <linearGradient id="paint12_linear_11058_107" x1="659.379" y1="78.2023" x2="0.267488" y2="74.0038" gradientUnits="userSpaceOnUse">
      <stop stop-color="#FEECC2"/>
      <stop offset="1" stop-color="#6A6AF4"/>
    </linearGradient>
    <linearGradient id="paint13_linear_11058_107" x1="659.379" y1="78.2023" x2="0.267488" y2="74.0038" gradientUnits="userSpaceOnUse">
      <stop stop-color="#FEECC2"/>
      <stop offset="1" stop-color="#6A6AF4"/>
    </linearGradient>
  </defs>
</svg>
