<svg width="707" height="128" viewBox="0 0 707 128" fill="none" xmlns="http://www.w3.org/2000/svg">
<path d="M56.9999 0.569336L94.1232 37.6924C114.626 58.1948 114.626 91.4361 94.1232 111.939C73.6202 132.441 40.3793 132.441 19.8768 111.939C-0.625719 91.4361 -0.625719 58.1948 19.8768 37.6924L56.9999 0.569336ZM56.9999 17.0685L28.1264 45.942C12.18 61.8885 12.18 87.7424 28.1264 103.689C36.1057 111.668 46.5658 115.655 57.0244 115.649L56.9999 17.0685Z" fill="#000091"/>
<path d="M49.7273 24.1031L22.5195 51.3109C7.49307 66.3374 7.49307 90.6997 22.5195 105.726C37.5459 120.753 61.9087 120.753 76.9348 105.726C91.9613 90.6997 91.9613 66.3374 76.9348 51.3109L49.7273 24.1031ZM49.7273 8.55585L84.7089 43.5372C104.028 62.8568 104.028 94.1803 84.7089 113.5C65.3887 132.819 34.0656 132.819 14.7459 113.5C-4.57382 94.1803 -4.57382 62.8568 14.7459 43.5372L49.7273 8.55585ZM49.7273 106.003V51.0346C64.9061 51.0346 77.2113 63.3394 77.2113 78.5188C77.2113 93.6977 64.9061 106.003 49.7273 106.003Z" fill="#0063CB"/>
<path d="M139.872 90.9439C144.48 96.1999 150.312 99.4399 159.6 99.4399C169.104 99.4399 177.024 93.6799 177.168 83.5999C177.168 65.9599 154.992 68.4799 154.992 60.9919C154.992 58.9039 156.792 57.3199 159.384 57.3199C162.768 57.3199 165.936 59.8399 168.888 63.2959L178.176 54.7999C173.496 49.6159 167.304 46.1599 159.312 46.1599C149.088 46.1599 142.032 53.1439 142.032 61.5679C142.032 78.8479 164.208 76.3279 164.208 84.0319C164.208 86.9119 162.408 88.2079 159.456 88.2079C155.784 88.2079 151.824 85.9039 149.16 82.3759L139.872 90.9439Z" fill="url(#paint0_linear_10789_133075)"/>
<path d="M208.12 55.9519L216.904 43.9999H204.664L197.248 55.9519H208.12ZM219.352 92.1679L211.288 85.7599C209.632 87.8479 206.608 89.2159 203.152 89.2159C198.832 89.2159 195.664 87.9199 194.584 83.0239H218.056C218.416 81.7279 218.776 79.4239 218.776 76.9759C218.776 67.1119 212.008 60.2719 201.712 60.2719C189.4 60.2719 182.848 69.3439 182.848 79.8559C182.848 90.4399 189.904 99.4399 203.224 99.4399C210.208 99.4399 215.896 96.7039 219.352 92.1679ZM201.424 69.4879C205.672 69.4879 207.544 72.5119 207.688 74.9599H194.656C195.52 71.2879 197.752 69.4879 201.424 69.4879Z" fill="url(#paint1_linear_10789_133075)"/>
<path d="M244.283 88.7119C239.387 88.7119 235.931 85.2559 235.931 79.8559C235.931 74.5279 239.387 70.9999 244.067 70.9999C247.235 70.9999 249.467 72.4399 250.763 74.3119L259.691 67.5439C256.307 63.0799 250.907 60.2719 244.211 60.2719C231.395 60.2719 224.051 69.2719 224.051 79.8559C224.051 90.4399 231.395 99.4399 244.211 99.4399C250.907 99.4399 256.307 96.6319 259.691 92.1679L250.763 85.3999C249.467 87.2719 247.163 88.7119 244.283 88.7119Z" fill="url(#paint2_linear_10789_133075)"/>
<path d="M265.305 97.9999H276.753V75.3919C277.473 74.1679 279.273 70.9999 283.305 70.9999C286.977 70.9999 288.921 73.5199 288.921 77.1919V97.9999H300.441V76.6879C300.441 65.6719 294.105 60.2719 286.401 60.2719C282.153 60.2719 279.129 61.7119 276.753 63.7279V43.9999H265.305V97.9999Z" fill="url(#paint3_linear_10789_133075)"/>
<path d="M343.805 92.1679L335.741 85.7599C334.085 87.8479 331.061 89.2159 327.605 89.2159C323.285 89.2159 320.117 87.9199 319.037 83.0239H342.509C342.869 81.7279 343.229 79.4239 343.229 76.9759C343.229 67.1119 336.461 60.2719 326.165 60.2719C313.853 60.2719 307.301 69.3439 307.301 79.8559C307.301 90.4399 314.357 99.4399 327.677 99.4399C334.661 99.4399 340.349 96.7039 343.805 92.1679ZM325.877 69.4879C330.125 69.4879 331.997 72.5119 332.141 74.9599H319.109C319.973 71.2879 322.205 69.4879 325.877 69.4879Z" fill="url(#paint4_linear_10789_133075)"/>
<path d="M351.016 97.9999H362.464V75.9679C363.184 74.7439 365.92 72.2959 370.096 72.2959C371.968 72.2959 373.336 72.5119 374.56 72.7999V61.4959C373.696 61.2079 372.544 60.9919 371.248 60.9919C367.504 60.9919 364.696 62.5759 362.464 64.6639V61.7119H351.016V97.9999Z" fill="url(#paint5_linear_10789_133075)"/>
<path d="M413.977 92.1679L405.913 85.7599C404.257 87.8479 401.233 89.2159 397.777 89.2159C393.457 89.2159 390.289 87.9199 389.209 83.0239H412.681C413.041 81.7279 413.401 79.4239 413.401 76.9759C413.401 67.1119 406.633 60.2719 396.337 60.2719C384.025 60.2719 377.473 69.3439 377.473 79.8559C377.473 90.4399 384.529 99.4399 397.849 99.4399C404.833 99.4399 410.521 96.7039 413.977 92.1679ZM396.049 69.4879C400.297 69.4879 402.169 72.5119 402.313 74.9599H389.281C390.145 71.2879 392.377 69.4879 396.049 69.4879Z" fill="url(#paint6_linear_10789_133075)"/>
<path d="M417.821 92.5279C421.493 96.7039 426.101 99.4399 433.085 99.4399C440.069 99.4399 446.765 95.2639 446.909 87.0559C446.909 74.3839 430.133 76.2559 430.133 71.5759C430.133 70.3519 431.069 69.3439 433.085 69.3439C435.677 69.3439 437.837 71.2879 439.565 73.3039L447.053 66.6079C444.317 63.0799 438.845 60.2719 433.085 60.2719C425.093 60.2719 419.261 65.2399 419.261 72.1519C419.261 84.8959 436.037 82.8799 436.037 87.8479C436.037 89.2879 435.029 90.3679 432.941 90.3679C429.701 90.3679 427.253 88.2079 425.309 85.6879L417.821 92.5279Z" fill="url(#paint7_linear_10789_133075)"/>
<path d="M450.727 92.5279C454.399 96.7039 459.007 99.4399 465.991 99.4399C472.975 99.4399 479.671 95.2639 479.815 87.0559C479.815 74.3839 463.039 76.2559 463.039 71.5759C463.039 70.3519 463.975 69.3439 465.991 69.3439C468.583 69.3439 470.743 71.2879 472.471 73.3039L479.959 66.6079C477.223 63.0799 471.751 60.2719 465.991 60.2719C457.999 60.2719 452.167 65.2399 452.167 72.1519C452.167 84.8959 468.943 82.8799 468.943 87.8479C468.943 89.2879 467.935 90.3679 465.847 90.3679C462.607 90.3679 460.159 88.2079 458.215 85.6879L450.727 92.5279Z" fill="url(#paint8_linear_10789_133075)"/>
<path d="M521.344 92.1679L513.28 85.7599C511.624 87.8479 508.6 89.2159 505.144 89.2159C500.824 89.2159 497.656 87.9199 496.576 83.0239H520.048C520.408 81.7279 520.768 79.4239 520.768 76.9759C520.768 67.1119 514 60.2719 503.704 60.2719C491.392 60.2719 484.84 69.3439 484.84 79.8559C484.84 90.4399 491.896 99.4399 505.216 99.4399C512.2 99.4399 517.888 96.7039 521.344 92.1679ZM503.416 69.4879C507.664 69.4879 509.536 72.5119 509.68 74.9599H496.648C497.512 71.2879 499.744 69.4879 503.416 69.4879Z" fill="url(#paint9_linear_10789_133075)"/>
<path d="M136.872 88.9439C141.48 94.1999 147.312 97.4399 156.6 97.4399C166.104 97.4399 174.024 91.6799 174.168 81.5999C174.168 63.9599 151.992 66.4799 151.992 58.9919C151.992 56.9039 153.792 55.3199 156.384 55.3199C159.768 55.3199 162.936 57.8399 165.888 61.2959L175.176 52.7999C170.496 47.6159 164.304 44.1599 156.312 44.1599C146.088 44.1599 139.032 51.1439 139.032 59.5679C139.032 76.8479 161.208 74.3279 161.208 82.0319C161.208 84.9119 159.408 86.2079 156.456 86.2079C152.784 86.2079 148.824 83.9039 146.16 80.3759L136.872 88.9439Z" fill="black"/>
<path d="M205.12 53.9519L213.904 41.9999H201.664L194.248 53.9519H205.12ZM216.352 90.1679L208.288 83.7599C206.632 85.8479 203.608 87.2159 200.152 87.2159C195.832 87.2159 192.664 85.9199 191.584 81.0239H215.056C215.416 79.7279 215.776 77.4239 215.776 74.9759C215.776 65.1119 209.008 58.2719 198.712 58.2719C186.4 58.2719 179.848 67.3439 179.848 77.8559C179.848 88.4399 186.904 97.4399 200.224 97.4399C207.208 97.4399 212.896 94.7039 216.352 90.1679ZM198.424 67.4879C202.672 67.4879 204.544 70.5119 204.688 72.9599H191.656C192.52 69.2879 194.752 67.4879 198.424 67.4879Z" fill="black"/>
<path d="M241.283 86.7119C236.387 86.7119 232.931 83.2559 232.931 77.8559C232.931 72.5279 236.387 68.9999 241.067 68.9999C244.235 68.9999 246.467 70.4399 247.763 72.3119L256.691 65.5439C253.307 61.0799 247.907 58.2719 241.211 58.2719C228.395 58.2719 221.051 67.2719 221.051 77.8559C221.051 88.4399 228.395 97.4399 241.211 97.4399C247.907 97.4399 253.307 94.6319 256.691 90.1679L247.763 83.3999C246.467 85.2719 244.163 86.7119 241.283 86.7119Z" fill="black"/>
<path d="M262.305 95.9999H273.753V73.3919C274.473 72.1679 276.273 68.9999 280.305 68.9999C283.977 68.9999 285.921 71.5199 285.921 75.1919V95.9999H297.441V74.6879C297.441 63.6719 291.105 58.2719 283.401 58.2719C279.153 58.2719 276.129 59.7119 273.753 61.7279V41.9999H262.305V95.9999Z" fill="black"/>
<path d="M340.805 90.1679L332.741 83.7599C331.085 85.8479 328.061 87.2159 324.605 87.2159C320.285 87.2159 317.117 85.9199 316.037 81.0239H339.509C339.869 79.7279 340.229 77.4239 340.229 74.9759C340.229 65.1119 333.461 58.2719 323.165 58.2719C310.853 58.2719 304.301 67.3439 304.301 77.8559C304.301 88.4399 311.357 97.4399 324.677 97.4399C331.661 97.4399 337.349 94.7039 340.805 90.1679ZM322.877 67.4879C327.125 67.4879 328.997 70.5119 329.141 72.9599H316.109C316.973 69.2879 319.205 67.4879 322.877 67.4879Z" fill="black"/>
<path d="M348.016 95.9999H359.464V73.9679C360.184 72.7439 362.92 70.2959 367.096 70.2959C368.968 70.2959 370.336 70.5119 371.56 70.7999V59.4959C370.696 59.2079 369.544 58.9919 368.248 58.9919C364.504 58.9919 361.696 60.5759 359.464 62.6639V59.7119H348.016V95.9999Z" fill="black"/>
<path d="M410.977 90.1679L402.913 83.7599C401.257 85.8479 398.233 87.2159 394.777 87.2159C390.457 87.2159 387.289 85.9199 386.209 81.0239H409.681C410.041 79.7279 410.401 77.4239 410.401 74.9759C410.401 65.1119 403.633 58.2719 393.337 58.2719C381.025 58.2719 374.473 67.3439 374.473 77.8559C374.473 88.4399 381.529 97.4399 394.849 97.4399C401.833 97.4399 407.521 94.7039 410.977 90.1679ZM393.049 67.4879C397.297 67.4879 399.169 70.5119 399.313 72.9599H386.281C387.145 69.2879 389.377 67.4879 393.049 67.4879Z" fill="black"/>
<path d="M414.821 90.5279C418.493 94.7039 423.101 97.4399 430.085 97.4399C437.069 97.4399 443.765 93.2639 443.909 85.0559C443.909 72.3839 427.133 74.2559 427.133 69.5759C427.133 68.3519 428.069 67.3439 430.085 67.3439C432.677 67.3439 434.837 69.2879 436.565 71.3039L444.053 64.6079C441.317 61.0799 435.845 58.2719 430.085 58.2719C422.093 58.2719 416.261 63.2399 416.261 70.1519C416.261 82.8959 433.037 80.8799 433.037 85.8479C433.037 87.2879 432.029 88.3679 429.941 88.3679C426.701 88.3679 424.253 86.2079 422.309 83.6879L414.821 90.5279Z" fill="black"/>
<path d="M447.727 90.5279C451.399 94.7039 456.007 97.4399 462.991 97.4399C469.975 97.4399 476.671 93.2639 476.815 85.0559C476.815 72.3839 460.039 74.2559 460.039 69.5759C460.039 68.3519 460.975 67.3439 462.991 67.3439C465.583 67.3439 467.743 69.2879 469.471 71.3039L476.959 64.6079C474.223 61.0799 468.751 58.2719 462.991 58.2719C454.999 58.2719 449.167 63.2399 449.167 70.1519C449.167 82.8959 465.943 80.8799 465.943 85.8479C465.943 87.2879 464.935 88.3679 462.847 88.3679C459.607 88.3679 457.159 86.2079 455.215 83.6879L447.727 90.5279Z" fill="black"/>
<path d="M518.344 90.1679L510.28 83.7599C508.624 85.8479 505.6 87.2159 502.144 87.2159C497.824 87.2159 494.656 85.9199 493.576 81.0239H517.048C517.408 79.7279 517.768 77.4239 517.768 74.9759C517.768 65.1119 511 58.2719 500.704 58.2719C488.392 58.2719 481.84 67.3439 481.84 77.8559C481.84 88.4399 488.896 97.4399 502.216 97.4399C509.2 97.4399 514.888 94.7039 518.344 90.1679ZM500.416 67.4879C504.664 67.4879 506.536 70.5119 506.68 72.9599H493.648C494.512 69.2879 496.744 67.4879 500.416 67.4879Z" fill="black"/>
<path d="M551.979 93.1199C538.947 93.1199 529.731 83.0399 529.731 70.7999C529.731 58.5599 538.659 48.4799 551.259 48.4799C558.603 48.4799 564.723 52.0799 568.467 57.4799L572.283 54.5999C567.675 48.3359 560.187 44.1599 551.259 44.1599C535.563 44.1599 524.907 56.3999 524.907 70.7999C524.907 85.1999 535.851 97.4399 551.979 97.4399C561.339 97.4399 569.043 93.3359 573.723 87.0719V68.3519H553.419V72.3839H569.115V85.2719C565.227 90.0959 559.179 93.1199 551.979 93.1199Z" fill="black"/>
<path d="M603.121 58.2719C591.529 58.2719 583.681 67.4879 583.681 77.8559C583.681 88.2239 591.529 97.4399 603.121 97.4399C614.785 97.4399 622.633 88.2239 622.633 77.8559C622.633 67.4879 614.785 58.2719 603.121 58.2719ZM603.193 93.4079C594.337 93.4079 588.073 86.1359 588.073 77.8559C588.073 69.5759 594.337 62.3039 603.193 62.3039C611.761 62.3039 618.097 69.5039 618.097 77.8559C618.097 86.0639 611.761 93.4079 603.193 93.4079Z" fill="black"/>
<path d="M659.465 80.5919C659.465 88.7999 654.857 93.4079 648.161 93.4079C641.321 93.4079 636.785 88.7999 636.785 80.5919V59.7119H632.537V80.5199C632.537 91.3199 638.801 97.4399 648.161 97.4399C657.449 97.4399 663.641 91.3199 663.641 80.5199V59.7119H659.465V80.5919Z" fill="black"/>
<path d="M671.59 59.7119L686.35 95.9999H691.966L706.726 59.7119H702.118L689.158 91.8959L676.126 59.7119H671.59Z" fill="black"/>
<defs>
<linearGradient id="paint0_linear_10789_133075" x1="706.726" y1="78.6143" x2="0.272485" y2="73.8165" gradientUnits="userSpaceOnUse">
<stop stop-color="#FEECC2"/>
<stop offset="1" stop-color="#6A6AF4"/>
</linearGradient>
<linearGradient id="paint1_linear_10789_133075" x1="706.726" y1="78.6143" x2="0.272485" y2="73.8165" gradientUnits="userSpaceOnUse">
<stop stop-color="#FEECC2"/>
<stop offset="1" stop-color="#6A6AF4"/>
</linearGradient>
<linearGradient id="paint2_linear_10789_133075" x1="706.726" y1="78.6143" x2="0.272485" y2="73.8165" gradientUnits="userSpaceOnUse">
<stop stop-color="#FEECC2"/>
<stop offset="1" stop-color="#6A6AF4"/>
</linearGradient>
<linearGradient id="paint3_linear_10789_133075" x1="706.726" y1="78.6143" x2="0.272485" y2="73.8165" gradientUnits="userSpaceOnUse">
<stop stop-color="#FEECC2"/>
<stop offset="1" stop-color="#6A6AF4"/>
</linearGradient>
<linearGradient id="paint4_linear_10789_133075" x1="706.726" y1="78.6143" x2="0.272485" y2="73.8165" gradientUnits="userSpaceOnUse">
<stop stop-color="#FEECC2"/>
<stop offset="1" stop-color="#6A6AF4"/>
</linearGradient>
<linearGradient id="paint5_linear_10789_133075" x1="706.726" y1="78.6143" x2="0.272485" y2="73.8165" gradientUnits="userSpaceOnUse">
<stop stop-color="#FEECC2"/>
<stop offset="1" stop-color="#6A6AF4"/>
</linearGradient>
<linearGradient id="paint6_linear_10789_133075" x1="706.726" y1="78.6143" x2="0.272485" y2="73.8165" gradientUnits="userSpaceOnUse">
<stop stop-color="#FEECC2"/>
<stop offset="1" stop-color="#6A6AF4"/>
</linearGradient>
<linearGradient id="paint7_linear_10789_133075" x1="706.726" y1="78.6143" x2="0.272485" y2="73.8165" gradientUnits="userSpaceOnUse">
<stop stop-color="#FEECC2"/>
<stop offset="1" stop-color="#6A6AF4"/>
</linearGradient>
<linearGradient id="paint8_linear_10789_133075" x1="706.726" y1="78.6143" x2="0.272485" y2="73.8165" gradientUnits="userSpaceOnUse">
<stop stop-color="#FEECC2"/>
<stop offset="1" stop-color="#6A6AF4"/>
</linearGradient>
<linearGradient id="paint9_linear_10789_133075" x1="706.726" y1="78.6143" x2="0.272485" y2="73.8165" gradientUnits="userSpaceOnUse">
<stop stop-color="#FEECC2"/>
<stop offset="1" stop-color="#6A6AF4"/>
</linearGradient>
</defs>
</svg>
