<svg width="438" height="128" viewBox="0 0 438 128" fill="none" xmlns="http://www.w3.org/2000/svg">
  <path d="M53 0.570312L90.1233 37.6934C110.626 58.1958 110.626 91.4371 90.1233 111.939C69.6203 132.442 36.3794 132.442 15.8769 111.939C-4.62563 91.4371 -4.62563 58.1958 15.8769 37.6934L53 0.570312ZM53 17.0695L24.1265 45.943C8.18005 61.8895 8.18005 87.7434 24.1265 103.69C32.1058 111.669 42.5659 115.656 53.0245 115.65L53 17.0695Z" fill="#000091"/>
  <path d="M49.727 14.102L19.5193 45.3097C4.49283 60.3362 5.49283 89.6986 20.5193 104.725C35.5457 119.752 63.9085 119.752 78.9345 104.725C93.9611 89.6986 94.9611 60.3362 79.9345 45.3097L49.727 14.102ZM49.727 5.55469L84.7086 40.5361C104.028 59.8556 104.028 91.1791 84.7086 110.499C65.3885 129.818 34.0653 129.818 14.7456 110.499C-4.57407 91.1791 -4.57407 59.8556 14.7456 40.5361L49.727 5.55469ZM49.727 103.002V48.0335C64.9059 48.0335 77.211 60.3383 77.211 75.5177C77.211 90.6965 64.9059 103.002 49.727 103.002Z" fill="#0063CB"/>
  <path d="M134.432 50.6H148.04L161.072 86.528L174.104 50.6H187.712L169.424 101H152.72L134.432 50.6ZM198.653 60.752C194.693 60.752 191.381 57.368 191.381 53.48C191.381 49.592 194.693 46.28 198.653 46.28C202.469 46.28 205.781 49.592 205.781 53.48C205.781 57.368 202.469 60.752 198.653 60.752ZM192.821 101V64.712H204.269V101H192.821ZM210.537 107.192C210.537 103.664 212.265 100.784 215.289 98.552C213.993 96.968 213.273 95.096 213.273 93.296C213.273 90.344 214.281 88.04 217.017 85.952C213.849 83.576 212.193 80.048 212.193 76.016C212.193 68.816 217.593 63.272 227.097 63.272C230.049 63.272 232.641 63.776 234.729 64.712H247.761V74.288H242.073C242.145 74.864 242.145 75.44 242.145 76.016C242.145 83.288 236.817 88.832 227.097 88.832C226.377 88.832 225.729 88.832 225.081 88.76C224.649 89.192 224.433 89.696 224.433 90.2C224.433 91.496 225.225 91.928 226.377 91.928H234.657C243.441 91.928 248.769 97.112 248.769 104.024C248.769 112.376 241.065 119 229.473 119C217.233 119 210.537 115.112 210.537 107.192ZM227.169 80.48C229.977 80.48 231.993 78.968 231.993 76.016C231.993 73.064 229.977 71.624 227.169 71.624C224.361 71.624 222.417 73.136 222.417 76.016C222.417 78.968 224.361 80.48 227.169 80.48ZM221.193 105.464C221.193 108.272 223.569 110 229.329 110C235.161 110 237.537 107.984 237.537 105.248C237.537 103.088 236.097 101.648 233.217 101.648H222.633C221.841 102.584 221.193 103.736 221.193 105.464ZM259.754 60.752C255.794 60.752 252.482 57.368 252.482 53.48C252.482 49.592 255.794 46.28 259.754 46.28C263.57 46.28 266.882 49.592 266.882 53.48C266.882 57.368 263.57 60.752 259.754 60.752ZM253.922 101V64.712H265.37V101H253.922ZM309.079 95.168C305.623 99.704 299.935 102.44 292.951 102.44C279.631 102.44 272.575 93.44 272.575 82.856C272.575 72.344 279.127 63.272 291.439 63.272C301.735 63.272 308.503 70.112 308.503 79.976C308.503 82.424 308.143 84.728 307.783 86.024H284.311C285.391 90.92 288.559 92.216 292.879 92.216C296.335 92.216 299.359 90.848 301.015 88.76L309.079 95.168ZM291.151 72.488C287.479 72.488 285.247 74.288 284.383 77.96H297.415C297.271 75.512 295.399 72.488 291.151 72.488ZM350.282 95.168C346.826 99.704 341.138 102.44 334.154 102.44C320.834 102.44 313.778 93.44 313.778 82.856C313.778 72.344 320.33 63.272 332.642 63.272C342.938 63.272 349.706 70.112 349.706 79.976C349.706 82.424 349.346 84.728 348.986 86.024H325.514C326.594 90.92 329.762 92.216 334.082 92.216C337.538 92.216 340.562 90.848 342.218 88.76L350.282 95.168ZM332.354 72.488C328.682 72.488 326.45 74.288 325.586 77.96H338.618C338.474 75.512 336.602 72.488 332.354 72.488ZM367.301 102.08C359.957 102.08 354.845 97.832 354.845 90.776C354.845 85.232 359.093 80.984 367.013 79.688L377.237 77.96C377.165 75.224 374.789 73.136 371.405 73.136C368.381 73.136 366.149 74.576 364.493 76.952L356.141 70.616C359.453 66.008 364.997 63.272 371.765 63.272C383.285 63.272 388.613 70.184 388.613 78.104V101H377.237V98.264C375.221 100.496 371.117 102.08 367.301 102.08ZM366.149 90.2C366.149 92.072 367.589 93.224 369.821 93.224C373.493 93.224 375.797 91.496 377.237 89.336V85.736L370.109 86.96C367.157 87.464 366.149 88.544 366.149 90.2ZM420.609 85.232V64.712H432.129V84.584C432.129 95.456 425.649 102.44 414.489 102.44C403.185 102.44 396.921 95.456 396.921 84.584V64.712H408.441V85.232C408.441 89.048 410.313 91.712 414.561 91.712C418.665 91.712 420.609 89.048 420.609 85.232Z" fill="url(#paint0_linear_1117_195656)"/>
  <path d="M132.08 45.6H142.952L157.856 84.984L172.76 45.6H183.632L164.552 96H151.16L132.08 45.6ZM195.519 53.376C192.279 53.376 189.543 50.64 189.543 47.4C189.543 44.16 192.279 41.424 195.519 41.424C198.759 41.424 201.423 44.16 201.423 47.4C201.423 50.64 198.759 53.376 195.519 53.376ZM190.911 96V59.712H200.055V96H190.911ZM208.14 102.336C208.14 98.736 209.94 95.856 213.18 93.48C211.74 92.04 210.948 90.096 210.948 88.224C210.948 85.344 212.172 83.04 214.908 81.024C211.74 78.648 210.012 75.048 210.012 71.016C210.012 63.96 215.484 58.272 224.556 58.272C227.364 58.272 229.812 58.776 231.9 59.712H245.148V67.488H238.74C239.1 68.64 239.244 69.792 239.244 71.016C239.244 78.144 233.916 83.904 224.556 83.904C223.332 83.904 222.18 83.832 221.1 83.616C220.308 84.336 219.876 85.128 219.876 85.92C219.876 87.36 220.668 88.08 222.324 88.08H231.468C240.612 88.08 245.58 92.976 245.58 99.744C245.58 107.808 237.876 114 226.572 114C214.98 114 208.14 109.968 208.14 102.336ZM224.7 76.992C228.516 76.992 230.964 74.616 230.964 71.016C230.964 67.416 228.516 65.112 224.7 65.112C220.74 65.112 218.364 67.488 218.364 71.016C218.364 74.616 220.74 76.992 224.7 76.992ZM216.78 101.04C216.78 104.496 220.092 106.656 226.5 106.656C233.124 106.656 236.508 104.208 236.508 100.608C236.508 97.872 234.852 95.928 230.46 95.928H219.228C217.86 97.224 216.78 98.808 216.78 101.04ZM257.076 53.376C253.836 53.376 251.1 50.64 251.1 47.4C251.1 44.16 253.836 41.424 257.076 41.424C260.316 41.424 262.98 44.16 262.98 47.4C262.98 50.64 260.316 53.376 257.076 53.376ZM252.468 96V59.712H261.612V96H252.468ZM306.705 90.096C303.321 94.632 297.705 97.44 290.865 97.44C277.977 97.44 270.705 88.44 270.705 77.856C270.705 67.128 277.473 58.272 289.353 58.272C299.433 58.272 306.057 65.112 306.057 74.616C306.057 76.632 305.769 78.504 305.481 79.728H280.065C280.929 86.496 285.105 89.232 290.793 89.232C294.753 89.232 298.209 87.504 300.153 84.912L306.705 90.096ZM289.137 65.76C284.457 65.76 281.361 68.352 280.353 73.104H297.057C296.913 69.432 294.249 65.76 289.137 65.76ZM348.833 90.024C345.521 94.56 340.193 97.44 333.569 97.44C321.689 97.44 313.985 88.44 313.985 77.856C313.985 66.624 321.185 58.272 332.057 58.272C341.777 58.272 347.969 65.184 347.969 73.752C347.969 74.832 347.897 75.912 347.681 76.776H318.377C318.377 77.064 318.377 77.352 318.377 77.64C318.377 86.856 324.641 93.552 333.569 93.552C338.681 93.552 342.929 91.176 345.593 87.432L348.833 90.024ZM331.985 62.016C325.217 62.016 320.177 66.264 318.809 73.392H343.649C343.433 67.056 339.041 62.016 331.985 62.016ZM369.501 97.008C362.445 97.008 357.765 93.192 357.765 87.216C357.765 81.744 361.941 78 369.573 76.704L382.533 74.544V71.16C382.533 65.328 378.429 62.16 372.741 62.16C368.061 62.16 364.245 64.248 361.797 67.704L358.557 65.184C361.653 60.936 366.621 58.272 372.885 58.272C381.237 58.272 386.709 63.168 386.709 71.16V96H382.533V90.744C379.437 94.848 374.541 97.008 369.501 97.008ZM362.085 87.144C362.085 90.672 365.109 93.336 370.005 93.336C375.261 93.336 379.797 90.816 382.533 86.136V77.856L370.509 79.872C364.749 80.88 362.085 83.544 362.085 87.144ZM427.068 80.592V59.712H431.244V80.52C431.244 91.32 425.052 97.44 415.764 97.44C406.404 97.44 400.14 91.32 400.14 80.52V59.712H404.388V80.592C404.388 88.8 408.924 93.408 415.764 93.408C422.46 93.408 427.068 88.8 427.068 80.592Z" fill="black"/>
  <defs>
    <linearGradient id="paint0_linear_1117_195656" x1="437" y1="78" x2="134" y2="76.5943" gradientUnits="userSpaceOnUse">
      <stop stop-color="#FEECC2"/>
      <stop offset="1" stop-color="#6A6AF4"/>
    </linearGradient>
  </defs>
</svg>
