<?xml version="1.0" encoding="utf-8"?>
<!-- Generator: Adobe Illustrator 19.2.1, SVG Export Plug-In . SVG Version: 6.00 Build 0)  -->
<svg version="1.1" id="layer" xmlns="http://www.w3.org/2000/svg" xmlns:xlink="http://www.w3.org/1999/xlink" x="0px" y="0px"
	 viewBox="0 0 652 652" style="enable-background:new 0 0 652 652;" xml:space="preserve">
<style type="text/css">
	.st0{fill:#FC2D43;}
	.st1{fill:#FFFFFF;}
</style>
<path class="st0" d="M593.7,97l-47.3-10.9l-3.5,8.3l-25.4-9.9l-41.3-0.4l-9-3.6h-18.4l-23.7,16.1l-79.9-25.4v9.3L259.7,128H138.5
	l-90.2-16.3V554c0,9.5,7.7,17.1,17.1,17.1h511.2c9.5,0,17.1-7.7,17.1-17.1V97z"/>
<path class="st1" d="M178.7,262.6v35c-7.5,11.5-18,17.4-33.3,17.4c-29.2,0-42.5-22.6-42.5-50.9c0-28.4,13.3-50.9,40.7-50.9
	c16.2,0,25.2,6.5,32.2,15.9l-8.6,7.9c-4.6-5.5-11.1-12.4-24.8-12.4c-20.9,0-26,16.6-26,39.5c0,22.1,5.1,39.6,28.1,39.6
	c10.8,0,18.1-3.9,22.3-10.1v-19.9H147l-0.4-11.1H178.7z M266.4,312.5l-20.1-39.7c9.1-4.8,16.3-14.8,16.3-27.5
	c0-13.8-6.6-30.2-31.9-30.2c-7.7,0-21.6,0.4-29.3,0.6v96.8h12.2v-36.8c6.6,0.2,14.1,0.3,20.3,0.3h0.4l17.7,36.5H266.4z M213.6,265.2
	v-38.7c7.6-0.4,11.5-0.6,16.5-0.6c15.3,0,19.4,5.4,19.4,19c0,15.1-6.8,20.3-17.3,20.3H213.6z M346.8,312.5h12.9l-37.2-96.8h-9.1
	l-37.2,96.8H289l8.9-23.9h40.1L346.8,312.5z M302,277.5l12.4-33.7l3.5-10.7l3.3,10.7l12.6,33.7H302z M433.2,215.7v71.4h-0.3
	l-1.9-3.6l-46.6-67.8h-9.6v96.8H387v-71.2h0.3l2.2,4.3l46.7,66.9h9.1v-96.8H433.2z M540,264.1c0-28.4-16.2-49-47.3-49
	c-7.7,0-16.9,0.3-24.6,0.6v96.8c7.7,0.3,16,0.5,23.8,0.5C523,313.1,540,292.5,540,264.1 M526.4,264.1c0,25.7-9.3,37.6-36.4,37.6
	c-3.5,0-6.6,0-9.8-0.1v-75c3.2-0.1,6.4-0.1,9.8-0.1C517.2,226.5,526.4,238.4,526.4,264.1 M140.2,392.1c-2.2,3.9-6.4,6.8-12.1,6.8
	c-7.6,0-11.4-5.3-11.4-18.2c0-12.8,3.8-18.3,11.5-18.3c5.4,0,9.4,2.5,11.6,6.5l10.2-6c-4-7.2-10.9-12.3-21.7-12.3
	c-16.3,0-25.8,11.5-25.8,29.8c0,18.4,9.5,30.1,25.8,30.1c11,0,18.1-5.6,22.1-12.8L140.2,392.1z M192,352.3v22.1h-19.8v-22.1h-12.9
	v56.8h12.9v-23.2H192v23.2h12.9v-56.8H192z M253.9,409.1h13.6l-21-56.8H233l-20.9,56.8h13.5l3.6-10.6h21L253.9,409.1z M232.8,388
	l5-14.9l2-6.4l1.9,6.4l5,14.9H232.8z M332,352.3h-12.7l-15.9,24l-15.9-24h-12.9v56.8h12.9v-37h0.2l2.2,4.4l10.6,14.5h5.6l10.6-14.5
	l2.2-4.4h0.2v37h13V352.3z M386.6,392.9c0-10.1-5-13-8.7-14.9v-0.2c3.5-2.1,5.6-5.2,5.6-11.3c0-9.3-4.8-14.8-21.7-14.8
	c-4.7,0-13.4,0.3-18,0.6v56.8c3.1,0.2,13.3,0.9,19.2,0.9C383.1,410,386.6,401.3,386.6,392.9 M356.3,363.4c3.3-0.2,6.2-0.3,8-0.3
	c6.2,0,6.8,1.7,6.8,5.1c0,3.7-0.8,6.3-5.1,6.3h-9.7V363.4 M373,391.8c0,4.8-1.6,6.7-8.5,6.7c-2,0-5-0.2-8.2-0.3v-12.7h10.9
	C371.7,385.4,373,387.5,373,391.8 M408.8,397.6v-11.7h20.2v-11.6h-20.2v-10.5h24.8l0.2-11.6H396v56.8h37.9l-0.2-11.5H408.8z
	 M412.3,334.6l-4.3,12h7.4l8.4-12H412.3z M489,409.1l-11.1-21.7c5.7-3.4,8.5-9.4,8.5-16.9c0-11-5.7-18.7-24.1-18.7
	c-3.9,0-13.8,0.3-18.4,0.5v56.8h12.9V390c3.4,0.2,6.6,0.2,8.4,0.2h0.1l9.2,18.8H489z M456.9,363.5c2.7-0.2,5.2-0.2,6.8-0.2
	c6.5,0,8.9,1.6,8.9,8.1c0,6.7-2.7,8.1-9.3,8.1c-1.4,0-3.8-0.1-6.4-0.2V363.5z M543.9,352.3h-14.4l-10.2,19.3l-2,5.3l-2.1-5.3
	L505,352.3h-14.5l20.3,36.2v20.6h13v-20.6L543.9,352.3z M113.1,434.2v38.9h4.6V434L113.1,434.2z M128.5,447.9
	c5.8-0.9,8.1-3.6,8.1-9.3V434h-6v5.6h2.6c0,3.4-1.2,5.2-5.1,6.2L128.5,447.9z M167.7,473.1l-0.7-3.7v-16.1c0-5.6-3.6-8.4-9.5-8.4
	c-4.7,0-8.2,1.7-10.4,3.4l1.7,3.2c1-0.6,4.5-2.7,8.5-2.7s5.1,1.4,5.1,5.5v1.7c-11.2,0.5-17,1.7-17,8.6c0,6.3,4,9.4,10.2,9.4
	c3.3,0,5.6-1.4,7.2-2.7h0.1l0.4,1.8H167.7z M155.9,470.2c-4.6,0-5.8-1.5-5.8-5.8c0-3.9,1.8-4.2,12.3-4.9v9
	C160.9,469.3,159,470.2,155.9,470.2 M197.3,448c0.4-1.5,1.3-2.9,2.8-2.9c1,0,2.1,0.5,2.6,0.6l0.3-3.8c-0.5-0.1-1.9-0.4-3.3-0.4
	c-3.4,0-4.4,1.7-4.7,4.7c-1.6-0.9-3.7-1.4-6.3-1.4c-7.4,0-10.8,4.2-10.8,9.3c0,3,1.2,6.3,4.7,7.3H182c-0.7,0.4-3.2,1.7-3.2,4.4
	c0,3.8,4,4.5,8.9,5.4c5.6,1,8.3,1.3,8.3,4.3c0,2.2-1.4,4.3-7.2,4.3c-5.1,0-7.4-1.7-7.4-3.8c0-1.3,0.6-2.6,0.8-3l-3.8-0.2
	c-0.4,0.4-1.5,1.4-1.5,3.6c0,3.9,3.7,6.9,11.9,6.9c7.9,0,12-3.4,12-8c0-5.3-4.9-6.7-10.5-7.6c-5.5-0.8-7-1.5-7-2.8
	c0-1.1,1-1.5,2.8-1.5h2.7c7.4,0,10.8-4.2,10.8-9.3C199.5,451.8,198.8,449.7,197.3,448 M194.9,454.1c0,4.4-1.8,5.7-6.2,5.7
	c-4.4,0-6.2-1.3-6.2-5.7c0-4.4,1.8-5.7,6.2-5.7C193.1,448.4,194.9,449.8,194.9,454.1 M229.4,448c0.4-1.5,1.3-2.9,2.8-2.9
	c1,0,2.1,0.5,2.6,0.6l0.3-3.8c-0.5-0.1-1.9-0.4-3.3-0.4c-3.4,0-4.4,1.7-4.7,4.7c-1.6-0.9-3.7-1.4-6.3-1.4c-7.4,0-10.8,4.2-10.8,9.3
	c0,3,1.2,6.3,4.7,7.3h-0.6c-0.7,0.4-3.3,1.7-3.3,4.4c0,3.8,4,4.5,8.9,5.4c5.6,1,8.3,1.3,8.3,4.3c0,2.2-1.4,4.3-7.2,4.3
	c-5.1,0-7.4-1.7-7.4-3.8c0-1.3,0.6-2.6,0.8-3l-3.8-0.2c-0.4,0.4-1.5,1.4-1.5,3.6c0,3.9,3.7,6.9,11.9,6.9c7.9,0,12-3.4,12-8
	c0-5.3-4.9-6.7-10.5-7.6c-5.5-0.8-7-1.5-7-2.8c0-1.1,1-1.5,2.8-1.5h2.7c7.4,0,10.8-4.2,10.8-9.3C231.6,451.8,230.9,449.7,229.4,448
	 M227,454.1c0,4.4-1.8,5.7-6.2,5.7c-4.4,0-6.2-1.3-6.2-5.7c0-4.4,1.8-5.7,6.2-5.7C225.2,448.4,227,449.8,227,454.1 M243.9,434.2
	v38.9h4.6V434L243.9,434.2z M284,459.4c0-9.6-5.2-14.6-12.8-14.6c-7.6,0-12.8,5-12.8,14.6c0,9.6,5.2,14.6,12.8,14.6
	C278.8,474,284,469,284,459.4 M263.3,459.4c0-6.6,1.5-10.5,7.9-10.5c6.4,0,7.9,3.9,7.9,10.5c0,6.6-1.5,10.5-7.9,10.5
	C264.8,470,263.3,466,263.3,459.4 M331.8,455c0-5.3-3.1-10.1-9.8-10.1c-3.8,0-6.9,1.6-8.6,4.2c-1.6-2.6-4.5-4.2-8.1-4.2
	c-2.9,0-5.3,1-7.1,2.8h-0.1l-0.8-2l-3.3,0.2v27.3h4.6v-17.2c0-5.6,2.4-7.3,6.4-7.3c3.5,0,5.5,1.3,5.6,6.8v17.8h4.6v-17.8
	c0-5.2,2.5-6.7,6.1-6.7c4,0,5.8,1.9,5.9,7.4v17.2h4.6V455 M364.7,458.4c0-10.6-5.9-13.6-11.2-13.6c-7,0-11.7,5-11.7,14.6
	c0,9.6,5.5,14.6,12.8,14.6c3.1,0,6-1,9.1-3l-1.7-3.2c-2.8,1.6-5.2,2.1-7.4,2.1c-5.5,0-7.8-3.4-8.2-9.1h18.2V458.4z M346.5,457
	c0.4-5.6,2.5-8.4,7-8.4c3.9,0,6.6,1.9,6.6,8.4H346.5z M357.8,433.7h-4.6l-4.3,7.8h3.4L357.8,433.7z M391.1,446.2
	c-1.2-0.7-3.2-1.4-5.3-1.4c-3.5,0-5.5,1.9-6.6,4.9h-0.1l-0.5-4.1l-3.8,0.2v27.3h4.6V458c0-5.8,2.1-8.9,5.8-8.9c2.3,0,4,1.2,4.4,1.5
	L391.1,446.2 M420.1,473.1l-0.7-3.7v-16.1c0-5.6-3.6-8.4-9.5-8.4c-4.7,0-8.1,1.7-10.4,3.4l1.7,3.2c1-0.6,4.5-2.7,8.5-2.7
	s5.1,1.4,5.1,5.5v1.7c-11.2,0.5-17.1,1.7-17.1,8.6c0,6.3,4.1,9.4,10.2,9.4c3.3,0,5.6-1.4,7.2-2.7h0.1l0.4,1.8H420.1z M408.3,470.2
	c-4.6,0-5.8-1.5-5.8-5.8c0-3.9,1.8-4.2,12.3-4.9v9C413.3,469.3,411.3,470.2,408.3,470.2 M443.5,468.9c-1.8,0.7-2.8,0.8-3.8,0.8
	c-1.5,0-2.5-0.7-2.5-2.6v-17.5h6.2l0.2-3.8h-6.3L437,439l-4.3,1v5.9h-3.2v3.8h3.2v17.7c0,4.6,2.7,6.3,6.1,6.3c2.2,0,3.8-0.5,4.9-1.1
	L443.5,468.9z M459.1,445.6v27.5h-4.6v-27.3L459.1,445.6z M459.2,435.6v4.7l-4.8,0.2v-4.7L459.2,435.6z M494.8,459.4
	c0-9.6-5.2-14.6-12.8-14.6c-7.6,0-12.8,5-12.8,14.6c0,9.6,5.2,14.6,12.8,14.6C489.6,474,494.8,469,494.8,459.4 M474.1,459.4
	c0-6.6,1.5-10.5,7.9-10.5c6.4,0,7.9,3.9,7.9,10.5c0,6.6-1.5,10.5-7.9,10.5C475.6,470,474.1,466,474.1,459.4 M526.9,455
	c0-5.3-3.3-10.1-10-10.1c-3.1,0-5.8,1-7.7,2.9h-0.1l-1-2.1l-3.3,0.2v27.3h4.6v-17.2c0-5.8,2.9-7.3,6.6-7.3c4.2,0,6.3,1.9,6.4,7.4
	v17.2h4.6V455 M517.5,175.9l-4.7-15.5l12.9-9.8l-16.2-0.3l-5.3-15.3l-5.3,15.3l-16.2,0.3l12.9,9.8l-4.7,15.5l13.3-9.3L517.5,175.9z"
	/>
</svg>
