<svg width="482" height="128" viewBox="0 0 482 128" fill="none" xmlns="http://www.w3.org/2000/svg">
<path d="M57 0.569336L94.1234 37.6924C114.626 58.1948 114.626 91.4361 94.1234 111.939C73.6204 132.441 40.3795 132.441 19.8769 111.939C-0.625597 91.4361 -0.625597 58.1948 19.8769 37.6924L57 0.569336ZM57 17.0685L28.1265 45.942C12.1801 61.8885 12.1801 87.7424 28.1265 103.689C36.1059 111.668 46.5659 115.655 57.0245 115.649L57 17.0685Z" fill="#000091"/>
<path d="M49.7274 24.1031L22.5196 51.3109C7.4932 66.3374 7.4932 90.6997 22.5196 105.726C37.5461 120.753 61.9088 120.753 76.9349 105.726C91.9615 90.6997 91.9615 66.3374 76.9349 51.3109L49.7274 24.1031ZM49.7274 8.55585L84.709 43.5372C104.029 62.8568 104.029 94.1803 84.709 113.5C65.3889 132.819 34.0657 132.819 14.746 113.5C-4.5737 94.1803 -4.5737 62.8568 14.746 43.5372L49.7274 8.55585ZM49.7274 106.003V51.0346C64.9062 51.0346 77.2114 63.3394 77.2114 78.5188C77.2114 93.6977 64.9062 106.003 49.7274 106.003Z" fill="#0063CB"/>
<path d="M175.984 96.9999H207.088V86.4159H188.8V76.6239H204.208V66.0399H188.8V57.1839H207.088V46.5999H175.984V96.9999Z" fill="url(#paint0_linear_10747_143242)"/>
<path d="M227.223 98.0799C231.039 98.0799 235.143 96.4959 237.159 94.2639V96.9999H248.535V74.1039C248.535 66.1839 243.207 59.2719 231.687 59.2719C224.919 59.2719 219.375 62.0079 216.063 66.6159L224.415 72.9519C226.071 70.5759 228.303 69.1359 231.327 69.1359C234.711 69.1359 237.087 71.2239 237.159 73.9599L226.935 75.6879C219.015 76.9839 214.767 81.2319 214.767 86.7759C214.767 93.8319 219.879 98.0799 227.223 98.0799ZM226.071 86.1999C226.071 84.5439 227.079 83.4639 230.031 82.9599L237.159 81.7359V85.3359C235.719 87.4959 233.415 89.2239 229.743 89.2239C227.511 89.2239 226.071 88.0719 226.071 86.1999Z" fill="url(#paint1_linear_10747_143242)"/>
<path d="M280.531 81.2319C280.531 85.0479 278.587 87.7119 274.483 87.7119C270.235 87.7119 268.363 85.0479 268.363 81.2319V60.7119H256.843V80.5839C256.843 91.4559 263.107 98.4399 274.411 98.4399C285.571 98.4399 292.051 91.4559 292.051 80.5839V60.7119H280.531V81.2319Z" fill="url(#paint2_linear_10747_143242)"/>
<path d="M326.368 86.4159C317.944 86.4159 311.824 80.2959 311.824 71.7999C311.824 63.3759 317.584 57.1839 325.648 57.1839C330.688 57.1839 334.504 59.6319 336.88 63.0879L347.032 55.3119C342.352 49.1919 334.864 45.1599 325.648 45.1599C309.592 45.1599 298.648 57.3999 298.648 71.7999C298.648 86.1999 309.88 98.4399 326.368 98.4399C335.872 98.4399 343.72 94.4799 348.472 88.2159V65.8959H324.064V76.7679H335.656V83.3919C333.28 85.2639 330.112 86.4159 326.368 86.4159Z" fill="url(#paint3_linear_10747_143242)"/>
<path d="M375.756 59.2719C363.804 59.2719 355.668 67.7679 355.668 78.8559C355.668 89.9439 363.804 98.4399 375.756 98.4399C387.636 98.4399 395.772 89.9439 395.772 78.8559C395.772 67.7679 387.636 59.2719 375.756 59.2719ZM375.828 87.7119C371.076 87.7119 367.548 84.2559 367.548 78.8559C367.548 73.4559 371.076 69.9999 375.828 69.9999C380.436 69.9999 383.964 73.3839 383.964 78.8559C383.964 84.1839 380.436 87.7119 375.828 87.7119Z" fill="url(#paint4_linear_10747_143242)"/>
<path d="M425.937 81.2319C425.937 85.0479 423.993 87.7119 419.889 87.7119C415.641 87.7119 413.769 85.0479 413.769 81.2319V60.7119H402.249V80.5839C402.249 91.4559 408.513 98.4399 419.817 98.4399C430.977 98.4399 437.457 91.4559 437.457 80.5839V60.7119H425.937V81.2319Z" fill="url(#paint5_linear_10747_143242)"/>
<path d="M441.806 60.7119L454.262 96.9999H469.31L481.766 60.7119H469.526L461.822 83.2479L454.046 60.7119H441.806Z" fill="url(#paint6_linear_10747_143242)"/>
<path d="M172.984 95.9999H204.088V85.4159H185.8V75.6239H201.208V65.0399H185.8V56.1839H204.088V45.5999H172.984V95.9999Z" fill="black"/>
<path d="M224.223 97.0799C228.039 97.0799 232.143 95.4959 234.159 93.2639V95.9999H245.535V73.1039C245.535 65.1839 240.207 58.2719 228.687 58.2719C221.919 58.2719 216.375 61.0079 213.063 65.6159L221.415 71.9519C223.071 69.5759 225.303 68.1359 228.327 68.1359C231.711 68.1359 234.087 70.2239 234.159 72.9599L223.935 74.6879C216.015 75.9839 211.767 80.2319 211.767 85.7759C211.767 92.8319 216.879 97.0799 224.223 97.0799ZM223.071 85.1999C223.071 83.5439 224.079 82.4639 227.031 81.9599L234.159 80.7359V84.3359C232.719 86.4959 230.415 88.2239 226.743 88.2239C224.511 88.2239 223.071 87.0719 223.071 85.1999Z" fill="black"/>
<path d="M277.531 80.2319C277.531 84.0479 275.587 86.7119 271.483 86.7119C267.235 86.7119 265.363 84.0479 265.363 80.2319V59.7119H253.843V79.5839C253.843 90.4559 260.107 97.4399 271.411 97.4399C282.571 97.4399 289.051 90.4559 289.051 79.5839V59.7119H277.531V80.2319Z" fill="black"/>
<path d="M324.088 93.1199C311.056 93.1199 301.84 83.0399 301.84 70.7999C301.84 58.5599 310.768 48.4799 323.368 48.4799C330.712 48.4799 336.832 52.0799 340.576 57.4799L344.392 54.5999C339.784 48.3359 332.296 44.1599 323.368 44.1599C307.672 44.1599 297.016 56.3999 297.016 70.7999C297.016 85.1999 307.96 97.4399 324.088 97.4399C333.448 97.4399 341.152 93.3359 345.832 87.0719V68.3519H325.528V72.3839H341.224V85.2719C337.336 90.0959 331.288 93.1199 324.088 93.1199Z" fill="black"/>
<path d="M375.231 58.2719C363.639 58.2719 355.791 67.4879 355.791 77.8559C355.791 88.2239 363.639 97.4399 375.231 97.4399C386.895 97.4399 394.743 88.2239 394.743 77.8559C394.743 67.4879 386.895 58.2719 375.231 58.2719ZM375.303 93.4079C366.447 93.4079 360.183 86.1359 360.183 77.8559C360.183 69.5759 366.447 62.3039 375.303 62.3039C383.871 62.3039 390.207 69.5039 390.207 77.8559C390.207 86.0639 383.871 93.4079 375.303 93.4079Z" fill="black"/>
<path d="M431.575 80.5919C431.575 88.7999 426.967 93.4079 420.271 93.4079C413.431 93.4079 408.895 88.7999 408.895 80.5919V59.7119H404.647V80.5199C404.647 91.3199 410.911 97.4399 420.271 97.4399C429.559 97.4399 435.751 91.3199 435.751 80.5199V59.7119H431.575V80.5919Z" fill="black"/>
<path d="M443.7 59.7119L458.46 95.9999H464.076L478.836 59.7119H474.228L461.268 91.8959L448.236 59.7119H443.7Z" fill="black"/>
<defs>
<linearGradient id="paint0_linear_10747_143242" x1="481.766" y1="78.6143" x2="0.2555" y2="76.3855" gradientUnits="userSpaceOnUse">
<stop stop-color="#ECECFE"/>
<stop offset="1" stop-color="#6A6AF4"/>
</linearGradient>
<linearGradient id="paint1_linear_10747_143242" x1="481.766" y1="78.6143" x2="0.2555" y2="76.3855" gradientUnits="userSpaceOnUse">
<stop stop-color="#ECECFE"/>
<stop offset="1" stop-color="#6A6AF4"/>
</linearGradient>
<linearGradient id="paint2_linear_10747_143242" x1="481.766" y1="78.6143" x2="0.2555" y2="76.3855" gradientUnits="userSpaceOnUse">
<stop stop-color="#ECECFE"/>
<stop offset="1" stop-color="#6A6AF4"/>
</linearGradient>
<linearGradient id="paint3_linear_10747_143242" x1="481.766" y1="78.6143" x2="0.2555" y2="76.3855" gradientUnits="userSpaceOnUse">
<stop stop-color="#ECECFE"/>
<stop offset="1" stop-color="#6A6AF4"/>
</linearGradient>
<linearGradient id="paint4_linear_10747_143242" x1="481.766" y1="78.6143" x2="0.2555" y2="76.3855" gradientUnits="userSpaceOnUse">
<stop stop-color="#ECECFE"/>
<stop offset="1" stop-color="#6A6AF4"/>
</linearGradient>
<linearGradient id="paint5_linear_10747_143242" x1="481.766" y1="78.6143" x2="0.2555" y2="76.3855" gradientUnits="userSpaceOnUse">
<stop stop-color="#ECECFE"/>
<stop offset="1" stop-color="#6A6AF4"/>
</linearGradient>
<linearGradient id="paint6_linear_10747_143242" x1="481.766" y1="78.6143" x2="0.2555" y2="76.3855" gradientUnits="userSpaceOnUse">
<stop stop-color="#ECECFE"/>
<stop offset="1" stop-color="#6A6AF4"/>
</linearGradient>
</defs>
</svg>
