<svg width="424" height="328" viewBox="0 0 424 328" fill="none" xmlns="http://www.w3.org/2000/svg">
  <path d="M2.06 25V11H6.34C9.42 11 11.32 12.58 11.32 15.18C11.32 16.88 10.5 18.14 9.06 18.8L13.44 25H10.1L6.36 19.34H4.9V25H2.06ZM6.5 13.36H4.9V16.98H6.5C7.7 16.98 8.4 16.28 8.4 15.14C8.4 14.08 7.7 13.36 6.5 13.36ZM20.7198 13.32H18.2798L20.3598 10H23.1198L20.7198 13.32ZM24.1398 23.36C23.1998 24.62 21.6398 25.4 19.7398 25.4C16.1598 25.4 14.1398 22.9 14.1398 19.96C14.1398 16.98 16.0198 14.52 19.3198 14.52C22.1198 14.52 23.9598 16.42 23.9598 19.06C23.9598 19.62 23.8798 20.14 23.7998 20.48H16.7398C16.9798 22.36 18.1398 23.12 19.7198 23.12C20.8198 23.12 21.7798 22.64 22.3198 21.92L24.1398 23.36ZM19.2598 16.6C17.9598 16.6 17.0998 17.32 16.8198 18.64H21.4598C21.4198 17.62 20.6798 16.6 19.2598 16.6ZM26.4419 29.92V14.92H28.9819V15.74C29.7619 14.96 30.7419 14.52 32.1219 14.52C35.3219 14.52 37.2419 17.02 37.2419 19.96C37.2419 22.9 35.3219 25.4 32.1219 25.4C30.7419 25.4 29.7619 24.96 28.9819 24.18V29.92H26.4419ZM31.7619 16.92C30.5819 16.92 29.6219 17.44 28.9819 18.38V21.54C29.6619 22.5 30.6019 23 31.7619 23C33.4819 23 34.6019 21.72 34.6019 19.96C34.6019 18.2 33.4819 16.92 31.7619 16.92ZM42.1725 25.3C40.1525 25.3 38.7725 24.14 38.7725 22.28C38.7725 20.76 39.9525 19.62 42.1125 19.26L45.1925 18.74V18.48C45.1925 17.42 44.3925 16.74 43.2325 16.74C42.2525 16.74 41.4925 17.2 40.9525 17.94L39.0925 16.52C39.9925 15.28 41.4725 14.52 43.3125 14.52C46.2325 14.52 47.7325 16.26 47.7325 18.48V25H45.1925V24.02C44.5525 24.8 43.3525 25.3 42.1725 25.3ZM41.2925 22.16C41.2925 22.84 41.8325 23.28 42.6925 23.28C43.8525 23.28 44.6925 22.74 45.1925 21.94V20.52L42.7925 20.92C41.7325 21.1 41.2925 21.54 41.2925 22.16ZM50.6411 25V14.92H53.1811V15.92C53.8411 15.24 54.7011 14.72 55.8411 14.72C56.1811 14.72 56.4811 14.78 56.7211 14.86V17.36C56.4011 17.28 56.0611 17.22 55.6011 17.22C54.3611 17.22 53.5611 17.9 53.1811 18.54V25H50.6411ZM60.0702 21.32V17.2H58.1902V14.92H60.0702V12.4H62.6302V14.92H65.7102V17.2H62.6302V21.32C62.6302 22.44 63.2302 22.88 64.2302 22.88C64.9302 22.88 65.3902 22.8 65.7302 22.66V24.88C65.2302 25.1 64.6302 25.2 63.7902 25.2C61.2702 25.2 60.0702 23.78 60.0702 21.32ZM69.2648 13.16C68.3648 13.16 67.6048 12.4 67.6048 11.5C67.6048 10.6 68.3648 9.84 69.2648 9.84C70.1648 9.84 70.9048 10.6 70.9048 11.5C70.9048 12.4 70.1648 13.16 69.2648 13.16ZM67.9848 25V14.92H70.5248V25H67.9848ZM74.2108 21.32V17.2H72.3308V14.92H74.2108V12.4H76.7708V14.92H79.8508V17.2H76.7708V21.32C76.7708 22.44 77.3708 22.88 78.3708 22.88C79.0708 22.88 79.5308 22.8 79.8708 22.66V24.88C79.3708 25.1 78.7708 25.2 77.9308 25.2C75.4108 25.2 74.2108 23.78 74.2108 21.32ZM83.4055 13.16C82.5055 13.16 81.7455 12.4 81.7455 11.5C81.7455 10.6 82.5055 9.84 83.4055 9.84C84.3055 9.84 85.0455 10.6 85.0455 11.5C85.0455 12.4 84.3055 13.16 83.4055 13.16ZM82.1255 25V14.92H84.6655V25H82.1255ZM92.5114 14.52C95.7914 14.52 98.0314 16.94 98.0314 19.96C98.0314 22.98 95.7914 25.4 92.5114 25.4C89.2314 25.4 86.9914 22.98 86.9914 19.96C86.9914 16.94 89.2314 14.52 92.5114 14.52ZM92.5514 23C94.1714 23 95.3914 21.7 95.3914 19.96C95.3914 18.2 94.1714 16.92 92.5514 16.92C90.8714 16.92 89.6314 18.2 89.6314 19.96C89.6314 21.72 90.8714 23 92.5514 23ZM100.348 25V14.92H102.888V15.72C103.588 15.04 104.528 14.52 105.868 14.52C108.048 14.52 109.788 16.02 109.788 19V25H107.228V19.1C107.228 17.76 106.468 16.92 105.228 16.92C103.948 16.92 103.268 17.78 102.888 18.42V25H100.348ZM117.343 19.96C117.343 17.02 119.283 14.52 122.463 14.52C123.823 14.52 124.803 14.94 125.583 15.72V10H128.143V25H125.583V24.2C124.803 24.98 123.823 25.4 122.463 25.4C119.283 25.4 117.343 22.9 117.343 19.96ZM120.003 19.96C120.003 21.72 121.103 23 122.823 23C123.963 23 124.903 22.52 125.583 21.6V18.32C124.903 17.4 123.963 16.92 122.823 16.92C121.103 16.92 120.003 18.2 120.003 19.96ZM140.468 23.36C139.528 24.62 137.968 25.4 136.068 25.4C132.488 25.4 130.468 22.9 130.468 19.96C130.468 16.98 132.348 14.52 135.648 14.52C138.448 14.52 140.288 16.42 140.288 19.06C140.288 19.62 140.208 20.14 140.128 20.48H133.068C133.308 22.36 134.468 23.12 136.048 23.12C137.148 23.12 138.108 22.64 138.648 21.92L140.468 23.36ZM135.588 16.6C134.288 16.6 133.428 17.32 133.148 18.64H137.788C137.748 17.62 137.008 16.6 135.588 16.6ZM148.161 25V10H150.701V25H148.161ZM156.587 25.3C154.567 25.3 153.187 24.14 153.187 22.28C153.187 20.76 154.367 19.62 156.527 19.26L159.607 18.74V18.48C159.607 17.42 158.807 16.74 157.647 16.74C156.667 16.74 155.907 17.2 155.367 17.94L153.507 16.52C154.407 15.28 155.887 14.52 157.727 14.52C160.647 14.52 162.147 16.26 162.147 18.48V25H159.607V24.02C158.967 24.8 157.767 25.3 156.587 25.3ZM155.707 22.16C155.707 22.84 156.247 23.28 157.107 23.28C158.267 23.28 159.107 22.74 159.607 21.94V20.52L157.207 20.92C156.147 21.1 155.707 21.54 155.707 22.16ZM175.286 23C176.286 23 177.086 22.54 177.566 21.84L179.546 23.36C178.606 24.6 177.126 25.4 175.286 25.4C171.806 25.4 169.726 22.9 169.726 19.96C169.726 17.02 171.806 14.52 175.286 14.52C177.126 14.52 178.606 15.32 179.546 16.56L177.566 18.08C177.086 17.38 176.286 16.92 175.246 16.92C173.586 16.92 172.366 18.2 172.366 19.96C172.366 21.74 173.586 23 175.286 23ZM185.851 14.52C189.131 14.52 191.371 16.94 191.371 19.96C191.371 22.98 189.131 25.4 185.851 25.4C182.571 25.4 180.331 22.98 180.331 19.96C180.331 16.94 182.571 14.52 185.851 14.52ZM185.891 23C187.511 23 188.731 21.7 188.731 19.96C188.731 18.2 187.511 16.92 185.891 16.92C184.211 16.92 182.971 18.2 182.971 19.96C182.971 21.72 184.211 23 185.891 23ZM193.688 25V14.92H196.228V15.72C196.928 15.04 197.868 14.52 199.208 14.52C201.388 14.52 203.128 16.02 203.128 19V25H200.568V19.1C200.568 17.76 199.808 16.92 198.568 16.92C197.288 16.92 196.608 17.78 196.228 18.42V25H193.688ZM205.132 23.54L206.812 22.02C207.432 22.8 208.172 23.36 209.132 23.36C209.952 23.36 210.372 22.88 210.372 22.28C210.372 20.52 205.552 21.18 205.552 17.64C205.552 15.86 207.052 14.52 209.152 14.52C210.692 14.52 212.092 15.26 212.812 16.24L211.132 17.72C210.612 17.08 209.952 16.56 209.172 16.56C208.372 16.56 207.992 17 207.992 17.52C207.992 19.24 212.812 18.64 212.812 22.12C212.772 24.24 211.072 25.4 209.172 25.4C207.372 25.4 206.092 24.68 205.132 23.54ZM219.914 14.52C223.194 14.52 225.434 16.94 225.434 19.96C225.434 22.98 223.194 25.4 219.914 25.4C216.634 25.4 214.394 22.98 214.394 19.96C214.394 16.94 216.634 14.52 219.914 14.52ZM219.954 23C221.574 23 222.794 21.7 222.794 19.96C222.794 18.2 221.574 16.92 219.954 16.92C218.274 16.92 217.034 18.2 217.034 19.96C217.034 21.72 218.274 23 219.954 23ZM227.75 25V14.92H230.29V15.68C230.97 15.02 231.83 14.52 233.07 14.52C234.35 14.52 235.47 15.08 236.13 16.16C236.85 15.28 237.81 14.52 239.51 14.52C241.59 14.52 243.23 15.96 243.23 18.8V25H240.67V18.9C240.67 17.68 240.01 16.92 238.87 16.92C237.77 16.92 237.17 17.68 236.77 18.36C236.79 18.5 236.79 18.64 236.79 18.8V25H234.23V18.9C234.23 17.68 233.57 16.92 232.43 16.92C231.27 16.92 230.67 17.78 230.29 18.42V25H227.75ZM246.129 25V14.92H248.669V15.68C249.349 15.02 250.209 14.52 251.449 14.52C252.729 14.52 253.849 15.08 254.509 16.16C255.229 15.28 256.189 14.52 257.889 14.52C259.969 14.52 261.609 15.96 261.609 18.8V25H259.049V18.9C259.049 17.68 258.389 16.92 257.249 16.92C256.149 16.92 255.549 17.68 255.149 18.36C255.169 18.5 255.169 18.64 255.169 18.8V25H252.609V18.9C252.609 17.68 251.949 16.92 250.809 16.92C249.649 16.92 249.049 17.78 248.669 18.42V25H246.129ZM267.348 25.3C265.328 25.3 263.948 24.14 263.948 22.28C263.948 20.76 265.128 19.62 267.288 19.26L270.368 18.74V18.48C270.368 17.42 269.568 16.74 268.408 16.74C267.428 16.74 266.668 17.2 266.128 17.94L264.268 16.52C265.168 15.28 266.648 14.52 268.488 14.52C271.408 14.52 272.908 16.26 272.908 18.48V25H270.368V24.02C269.728 24.8 268.528 25.3 267.348 25.3ZM266.468 22.16C266.468 22.84 267.008 23.28 267.868 23.28C269.028 23.28 269.868 22.74 270.368 21.94V20.52L267.968 20.92C266.908 21.1 266.468 21.54 266.468 22.16ZM276.457 21.32V17.2H274.577V14.92H276.457V12.4H279.017V14.92H282.097V17.2H279.017V21.32C279.017 22.44 279.617 22.88 280.617 22.88C281.317 22.88 281.777 22.8 282.117 22.66V24.88C281.617 25.1 281.017 25.2 280.177 25.2C277.657 25.2 276.457 23.78 276.457 21.32ZM285.652 13.16C284.752 13.16 283.992 12.4 283.992 11.5C283.992 10.6 284.752 9.84 285.652 9.84C286.552 9.84 287.292 10.6 287.292 11.5C287.292 12.4 286.552 13.16 285.652 13.16ZM284.372 25V14.92H286.912V25H284.372ZM294.758 14.52C298.038 14.52 300.278 16.94 300.278 19.96C300.278 22.98 298.038 25.4 294.758 25.4C291.478 25.4 289.238 22.98 289.238 19.96C289.238 16.94 291.478 14.52 294.758 14.52ZM294.798 23C296.418 23 297.638 21.7 297.638 19.96C297.638 18.2 296.418 16.92 294.798 16.92C293.118 16.92 291.878 18.2 291.878 19.96C291.878 21.72 293.118 23 294.798 23ZM302.594 25V14.92H305.134V15.72C305.834 15.04 306.774 14.52 308.114 14.52C310.294 14.52 312.034 16.02 312.034 19V25H309.474V19.1C309.474 17.76 308.714 16.92 307.474 16.92C306.194 16.92 305.514 17.78 305.134 18.42V25H302.594Z" fill="#417DC4"/>
  <rect y="60" width="16" height="16" fill="#3558A2"/>
  <path d="M31.588 71.298C31.588 73.076 30.146 74.28 28.172 74.28C26.478 74.28 25.358 73.594 24.574 72.292L25.68 71.606C26.282 72.684 27.066 73.146 28.158 73.146C29.376 73.146 30.286 72.432 30.286 71.242C30.286 70.136 29.502 69.366 28.214 69.366H26.548V68.232H28.018C29.138 68.232 29.852 67.56 29.852 66.608C29.852 65.614 29.11 65.054 28.102 65.054C27.22 65.054 26.534 65.502 26.072 66.356L25.022 65.712C25.722 64.564 26.758 63.92 28.186 63.92C29.88 63.92 31.14 64.942 31.14 66.496C31.14 67.448 30.692 68.26 29.852 68.722C30.986 69.184 31.588 70.164 31.588 71.298ZM35.9405 74.28C34.4285 74.28 33.4625 73.608 32.7905 72.614L33.7985 71.844C34.3585 72.698 35.0305 73.132 35.9405 73.132C37.7325 73.132 38.6285 71.648 38.6845 69.212C37.9845 69.926 37.0605 70.318 35.9685 70.318C34.1345 70.318 32.8745 68.932 32.8745 67.21C32.8745 65.432 34.1205 63.92 36.2485 63.92C38.5445 63.92 39.9865 65.544 39.9865 68.946C39.9865 72.124 38.7265 74.28 35.9405 74.28ZM34.1765 67.168C34.1765 68.302 35.0165 69.184 36.1645 69.184C37.1585 69.184 38.0545 68.764 38.6285 67.91C38.4185 65.852 37.4945 65.068 36.2625 65.068C34.9605 65.068 34.1765 65.992 34.1765 67.168ZM43.509 63.892C44.909 63.892 45.861 64.956 45.861 66.23C45.861 67.504 44.909 68.568 43.509 68.568C42.095 68.568 41.143 67.504 41.143 66.23C41.143 64.956 42.095 63.892 43.509 63.892ZM42.151 73.986L49.333 64.186H50.593L43.411 73.986H42.151ZM43.509 67.728C44.321 67.728 44.923 67.056 44.923 66.23C44.923 65.39 44.321 64.732 43.509 64.732C42.669 64.732 42.081 65.39 42.081 66.23C42.081 67.07 42.669 67.728 43.509 67.728ZM49.277 69.59C50.677 69.59 51.629 70.654 51.629 71.928C51.629 73.202 50.677 74.266 49.277 74.266C47.863 74.266 46.911 73.202 46.911 71.928C46.911 70.654 47.863 69.59 49.277 69.59ZM49.277 73.426C50.089 73.426 50.691 72.754 50.691 71.928C50.691 71.088 50.089 70.43 49.277 70.43C48.437 70.43 47.849 71.088 47.849 71.928C47.849 72.768 48.437 73.426 49.277 73.426ZM55.9167 69.842H59.6967V70.99H55.9167V69.842ZM64.2554 72.656L65.2354 71.76C65.9074 72.628 66.6914 73.09 67.6014 73.09C68.6934 73.09 69.3234 72.432 69.3234 71.536C69.3234 69.324 64.6754 69.8 64.6754 66.566C64.6754 65.11 65.8794 63.92 67.5874 63.92C68.9594 63.92 69.9674 64.55 70.6954 65.516L69.7014 66.384C69.1274 65.558 68.4414 65.096 67.6014 65.096C66.6354 65.096 66.0194 65.698 66.0194 66.538C66.0194 68.736 70.6534 68.232 70.6534 71.494C70.6534 73.188 69.3514 74.266 67.6154 74.266C66.1734 74.266 65.1094 73.72 64.2554 72.656ZM79.1238 72.838C78.4658 73.72 77.4158 74.28 76.0998 74.28C73.7198 74.28 72.2498 72.53 72.2498 70.472C72.2498 68.33 73.6218 66.664 75.8058 66.664C77.7238 66.664 78.9698 68.008 78.9698 69.744C78.9698 70.024 78.9278 70.29 78.8858 70.486H73.4678C73.5098 72.18 74.5878 73.202 76.0998 73.202C77.0098 73.202 77.7798 72.782 78.2418 72.152L79.1238 72.838ZM75.7778 67.672C74.6158 67.672 73.8038 68.358 73.5518 69.576H77.7798C77.7378 68.54 77.0238 67.672 75.7778 67.672ZM84.76 74V63.5H85.95V74H84.76ZM90.3831 74.196C88.9971 74.196 88.0591 73.426 88.0591 72.222C88.0591 71.158 88.8711 70.402 90.3691 70.15L92.7491 69.758V69.268C92.7491 68.288 92.0491 67.728 91.0411 67.728C90.2291 67.728 89.5711 68.106 89.1371 68.708L88.2411 68.022C88.8571 67.182 89.8511 66.664 91.0831 66.664C92.8751 66.664 93.9391 67.714 93.9391 69.268V74H92.7491V73.104C92.2171 73.79 91.2931 74.196 90.3831 74.196ZM89.2631 72.18C89.2631 72.782 89.7531 73.216 90.5791 73.216C91.5171 73.216 92.2871 72.768 92.7491 72.012V70.626L90.6631 70.976C89.6971 71.144 89.2631 71.578 89.2631 72.18ZM95.194 66.944H96.482L98.736 72.754L100.99 66.944H102.278L99.52 74H97.952L95.194 66.944ZM109.899 72.838C109.241 73.72 108.191 74.28 106.875 74.28C104.495 74.28 103.025 72.53 103.025 70.472C103.025 68.33 104.397 66.664 106.581 66.664C108.499 66.664 109.745 68.008 109.745 69.744C109.745 70.024 109.703 70.29 109.661 70.486H104.243C104.285 72.18 105.363 73.202 106.875 73.202C107.785 73.202 108.555 72.782 109.017 72.152L109.899 72.838ZM106.553 67.672C105.391 67.672 104.579 68.358 104.327 69.576H108.555C108.513 68.54 107.799 67.672 106.553 67.672ZM111.762 74V66.944H112.952V67.826C113.47 67.21 114.114 66.804 115.01 66.804C115.234 66.804 115.444 66.832 115.612 66.888V68.05C115.402 67.994 115.192 67.966 114.912 67.966C113.988 67.966 113.386 68.442 112.952 69.156V74H111.762Z" fill="#3558A2"/>
  <rect y="92" width="16" height="16" fill="#417DC4"/>
  <path d="M24.952 106V104.866L28.27 101.45C29.418 100.246 29.936 99.7 29.936 98.664C29.936 97.642 29.194 97.054 28.2 97.054C27.164 97.054 26.492 97.572 25.918 98.524L24.882 97.894C25.68 96.648 26.772 95.92 28.298 95.92C29.936 95.92 31.238 96.984 31.238 98.58C31.238 99.91 30.37 100.904 29.194 102.136L26.506 104.866H31.504V106H24.952ZM36.5805 95.92C39.0445 95.92 40.2485 98.188 40.2485 101.1C40.2485 104.012 39.0445 106.28 36.5805 106.28C34.1445 106.28 32.9265 104.012 32.9265 101.1C32.9265 98.188 34.1445 95.92 36.5805 95.92ZM36.5945 97.096C35.0265 97.096 34.2145 98.804 34.2145 101.1C34.2145 103.396 35.0265 105.104 36.5945 105.104C38.1485 105.104 38.9465 103.396 38.9465 101.1C38.9465 98.804 38.1485 97.096 36.5945 97.096ZM43.6731 95.892C45.0731 95.892 46.0251 96.956 46.0251 98.23C46.0251 99.504 45.0731 100.568 43.6731 100.568C42.2591 100.568 41.3071 99.504 41.3071 98.23C41.3071 96.956 42.2591 95.892 43.6731 95.892ZM42.3151 105.986L49.4971 96.186H50.7571L43.5751 105.986H42.3151ZM43.6731 99.728C44.4851 99.728 45.0871 99.056 45.0871 98.23C45.0871 97.39 44.4851 96.732 43.6731 96.732C42.8331 96.732 42.2451 97.39 42.2451 98.23C42.2451 99.07 42.8331 99.728 43.6731 99.728ZM49.4411 101.59C50.8411 101.59 51.7931 102.654 51.7931 103.928C51.7931 105.202 50.8411 106.266 49.4411 106.266C48.0271 106.266 47.0751 105.202 47.0751 103.928C47.0751 102.654 48.0271 101.59 49.4411 101.59ZM49.4411 105.426C50.2531 105.426 50.8551 104.754 50.8551 103.928C50.8551 103.088 50.2531 102.43 49.4411 102.43C48.6011 102.43 48.0131 103.088 48.0131 103.928C48.0131 104.768 48.6011 105.426 49.4411 105.426ZM56.0808 101.842H59.8608V102.99H56.0808V101.842ZM63.9854 106L67.8914 96.2H69.6554L73.5614 106H72.1614L71.0274 103.116H66.5194L65.3854 106H63.9854ZM66.9534 101.982H70.5934L68.7734 97.348L66.9534 101.982ZM75.4358 106V95.5H76.6258V106H75.4358ZM79.1409 106V95.5H80.3309V106H79.1409ZM89.1179 104.838C88.4599 105.72 87.4099 106.28 86.0939 106.28C83.7139 106.28 82.2439 104.53 82.2439 102.472C82.2439 100.33 83.6159 98.664 85.7999 98.664C87.7179 98.664 88.9639 100.008 88.9639 101.744C88.9639 102.024 88.9219 102.29 88.8799 102.486H83.4619C83.5039 104.18 84.5819 105.202 86.0939 105.202C87.0039 105.202 87.7739 104.782 88.2359 104.152L89.1179 104.838ZM85.7719 99.672C84.6099 99.672 83.7979 100.358 83.5459 101.576H87.7739C87.7319 100.54 87.0179 99.672 85.7719 99.672ZM90.9807 106V98.944H92.1707V99.826C92.6887 99.21 93.3327 98.804 94.2287 98.804C94.4527 98.804 94.6627 98.832 94.8307 98.888V100.05C94.6207 99.994 94.4107 99.966 94.1307 99.966C93.2067 99.966 92.6047 100.442 92.1707 101.156V106H90.9807ZM102.237 106.196C100.851 106.196 99.9126 105.426 99.9126 104.222C99.9126 103.158 100.725 102.402 102.223 102.15L104.603 101.758V101.268C104.603 100.288 103.903 99.728 102.895 99.728C102.083 99.728 101.425 100.106 100.991 100.708L100.095 100.022C100.711 99.182 101.705 98.664 102.937 98.664C104.729 98.664 105.793 99.714 105.793 101.268V106H104.603V105.104C104.071 105.79 103.147 106.196 102.237 106.196ZM101.117 104.18C101.117 104.782 101.607 105.216 102.433 105.216C103.371 105.216 104.141 104.768 104.603 104.012V102.626L102.517 102.976C101.551 103.144 101.117 103.578 101.117 104.18ZM113.094 102.976V98.944H114.284V102.934C114.284 105.048 113.066 106.28 111.148 106.28C109.244 106.28 108.026 105.048 108.026 102.934V98.944H109.216V102.976C109.216 104.362 109.958 105.16 111.162 105.16C112.338 105.16 113.094 104.362 113.094 102.976ZM116.968 106H115.582L118.186 102.346L115.778 98.944H117.136L118.97 101.548L120.804 98.944H122.176L119.754 102.346L122.358 106H121L118.984 103.144L116.968 106ZM126.919 96.2H128.235L130.363 104.572L132.855 96.2H134.619L137.097 104.558L139.239 96.2H140.541L138.035 106H136.243L133.737 97.6L131.231 106H129.439L126.919 96.2ZM146.774 105.048C148.09 105.048 149.168 104.404 149.826 103.452L150.876 104.264C149.98 105.482 148.538 106.28 146.774 106.28C143.708 106.28 141.622 103.9 141.622 101.1C141.622 98.3 143.708 95.92 146.774 95.92C148.538 95.92 149.98 96.732 150.876 97.936L149.826 98.748C149.168 97.796 148.09 97.152 146.774 97.152C144.562 97.152 142.98 98.916 142.98 101.1C142.98 103.284 144.562 105.048 146.774 105.048Z" fill="#3558A2"/>
  <rect y="124" width="16" height="16" fill="#5982E0"/>
  <path d="M27.318 138V129.474L24.728 130.874L24.084 129.978L27.304 128.2H28.564V138H27.318ZM31.2547 138V136.866L34.5727 133.45C35.7207 132.246 36.2387 131.7 36.2387 130.664C36.2387 129.642 35.4967 129.054 34.5027 129.054C33.4667 129.054 32.7947 129.572 32.2207 130.524L31.1847 129.894C31.9827 128.648 33.0747 127.92 34.6007 127.92C36.2387 127.92 37.5407 128.984 37.5407 130.58C37.5407 131.91 36.6727 132.904 35.4967 134.136L32.8087 136.866H37.8067V138H31.2547ZM41.5813 127.892C42.9813 127.892 43.9333 128.956 43.9333 130.23C43.9333 131.504 42.9813 132.568 41.5813 132.568C40.1673 132.568 39.2153 131.504 39.2153 130.23C39.2153 128.956 40.1673 127.892 41.5813 127.892ZM40.2233 137.986L47.4053 128.186H48.6653L41.4833 137.986H40.2233ZM41.5813 131.728C42.3933 131.728 42.9953 131.056 42.9953 130.23C42.9953 129.39 42.3933 128.732 41.5813 128.732C40.7413 128.732 40.1533 129.39 40.1533 130.23C40.1533 131.07 40.7413 131.728 41.5813 131.728ZM47.3493 133.59C48.7493 133.59 49.7013 134.654 49.7013 135.928C49.7013 137.202 48.7493 138.266 47.3493 138.266C45.9353 138.266 44.9833 137.202 44.9833 135.928C44.9833 134.654 45.9353 133.59 47.3493 133.59ZM47.3493 137.426C48.1613 137.426 48.7633 136.754 48.7633 135.928C48.7633 135.088 48.1613 134.43 47.3493 134.43C46.5093 134.43 45.9213 135.088 45.9213 135.928C45.9213 136.768 46.5093 137.426 47.3493 137.426ZM53.989 133.842H57.769V134.99H53.989V133.842ZM63.0696 138V128.2H64.3856V136.796H68.3336V138H63.0696ZM72.1995 138.196C70.8135 138.196 69.8755 137.426 69.8755 136.222C69.8755 135.158 70.6875 134.402 72.1855 134.15L74.5655 133.758V133.268C74.5655 132.288 73.8655 131.728 72.8575 131.728C72.0455 131.728 71.3875 132.106 70.9535 132.708L70.0575 132.022C70.6735 131.182 71.6675 130.664 72.8995 130.664C74.6915 130.664 75.7555 131.714 75.7555 133.268V138H74.5655V137.104C74.0335 137.79 73.1095 138.196 72.1995 138.196ZM71.0795 136.18C71.0795 136.782 71.5695 137.216 72.3955 137.216C73.3335 137.216 74.1035 136.768 74.5655 136.012V134.626L72.4795 134.976C71.5135 135.144 71.0795 135.578 71.0795 136.18ZM77.0105 130.944H78.2985L80.5525 136.754L82.8065 130.944H84.0945L81.3365 138H79.7685L77.0105 130.944ZM91.7156 136.838C91.0576 137.72 90.0076 138.28 88.6916 138.28C86.3116 138.28 84.8416 136.53 84.8416 134.472C84.8416 132.33 86.2136 130.664 88.3976 130.664C90.3156 130.664 91.5616 132.008 91.5616 133.744C91.5616 134.024 91.5196 134.29 91.4776 134.486H86.0596C86.1016 136.18 87.1796 137.202 88.6916 137.202C89.6016 137.202 90.3716 136.782 90.8336 136.152L91.7156 136.838ZM88.3696 131.672C87.2076 131.672 86.3956 132.358 86.1436 133.576H90.3716C90.3296 132.54 89.6156 131.672 88.3696 131.672ZM93.5784 138V130.944H94.7684V131.826C95.2864 131.21 95.9304 130.804 96.8264 130.804C97.0504 130.804 97.2604 130.832 97.4284 130.888V132.05C97.2184 131.994 97.0084 131.966 96.7284 131.966C95.8044 131.966 95.2024 132.442 94.7684 133.156V138H93.5784ZM102.16 137.034L103 136.32C103.49 136.936 104.078 137.286 104.792 137.286C105.576 137.286 106.024 136.81 106.024 136.194C106.024 134.612 102.496 135.172 102.496 132.68C102.496 131.574 103.434 130.664 104.792 130.664C105.8 130.664 106.668 131.14 107.158 131.826L106.332 132.526C105.954 131.994 105.422 131.658 104.806 131.658C104.05 131.658 103.644 132.106 103.644 132.652C103.644 134.234 107.186 133.73 107.186 136.138C107.172 137.454 106.122 138.28 104.806 138.28C103.686 138.28 102.804 137.832 102.16 137.034ZM112.261 130.664C114.529 130.664 116.083 132.414 116.083 134.472C116.083 136.53 114.529 138.28 112.261 138.28C109.979 138.28 108.439 136.53 108.439 134.472C108.439 132.414 109.979 130.664 112.261 130.664ZM112.275 137.16C113.745 137.16 114.823 135.928 114.823 134.472C114.823 133.002 113.745 131.784 112.275 131.784C110.763 131.784 109.685 133.002 109.685 134.472C109.685 135.942 110.763 137.16 112.275 137.16ZM117.996 138V130.944H119.186V131.742C119.76 131.112 120.488 130.664 121.538 130.664C123.12 130.664 124.296 131.728 124.296 133.73V138H123.106V133.772C123.106 132.512 122.392 131.784 121.3 131.784C120.278 131.784 119.634 132.372 119.186 133.114V138H117.996ZM130.465 138V127.5H131.655V138H130.465ZM134.772 129.11C134.31 129.11 133.932 128.732 133.932 128.27C133.932 127.822 134.31 127.444 134.772 127.444C135.234 127.444 135.598 127.822 135.598 128.27C135.598 128.732 135.234 129.11 134.772 129.11ZM134.17 138V130.944H135.36V138H134.17ZM137.875 138V130.944H139.065V131.742C139.639 131.112 140.367 130.664 141.417 130.664C142.999 130.664 144.175 131.728 144.175 133.73V138H142.985V133.772C142.985 132.512 142.271 131.784 141.179 131.784C140.157 131.784 139.513 132.372 139.065 133.114V138H137.875ZM145.759 139.274C145.759 138.56 146.109 137.986 146.809 137.496C146.487 137.244 146.319 136.866 146.319 136.488C146.319 135.928 146.613 135.466 147.159 135.116C146.543 134.654 146.179 133.94 146.179 133.156C146.179 131.798 147.243 130.65 148.923 130.65C149.441 130.65 149.903 130.762 150.281 130.944H152.899V131.98H151.373C151.569 132.33 151.667 132.736 151.667 133.156C151.667 134.5 150.617 135.648 148.923 135.648C148.573 135.648 148.237 135.592 147.943 135.508C147.649 135.718 147.481 135.97 147.481 136.236C147.481 136.53 147.635 136.74 148.069 136.74H150.085C151.947 136.74 152.815 137.65 152.815 138.91C152.815 140.394 151.331 141.5 149.217 141.5C147.131 141.5 145.759 140.688 145.759 139.274ZM148.937 134.71C149.959 134.71 150.547 134.01 150.547 133.156C150.547 132.288 149.959 131.588 148.937 131.588C147.887 131.588 147.313 132.288 147.313 133.156C147.313 134.024 147.887 134.71 148.937 134.71ZM146.921 139.134C146.921 139.988 147.803 140.506 149.203 140.506C150.687 140.506 151.625 139.918 151.625 138.994C151.625 138.322 151.247 137.79 149.987 137.79H147.705C147.215 138.154 146.921 138.574 146.921 139.134ZM160.307 136.838C159.649 137.72 158.599 138.28 157.283 138.28C154.903 138.28 153.433 136.53 153.433 134.472C153.433 132.33 154.805 130.664 156.989 130.664C158.907 130.664 160.153 132.008 160.153 133.744C160.153 134.024 160.111 134.29 160.069 134.486H154.651C154.693 136.18 155.771 137.202 157.283 137.202C158.193 137.202 158.963 136.782 159.425 136.152L160.307 136.838ZM156.961 131.672C155.799 131.672 154.987 132.358 154.735 133.576H158.963C158.921 132.54 158.207 131.672 156.961 131.672Z" fill="#3558A2"/>
  <rect y="156" width="16" height="16" fill="#B6CFFB"/>
  <path d="M27.318 170V161.474L24.728 162.874L24.084 161.978L27.304 160.2H28.564V170H27.318ZM34.6528 159.92C37.1168 159.92 38.3208 162.188 38.3208 165.1C38.3208 168.012 37.1168 170.28 34.6528 170.28C32.2168 170.28 30.9988 168.012 30.9988 165.1C30.9988 162.188 32.2168 159.92 34.6528 159.92ZM34.6668 161.096C33.0988 161.096 32.2868 162.804 32.2868 165.1C32.2868 167.396 33.0988 169.104 34.6668 169.104C36.2208 169.104 37.0188 167.396 37.0188 165.1C37.0188 162.804 36.2208 161.096 34.6668 161.096ZM41.7453 159.892C43.1453 159.892 44.0973 160.956 44.0973 162.23C44.0973 163.504 43.1453 164.568 41.7453 164.568C40.3313 164.568 39.3793 163.504 39.3793 162.23C39.3793 160.956 40.3313 159.892 41.7453 159.892ZM40.3873 169.986L47.5693 160.186H48.8293L41.6473 169.986H40.3873ZM41.7453 163.728C42.5573 163.728 43.1593 163.056 43.1593 162.23C43.1593 161.39 42.5573 160.732 41.7453 160.732C40.9053 160.732 40.3173 161.39 40.3173 162.23C40.3173 163.07 40.9053 163.728 41.7453 163.728ZM47.5133 165.59C48.9133 165.59 49.8653 166.654 49.8653 167.928C49.8653 169.202 48.9133 170.266 47.5133 170.266C46.0993 170.266 45.1473 169.202 45.1473 167.928C45.1473 166.654 46.0993 165.59 47.5133 165.59ZM47.5133 169.426C48.3253 169.426 48.9273 168.754 48.9273 167.928C48.9273 167.088 48.3253 166.43 47.5133 166.43C46.6733 166.43 46.0853 167.088 46.0853 167.928C46.0853 168.768 46.6733 169.426 47.5133 169.426ZM54.153 165.842H57.933V166.99H54.153V165.842ZM63.2337 170V160.2H68.4977V161.32H64.5497V164.456H67.9377V165.562H64.5497V170H63.2337ZM71.8167 170.196C70.4307 170.196 69.4927 169.426 69.4927 168.222C69.4927 167.158 70.3047 166.402 71.8027 166.15L74.1827 165.758V165.268C74.1827 164.288 73.4827 163.728 72.4747 163.728C71.6627 163.728 71.0047 164.106 70.5707 164.708L69.6747 164.022C70.2907 163.182 71.2847 162.664 72.5167 162.664C74.3087 162.664 75.3727 163.714 75.3727 165.268V170H74.1827V169.104C73.6507 169.79 72.7267 170.196 71.8167 170.196ZM70.6967 168.18C70.6967 168.782 71.1867 169.216 72.0127 169.216C72.9507 169.216 73.7207 168.768 74.1827 168.012V166.626L72.0967 166.976C71.1307 167.144 70.6967 167.578 70.6967 168.18ZM78.362 161.11C77.9 161.11 77.522 160.732 77.522 160.27C77.522 159.822 77.9 159.444 78.362 159.444C78.824 159.444 79.188 159.822 79.188 160.27C79.188 160.732 78.824 161.11 78.362 161.11ZM77.76 170V162.944H78.95V170H77.76ZM81.4651 170V162.944H82.6551V163.826C83.1731 163.21 83.8171 162.804 84.7131 162.804C84.9371 162.804 85.1471 162.832 85.3151 162.888V164.05C85.1051 163.994 84.8951 163.966 84.6151 163.966C83.6911 163.966 83.0891 164.442 82.6551 165.156V170H81.4651ZM92.8777 168.838C92.2197 169.72 91.1697 170.28 89.8537 170.28C87.4737 170.28 86.0037 168.53 86.0037 166.472C86.0037 164.33 87.3757 162.664 89.5597 162.664C91.4777 162.664 92.7237 164.008 92.7237 165.744C92.7237 166.024 92.6817 166.29 92.6397 166.486H87.2217C87.2637 168.18 88.3417 169.202 89.8537 169.202C90.7637 169.202 91.5337 168.782 91.9957 168.152L92.8777 168.838ZM89.5317 163.672C88.3697 163.672 87.5577 164.358 87.3057 165.576H91.5337C91.4917 164.54 90.7777 163.672 89.5317 163.672ZM98.5139 170V159.5H99.7039V170H98.5139ZM104.137 170.196C102.751 170.196 101.813 169.426 101.813 168.222C101.813 167.158 102.625 166.402 104.123 166.15L106.503 165.758V165.268C106.503 164.288 105.803 163.728 104.795 163.728C103.983 163.728 103.325 164.106 102.891 164.708L101.995 164.022C102.611 163.182 103.605 162.664 104.837 162.664C106.629 162.664 107.693 163.714 107.693 165.268V170H106.503V169.104C105.971 169.79 105.047 170.196 104.137 170.196ZM103.017 168.18C103.017 168.782 103.507 169.216 104.333 169.216C105.271 169.216 106.041 168.768 106.503 168.012V166.626L104.417 166.976C103.451 167.144 103.017 167.578 103.017 168.18ZM112.79 162.944H114.078L116.332 168.754L118.586 162.944H119.874L117.116 170H115.548L112.79 162.944ZM123.114 170.196C121.728 170.196 120.79 169.426 120.79 168.222C120.79 167.158 121.602 166.402 123.1 166.15L125.48 165.758V165.268C125.48 164.288 124.78 163.728 123.772 163.728C122.96 163.728 122.302 164.106 121.868 164.708L120.972 164.022C121.588 163.182 122.582 162.664 123.814 162.664C125.606 162.664 126.67 163.714 126.67 165.268V170H125.48V169.104C124.948 169.79 124.024 170.196 123.114 170.196ZM121.994 168.18C121.994 168.782 122.484 169.216 123.31 169.216C124.248 169.216 125.018 168.768 125.48 168.012V166.626L123.394 166.976C122.428 167.144 121.994 167.578 121.994 168.18ZM129.659 161.11C129.197 161.11 128.819 160.732 128.819 160.27C128.819 159.822 129.197 159.444 129.659 159.444C130.121 159.444 130.485 159.822 130.485 160.27C130.485 160.732 130.121 161.11 129.659 161.11ZM129.057 170V162.944H130.247V170H129.057ZM131.951 169.034L132.791 168.32C133.281 168.936 133.869 169.286 134.583 169.286C135.367 169.286 135.815 168.81 135.815 168.194C135.815 166.612 132.287 167.172 132.287 164.68C132.287 163.574 133.225 162.664 134.583 162.664C135.591 162.664 136.459 163.14 136.949 163.826L136.123 164.526C135.745 163.994 135.213 163.658 134.597 163.658C133.841 163.658 133.435 164.106 133.435 164.652C133.435 166.234 136.977 165.73 136.977 168.138C136.963 169.454 135.913 170.28 134.597 170.28C133.477 170.28 132.595 169.832 131.951 169.034ZM138.104 169.034L138.944 168.32C139.434 168.936 140.022 169.286 140.736 169.286C141.52 169.286 141.968 168.81 141.968 168.194C141.968 166.612 138.44 167.172 138.44 164.68C138.44 163.574 139.378 162.664 140.736 162.664C141.744 162.664 142.612 163.14 143.102 163.826L142.276 164.526C141.898 163.994 141.366 163.658 140.75 163.658C139.994 163.658 139.588 164.106 139.588 164.652C139.588 166.234 143.13 165.73 143.13 168.138C143.116 169.454 142.066 170.28 140.75 170.28C139.63 170.28 138.748 169.832 138.104 169.034ZM151.257 168.838C150.599 169.72 149.549 170.28 148.233 170.28C145.853 170.28 144.383 168.53 144.383 166.472C144.383 164.33 145.755 162.664 147.939 162.664C149.857 162.664 151.103 164.008 151.103 165.744C151.103 166.024 151.061 166.29 151.019 166.486H145.601C145.643 168.18 146.721 169.202 148.233 169.202C149.143 169.202 149.913 168.782 150.375 168.152L151.257 168.838ZM147.911 163.672C146.749 163.672 145.937 164.358 145.685 165.576H149.913C149.871 164.54 149.157 163.672 147.911 163.672ZM153.119 170V159.5H154.309V170H153.119ZM156.824 170V159.5H158.014V170H156.824ZM166.802 168.838C166.144 169.72 165.094 170.28 163.778 170.28C161.398 170.28 159.928 168.53 159.928 166.472C159.928 164.33 161.3 162.664 163.484 162.664C165.402 162.664 166.648 164.008 166.648 165.744C166.648 166.024 166.606 166.29 166.564 166.486H161.146C161.188 168.18 162.266 169.202 163.778 169.202C164.688 169.202 165.458 168.782 165.92 168.152L166.802 168.838ZM163.456 163.672C162.294 163.672 161.482 164.358 161.23 165.576H165.458C165.416 164.54 164.702 163.672 163.456 163.672Z" fill="#3558A2"/>
  <rect y="188" width="16" height="16" fill="#DAE6FD"/>
  <path d="M28.662 191.92C30.174 191.92 31.126 192.592 31.812 193.586L30.818 194.356C30.244 193.502 29.572 193.068 28.676 193.068C26.884 193.068 26.002 194.552 25.932 196.974C26.632 196.274 27.556 195.882 28.634 195.882C30.482 195.882 31.742 197.268 31.742 198.99C31.742 200.768 30.482 202.28 28.368 202.28C26.072 202.28 24.63 200.656 24.63 197.254C24.63 194.076 25.876 191.92 28.662 191.92ZM28.438 197.016C27.458 197.016 26.576 197.436 25.988 198.276C26.198 200.348 27.094 201.132 28.34 201.132C29.656 201.132 30.426 200.208 30.426 199.032C30.426 197.898 29.586 197.016 28.438 197.016ZM35.2785 191.892C36.6785 191.892 37.6305 192.956 37.6305 194.23C37.6305 195.504 36.6785 196.568 35.2785 196.568C33.8645 196.568 32.9125 195.504 32.9125 194.23C32.9125 192.956 33.8645 191.892 35.2785 191.892ZM33.9205 201.986L41.1025 192.186H42.3625L35.1805 201.986H33.9205ZM35.2785 195.728C36.0905 195.728 36.6925 195.056 36.6925 194.23C36.6925 193.39 36.0905 192.732 35.2785 192.732C34.4385 192.732 33.8505 193.39 33.8505 194.23C33.8505 195.07 34.4385 195.728 35.2785 195.728ZM41.0465 197.59C42.4465 197.59 43.3985 198.654 43.3985 199.928C43.3985 201.202 42.4465 202.266 41.0465 202.266C39.6325 202.266 38.6805 201.202 38.6805 199.928C38.6805 198.654 39.6325 197.59 41.0465 197.59ZM41.0465 201.426C41.8585 201.426 42.4605 200.754 42.4605 199.928C42.4605 199.088 41.8585 198.43 41.0465 198.43C40.2065 198.43 39.6185 199.088 39.6185 199.928C39.6185 200.768 40.2065 201.426 41.0465 201.426ZM47.6863 197.842H51.4663V198.99H47.6863V197.842ZM61.0789 201.048C62.3949 201.048 63.4729 200.404 64.1309 199.452L65.1809 200.264C64.2849 201.482 62.8429 202.28 61.0789 202.28C58.0129 202.28 55.9269 199.9 55.9269 197.1C55.9269 194.3 58.0129 191.92 61.0789 191.92C62.8429 191.92 64.2849 192.732 65.1809 193.936L64.1309 194.748C63.4729 193.796 62.3949 193.152 61.0789 193.152C58.8669 193.152 57.2849 194.916 57.2849 197.1C57.2849 199.284 58.8669 201.048 61.0789 201.048ZM71.8459 198.976V194.944H73.0359V198.934C73.0359 201.048 71.8179 202.28 69.8999 202.28C67.9959 202.28 66.7779 201.048 66.7779 198.934V194.944H67.9679V198.976C67.9679 200.362 68.7099 201.16 69.9139 201.16C71.0899 201.16 71.8459 200.362 71.8459 198.976ZM75.9831 193.11C75.5211 193.11 75.1431 192.732 75.1431 192.27C75.1431 191.822 75.5211 191.444 75.9831 191.444C76.4451 191.444 76.8091 191.822 76.8091 192.27C76.8091 192.732 76.4451 193.11 75.9831 193.11ZM75.3811 202V194.944H76.5711V202H75.3811ZM78.2755 201.034L79.1155 200.32C79.6055 200.936 80.1935 201.286 80.9075 201.286C81.6915 201.286 82.1395 200.81 82.1395 200.194C82.1395 198.612 78.6115 199.172 78.6115 196.68C78.6115 195.574 79.5495 194.664 80.9075 194.664C81.9155 194.664 82.7835 195.14 83.2735 195.826L82.4475 196.526C82.0695 195.994 81.5375 195.658 80.9215 195.658C80.1655 195.658 79.7595 196.106 79.7595 196.652C79.7595 198.234 83.3015 197.73 83.3015 200.138C83.2875 201.454 82.2375 202.28 80.9215 202.28C79.8015 202.28 78.9195 201.832 78.2755 201.034ZM85.8405 193.11C85.3785 193.11 85.0005 192.732 85.0005 192.27C85.0005 191.822 85.3785 191.444 85.8405 191.444C86.3025 191.444 86.6665 191.822 86.6665 192.27C86.6665 192.732 86.3025 193.11 85.8405 193.11ZM85.2385 202V194.944H86.4285V202H85.2385ZM88.9436 202V194.944H90.1336V195.742C90.7076 195.112 91.4356 194.664 92.4856 194.664C94.0676 194.664 95.2436 195.728 95.2436 197.73V202H94.0536V197.772C94.0536 196.512 93.3396 195.784 92.2476 195.784C91.2256 195.784 90.5816 196.372 90.1336 197.114V202H88.9436ZM103.911 200.838C103.253 201.72 102.203 202.28 100.887 202.28C98.5069 202.28 97.0369 200.53 97.0369 198.472C97.0369 196.33 98.4089 194.664 100.593 194.664C102.511 194.664 103.757 196.008 103.757 197.744C103.757 198.024 103.715 198.29 103.673 198.486H98.2549C98.2969 200.18 99.3749 201.202 100.887 201.202C101.797 201.202 102.567 200.782 103.029 200.152L103.911 200.838ZM100.565 195.672C99.4029 195.672 98.5909 196.358 98.3389 197.576H102.567C102.525 196.54 101.811 195.672 100.565 195.672ZM105.774 202V194.944H106.964V195.826C107.482 195.21 108.126 194.804 109.022 194.804C109.246 194.804 109.456 194.832 109.624 194.888V196.05C109.414 195.994 109.204 195.966 108.924 195.966C108 195.966 107.398 196.442 106.964 197.156V202H105.774Z" fill="#3558A2"/>
  <rect y="216" width="16" height="16" fill="#E6EEFE"/>
  <path d="M28.662 223.92C30.174 223.92 31.126 224.592 31.812 225.586L30.818 226.356C30.244 225.502 29.572 225.068 28.676 225.068C26.884 225.068 26.002 226.552 25.932 228.974C26.632 228.274 27.556 227.882 28.634 227.882C30.482 227.882 31.742 229.268 31.742 230.99C31.742 232.768 30.482 234.28 28.368 234.28C26.072 234.28 24.63 232.656 24.63 229.254C24.63 226.076 25.876 223.92 28.662 223.92ZM28.438 229.016C27.458 229.016 26.576 229.436 25.988 230.276C26.198 232.348 27.094 233.132 28.34 233.132C29.656 233.132 30.426 232.208 30.426 231.032C30.426 229.898 29.586 229.016 28.438 229.016ZM35.2785 223.892C36.6785 223.892 37.6305 224.956 37.6305 226.23C37.6305 227.504 36.6785 228.568 35.2785 228.568C33.8645 228.568 32.9125 227.504 32.9125 226.23C32.9125 224.956 33.8645 223.892 35.2785 223.892ZM33.9205 233.986L41.1025 224.186H42.3625L35.1805 233.986H33.9205ZM35.2785 227.728C36.0905 227.728 36.6925 227.056 36.6925 226.23C36.6925 225.39 36.0905 224.732 35.2785 224.732C34.4385 224.732 33.8505 225.39 33.8505 226.23C33.8505 227.07 34.4385 227.728 35.2785 227.728ZM41.0465 229.59C42.4465 229.59 43.3985 230.654 43.3985 231.928C43.3985 233.202 42.4465 234.266 41.0465 234.266C39.6325 234.266 38.6805 233.202 38.6805 231.928C38.6805 230.654 39.6325 229.59 41.0465 229.59ZM41.0465 233.426C41.8585 233.426 42.4605 232.754 42.4605 231.928C42.4605 231.088 41.8585 230.43 41.0465 230.43C40.2065 230.43 39.6185 231.088 39.6185 231.928C39.6185 232.768 40.2065 233.426 41.0465 233.426ZM47.6863 229.842H51.4663V230.99H47.6863V229.842ZM56.7669 234V224.2H58.0829V232.796H62.0309V234H56.7669ZM65.8968 234.196C64.5108 234.196 63.5728 233.426 63.5728 232.222C63.5728 231.158 64.3848 230.402 65.8828 230.15L68.2628 229.758V229.268C68.2628 228.288 67.5628 227.728 66.5548 227.728C65.7428 227.728 65.0848 228.106 64.6508 228.708L63.7548 228.022C64.3708 227.182 65.3648 226.664 66.5968 226.664C68.3888 226.664 69.4528 227.714 69.4528 229.268V234H68.2628V233.104C67.7308 233.79 66.8068 234.196 65.8968 234.196ZM64.7767 232.18C64.7767 232.782 65.2668 233.216 66.0928 233.216C67.0308 233.216 67.8008 232.768 68.2628 232.012V230.626L66.1768 230.976C65.2108 231.144 64.7767 231.578 64.7767 232.18ZM70.7077 226.944H71.9957L74.2497 232.754L76.5037 226.944H77.7917L75.0337 234H73.4657L70.7077 226.944ZM85.4129 232.838C84.7549 233.72 83.7049 234.28 82.3889 234.28C80.0089 234.28 78.5389 232.53 78.5389 230.472C78.5389 228.33 79.9109 226.664 82.0949 226.664C84.0129 226.664 85.2589 228.008 85.2589 229.744C85.2589 230.024 85.2169 230.29 85.1749 230.486H79.7569C79.7989 232.18 80.8769 233.202 82.3889 233.202C83.2989 233.202 84.0689 232.782 84.5309 232.152L85.4129 232.838ZM82.0669 227.672C80.9049 227.672 80.0929 228.358 79.8409 229.576H84.0689C84.0269 228.54 83.3129 227.672 82.0669 227.672ZM87.2756 234V226.944H88.4656V227.826C88.9836 227.21 89.6276 226.804 90.5236 226.804C90.7476 226.804 90.9576 226.832 91.1256 226.888V228.05C90.9156 227.994 90.7056 227.966 90.4256 227.966C89.5016 227.966 88.8996 228.442 88.4656 229.156V234H87.2756ZM95.8575 233.034L96.6975 232.32C97.1875 232.936 97.7755 233.286 98.4895 233.286C99.2735 233.286 99.7215 232.81 99.7215 232.194C99.7215 230.612 96.1935 231.172 96.1935 228.68C96.1935 227.574 97.1315 226.664 98.4895 226.664C99.4975 226.664 100.366 227.14 100.856 227.826L100.03 228.526C99.6515 227.994 99.1195 227.658 98.5035 227.658C97.7475 227.658 97.3415 228.106 97.3415 228.652C97.3415 230.234 100.884 229.73 100.884 232.138C100.87 233.454 99.8195 234.28 98.5035 234.28C97.3835 234.28 96.5015 233.832 95.8575 233.034ZM104.711 234.196C103.325 234.196 102.387 233.426 102.387 232.222C102.387 231.158 103.199 230.402 104.697 230.15L107.077 229.758V229.268C107.077 228.288 106.377 227.728 105.369 227.728C104.557 227.728 103.899 228.106 103.465 228.708L102.569 228.022C103.185 227.182 104.179 226.664 105.411 226.664C107.203 226.664 108.267 227.714 108.267 229.268V234H107.077V233.104C106.545 233.79 105.621 234.196 104.711 234.196ZM103.591 232.18C103.591 232.782 104.081 233.216 104.907 233.216C105.845 233.216 106.615 232.768 107.077 232.012V230.626L104.991 230.976C104.025 231.144 103.591 231.578 103.591 232.18ZM113.364 226.944H114.652L116.906 232.754L119.16 226.944H120.448L117.69 234H116.122L113.364 226.944ZM125.017 226.664C127.285 226.664 128.839 228.414 128.839 230.472C128.839 232.53 127.285 234.28 125.017 234.28C122.735 234.28 121.195 232.53 121.195 230.472C121.195 228.414 122.735 226.664 125.017 226.664ZM125.031 233.16C126.501 233.16 127.579 231.928 127.579 230.472C127.579 229.002 126.501 227.784 125.031 227.784C123.519 227.784 122.441 229.002 122.441 230.472C122.441 231.942 123.519 233.16 125.031 233.16ZM131.354 225.11C130.892 225.11 130.514 224.732 130.514 224.27C130.514 223.822 130.892 223.444 131.354 223.444C131.816 223.444 132.18 223.822 132.18 224.27C132.18 224.732 131.816 225.11 131.354 225.11ZM130.752 234V226.944H131.942V234H130.752ZM134.863 231.634V228.022H133.533V226.944H134.863V225.18H136.067V226.944H138.517V228.022H136.067V231.634C136.067 232.74 136.627 233.048 137.481 233.048C137.943 233.048 138.265 232.992 138.531 232.88V233.944C138.195 234.084 137.817 234.14 137.313 234.14C135.745 234.14 134.863 233.356 134.863 231.634ZM145.209 230.976V226.944H146.399V230.934C146.399 233.048 145.181 234.28 143.263 234.28C141.359 234.28 140.141 233.048 140.141 230.934V226.944H141.331V230.976C141.331 232.362 142.073 233.16 143.277 233.16C144.453 233.16 145.209 232.362 145.209 230.976ZM148.744 234V226.944H149.934V227.826C150.452 227.21 151.096 226.804 151.992 226.804C152.216 226.804 152.426 226.832 152.594 226.888V228.05C152.384 227.994 152.174 227.966 151.894 227.966C150.97 227.966 150.368 228.442 149.934 229.156V234H148.744ZM160.157 232.838C159.499 233.72 158.449 234.28 157.133 234.28C154.753 234.28 153.283 232.53 153.283 230.472C153.283 228.33 154.655 226.664 156.839 226.664C158.757 226.664 160.003 228.008 160.003 229.744C160.003 230.024 159.961 230.29 159.919 230.486H154.501C154.543 232.18 155.621 233.202 157.133 233.202C158.043 233.202 158.813 232.782 159.275 232.152L160.157 232.838ZM156.811 227.672C155.649 227.672 154.837 228.358 154.585 229.576H158.813C158.771 228.54 158.057 227.672 156.811 227.672ZM28.48 250.664C30.748 250.664 32.302 252.414 32.302 254.472C32.302 256.53 30.748 258.28 28.48 258.28C26.198 258.28 24.658 256.53 24.658 254.472C24.658 252.414 26.198 250.664 28.48 250.664ZM28.494 257.16C29.964 257.16 31.042 255.928 31.042 254.472C31.042 253.002 29.964 251.784 28.494 251.784C26.982 251.784 25.904 253.002 25.904 254.472C25.904 255.942 26.982 257.16 28.494 257.16ZM39.1291 254.976V250.944H40.3191V254.934C40.3191 257.048 39.1011 258.28 37.1831 258.28C35.2791 258.28 34.0611 257.048 34.0611 254.934V250.944H35.2511V254.976C35.2511 256.362 35.9931 257.16 37.1971 257.16C38.3731 257.16 39.1291 256.362 39.1291 254.976ZM48.3557 258.196C46.9697 258.196 46.0317 257.426 46.0317 256.222C46.0317 255.158 46.8437 254.402 48.3417 254.15L50.7217 253.758V253.268C50.7217 252.288 50.0217 251.728 49.0137 251.728C48.2017 251.728 47.5437 252.106 47.1097 252.708L46.2137 252.022C46.8297 251.182 47.8237 250.664 49.0557 250.664C50.8477 250.664 51.9117 251.714 51.9117 253.268V258H50.7217V257.104C50.1897 257.79 49.2657 258.196 48.3557 258.196ZM47.2357 256.18C47.2357 256.782 47.7257 257.216 48.5517 257.216C49.4897 257.216 50.2597 256.768 50.7217 256.012V254.626L48.6357 254.976C47.6697 255.144 47.2357 255.578 47.2357 256.18ZM54.2991 258V250.944H55.4891V251.826C56.0071 251.21 56.6511 250.804 57.5471 250.804C57.7711 250.804 57.9811 250.832 58.1491 250.888V252.05C57.9391 251.994 57.7291 251.966 57.4491 251.966C56.5251 251.966 55.9231 252.442 55.4891 253.156V258H54.2991ZM59.8635 258V250.944H61.0535V251.826C61.5715 251.21 62.2155 250.804 63.1115 250.804C63.3355 250.804 63.5455 250.832 63.7135 250.888V252.05C63.5035 251.994 63.2935 251.966 63.0135 251.966C62.0895 251.966 61.4875 252.442 61.0535 253.156V258H59.8635ZM68.2241 250.664C70.4921 250.664 72.0461 252.414 72.0461 254.472C72.0461 256.53 70.4921 258.28 68.2241 258.28C65.9421 258.28 64.4021 256.53 64.4021 254.472C64.4021 252.414 65.9421 250.664 68.2241 250.664ZM68.2381 257.16C69.7081 257.16 70.7861 255.928 70.7861 254.472C70.7861 253.002 69.7081 251.784 68.2381 251.784C66.7261 251.784 65.6481 253.002 65.6481 254.472C65.6481 255.942 66.7261 257.16 68.2381 257.16ZM73.0118 257.034L73.8518 256.32C74.3418 256.936 74.9298 257.286 75.6438 257.286C76.4278 257.286 76.8758 256.81 76.8758 256.194C76.8758 254.612 73.3478 255.172 73.3478 252.68C73.3478 251.574 74.2858 250.664 75.6438 250.664C76.6518 250.664 77.5198 251.14 78.0098 251.826L77.1838 252.526C76.8058 251.994 76.2738 251.658 75.6578 251.658C74.9018 251.658 74.4958 252.106 74.4958 252.652C74.4958 254.234 78.0378 253.73 78.0378 256.138C78.0238 257.454 76.9738 258.28 75.6578 258.28C74.5378 258.28 73.6558 257.832 73.0118 257.034ZM86.1648 256.838C85.5068 257.72 84.4568 258.28 83.1408 258.28C80.7608 258.28 79.2908 256.53 79.2908 254.472C79.2908 252.33 80.6628 250.664 82.8468 250.664C84.7648 250.664 86.0108 252.008 86.0108 253.744C86.0108 254.024 85.9688 254.29 85.9268 254.486H80.5088C80.5508 256.18 81.6288 257.202 83.1408 257.202C84.0508 257.202 84.8208 256.782 85.2828 256.152L86.1648 256.838ZM82.8188 251.672C81.6568 251.672 80.8448 252.358 80.5928 253.576H84.8208C84.7788 252.54 84.0648 251.672 82.8188 251.672ZM88.0276 258V250.944H89.2176V251.826C89.7356 251.21 90.3796 250.804 91.2756 250.804C91.4996 250.804 91.7096 250.832 91.8776 250.888V252.05C91.6676 251.994 91.4576 251.966 91.1776 251.966C90.2536 251.966 89.6516 252.442 89.2176 253.156V258H88.0276ZM96.6095 257.034L97.4495 256.32C97.9395 256.936 98.5275 257.286 99.2415 257.286C100.025 257.286 100.473 256.81 100.473 256.194C100.473 254.612 96.9455 255.172 96.9455 252.68C96.9455 251.574 97.8835 250.664 99.2415 250.664C100.249 250.664 101.117 251.14 101.607 251.826L100.781 252.526C100.403 251.994 99.8715 251.658 99.2555 251.658C98.4995 251.658 98.0935 252.106 98.0935 252.652C98.0935 254.234 101.635 253.73 101.635 256.138C101.621 257.454 100.571 258.28 99.2555 258.28C98.1355 258.28 97.2535 257.832 96.6095 257.034ZM106.71 250.664C108.978 250.664 110.532 252.414 110.532 254.472C110.532 256.53 108.978 258.28 106.71 258.28C104.428 258.28 102.888 256.53 102.888 254.472C102.888 252.414 104.428 250.664 106.71 250.664ZM106.724 257.16C108.194 257.16 109.272 255.928 109.272 254.472C109.272 253.002 108.194 251.784 106.724 251.784C105.212 251.784 104.134 253.002 104.134 254.472C104.134 255.942 105.212 257.16 106.724 257.16ZM112.446 258V250.944H113.636V251.742C114.21 251.112 114.938 250.664 115.988 250.664C117.57 250.664 118.746 251.728 118.746 253.73V258H117.556V253.772C117.556 252.512 116.842 251.784 115.75 251.784C114.728 251.784 114.084 252.372 113.636 253.114V258H112.446ZM125.502 249.11C125.04 249.11 124.662 248.732 124.662 248.27C124.662 247.822 125.04 247.444 125.502 247.444C125.95 247.444 126.328 247.822 126.328 248.27C126.328 248.732 125.95 249.11 125.502 249.11ZM126.104 258.924C126.104 260.716 125.236 261.5 123.654 261.5C123.15 261.5 122.772 261.444 122.45 261.304V260.24C122.702 260.352 123.038 260.408 123.5 260.408C124.34 260.408 124.914 260.086 124.914 258.924V250.944H126.104V258.924ZM130.537 258.196C129.151 258.196 128.213 257.426 128.213 256.222C128.213 255.158 129.025 254.402 130.523 254.15L132.903 253.758V253.268C132.903 252.288 132.203 251.728 131.195 251.728C130.383 251.728 129.725 252.106 129.291 252.708L128.395 252.022C129.011 251.182 130.005 250.664 131.237 250.664C133.029 250.664 134.093 251.714 134.093 253.268V258H132.903V257.104C132.371 257.79 131.447 258.196 130.537 258.196ZM129.417 256.18C129.417 256.782 129.907 257.216 130.733 257.216C131.671 257.216 132.441 256.768 132.903 256.012V254.626L130.817 254.976C129.851 255.144 129.417 255.578 129.417 256.18ZM136.481 258V250.944H137.671V251.826C138.189 251.21 138.833 250.804 139.729 250.804C139.953 250.804 140.163 250.832 140.331 250.888V252.05C140.121 251.994 139.911 251.966 139.631 251.966C138.707 251.966 138.105 252.442 137.671 253.156V258H136.481ZM141.019 254.472C141.019 252.414 142.433 250.664 144.645 250.664C145.695 250.664 146.521 251.07 147.151 251.784V247.5H148.341V258H147.151V257.16C146.521 257.874 145.695 258.28 144.645 258.28C142.433 258.28 141.019 256.53 141.019 254.472ZM142.279 254.472C142.279 255.97 143.287 257.16 144.785 257.16C145.765 257.16 146.633 256.684 147.151 255.858V253.086C146.605 252.246 145.751 251.784 144.785 251.784C143.287 251.784 142.279 252.974 142.279 254.472ZM151.452 249.11C150.99 249.11 150.612 248.732 150.612 248.27C150.612 247.822 150.99 247.444 151.452 247.444C151.914 247.444 152.278 247.822 152.278 248.27C152.278 248.732 151.914 249.11 151.452 249.11ZM150.85 258V250.944H152.04V258H150.85ZM154.555 258V250.944H155.745V251.742C156.319 251.112 157.047 250.664 158.097 250.664C159.679 250.664 160.855 251.728 160.855 253.73V258H159.665V253.772C159.665 252.512 158.951 251.784 157.859 251.784C156.837 251.784 156.193 252.372 155.745 253.114V258H154.555Z" fill="#3558A2"/>
  <rect y="276" width="16" height="16" fill="#9FC3FC"/>
  <path d="M27.318 290V281.474L24.728 282.874L24.084 281.978L27.304 280.2H28.564V290H27.318ZM33.3508 279.892C34.7508 279.892 35.7028 280.956 35.7028 282.23C35.7028 283.504 34.7508 284.568 33.3508 284.568C31.9368 284.568 30.9848 283.504 30.9848 282.23C30.9848 280.956 31.9368 279.892 33.3508 279.892ZM31.9928 289.986L39.1748 280.186H40.4348L33.2528 289.986H31.9928ZM33.3508 283.728C34.1628 283.728 34.7648 283.056 34.7648 282.23C34.7648 281.39 34.1628 280.732 33.3508 280.732C32.5108 280.732 31.9228 281.39 31.9228 282.23C31.9228 283.07 32.5108 283.728 33.3508 283.728ZM39.1188 285.59C40.5188 285.59 41.4708 286.654 41.4708 287.928C41.4708 289.202 40.5188 290.266 39.1188 290.266C37.7048 290.266 36.7528 289.202 36.7528 287.928C36.7528 286.654 37.7048 285.59 39.1188 285.59ZM39.1188 289.426C39.9308 289.426 40.5328 288.754 40.5328 287.928C40.5328 287.088 39.9308 286.43 39.1188 286.43C38.2788 286.43 37.6908 287.088 37.6908 287.928C37.6908 288.768 38.2788 289.426 39.1188 289.426ZM45.7585 285.842H49.5385V286.99H45.7585V285.842ZM54.8392 290V280.2H57.2612C59.1372 280.2 60.2712 281.194 60.2712 282.748C60.2712 283.63 59.8652 284.344 59.0952 284.764C60.2432 285.17 60.8592 286.066 60.8592 287.186C60.8592 288.908 59.5852 290 57.4992 290H54.8392ZM57.2752 281.32H56.1552V284.274H57.2752C58.3112 284.274 58.9132 283.742 58.9132 282.776C58.9132 281.852 58.3112 281.32 57.2752 281.32ZM57.5552 285.394H56.1552V288.88H57.5552C58.7732 288.88 59.5012 288.236 59.5012 287.13C59.5012 286.024 58.7732 285.394 57.5552 285.394ZM66.187 282.664C68.455 282.664 70.009 284.414 70.009 286.472C70.009 288.53 68.455 290.28 66.187 290.28C63.905 290.28 62.365 288.53 62.365 286.472C62.365 284.414 63.905 282.664 66.187 282.664ZM66.201 289.16C67.671 289.16 68.749 287.928 68.749 286.472C68.749 285.002 67.671 283.784 66.201 283.784C64.689 283.784 63.611 285.002 63.611 286.472C63.611 287.942 64.689 289.16 66.201 289.16ZM72.5241 281.11C72.0621 281.11 71.6841 280.732 71.6841 280.27C71.6841 279.822 72.0621 279.444 72.5241 279.444C72.9861 279.444 73.3501 279.822 73.3501 280.27C73.3501 280.732 72.9861 281.11 72.5241 281.11ZM71.9221 290V282.944H73.1121V290H71.9221ZM75.6272 290V282.944H76.8172V283.826C77.3352 283.21 77.9792 282.804 78.8752 282.804C79.0992 282.804 79.3092 282.832 79.4772 282.888V284.05C79.2672 283.994 79.0572 283.966 78.7772 283.966C77.8532 283.966 77.2512 284.442 76.8172 285.156V290H75.6272ZM87.0398 288.838C86.3818 289.72 85.3318 290.28 84.0158 290.28C81.6358 290.28 80.1658 288.53 80.1658 286.472C80.1658 284.33 81.5378 282.664 83.7218 282.664C85.6398 282.664 86.8858 284.008 86.8858 285.744C86.8858 286.024 86.8438 286.29 86.8018 286.486H81.3838C81.4258 288.18 82.5038 289.202 84.0158 289.202C84.9258 289.202 85.6958 288.782 86.1578 288.152L87.0398 288.838ZM83.6938 283.672C82.5318 283.672 81.7198 284.358 81.4678 285.576H85.6958C85.6538 284.54 84.9398 283.672 83.6938 283.672Z" fill="#3558A2"/>
  <rect y="308" width="16" height="16" fill="#7996E6"/>
  <path d="M28.662 311.92C30.174 311.92 31.126 312.592 31.812 313.586L30.818 314.356C30.244 313.502 29.572 313.068 28.676 313.068C26.884 313.068 26.002 314.552 25.932 316.974C26.632 316.274 27.556 315.882 28.634 315.882C30.482 315.882 31.742 317.268 31.742 318.99C31.742 320.768 30.482 322.28 28.368 322.28C26.072 322.28 24.63 320.656 24.63 317.254C24.63 314.076 25.876 311.92 28.662 311.92ZM28.438 317.016C27.458 317.016 26.576 317.436 25.988 318.276C26.198 320.348 27.094 321.132 28.34 321.132C29.656 321.132 30.426 320.208 30.426 319.032C30.426 317.898 29.586 317.016 28.438 317.016ZM35.2785 311.892C36.6785 311.892 37.6305 312.956 37.6305 314.23C37.6305 315.504 36.6785 316.568 35.2785 316.568C33.8645 316.568 32.9125 315.504 32.9125 314.23C32.9125 312.956 33.8645 311.892 35.2785 311.892ZM33.9205 321.986L41.1025 312.186H42.3625L35.1805 321.986H33.9205ZM35.2785 315.728C36.0905 315.728 36.6925 315.056 36.6925 314.23C36.6925 313.39 36.0905 312.732 35.2785 312.732C34.4385 312.732 33.8505 313.39 33.8505 314.23C33.8505 315.07 34.4385 315.728 35.2785 315.728ZM41.0465 317.59C42.4465 317.59 43.3985 318.654 43.3985 319.928C43.3985 321.202 42.4465 322.266 41.0465 322.266C39.6325 322.266 38.6805 321.202 38.6805 319.928C38.6805 318.654 39.6325 317.59 41.0465 317.59ZM41.0465 321.426C41.8585 321.426 42.4605 320.754 42.4605 319.928C42.4605 319.088 41.8585 318.43 41.0465 318.43C40.2065 318.43 39.6185 319.088 39.6185 319.928C39.6185 320.768 40.2065 321.426 41.0465 321.426ZM47.6863 317.842H51.4663V318.99H47.6863V317.842ZM56.7669 322V312.2H60.5329C63.5989 312.2 65.6849 314.454 65.6849 317.1C65.6849 319.746 63.5989 322 60.5329 322H56.7669ZM60.5609 313.404H58.0829V320.796H60.5609C62.7449 320.796 64.3269 319.144 64.3269 317.1C64.3269 315.042 62.7449 313.404 60.5609 313.404ZM68.2722 313.11C67.8102 313.11 67.4322 312.732 67.4322 312.27C67.4322 311.822 67.8102 311.444 68.2722 311.444C68.7342 311.444 69.0982 311.822 69.0982 312.27C69.0982 312.732 68.7342 313.11 68.2722 313.11ZM67.6702 322V314.944H68.8602V322H67.6702ZM70.3112 314.944H71.5992L73.8532 320.754L76.1072 314.944H77.3952L74.6372 322H73.0692L70.3112 314.944ZM85.0164 320.838C84.3584 321.72 83.3084 322.28 81.9924 322.28C79.6124 322.28 78.1424 320.53 78.1424 318.472C78.1424 316.33 79.5144 314.664 81.6984 314.664C83.6164 314.664 84.8624 316.008 84.8624 317.744C84.8624 318.024 84.8204 318.29 84.7784 318.486H79.3604C79.4024 320.18 80.4804 321.202 81.9924 321.202C82.9024 321.202 83.6724 320.782 84.1344 320.152L85.0164 320.838ZM81.6704 315.672C80.5084 315.672 79.6964 316.358 79.4444 317.576H83.6724C83.6304 316.54 82.9164 315.672 81.6704 315.672ZM86.8791 322V314.944H88.0691V315.826C88.5871 315.21 89.2311 314.804 90.1271 314.804C90.3511 314.804 90.5611 314.832 90.7291 314.888V316.05C90.5191 315.994 90.3091 315.966 90.0291 315.966C89.1051 315.966 88.5031 316.442 88.0691 317.156V322H86.8791ZM91.6876 321.034L92.5276 320.32C93.0176 320.936 93.6056 321.286 94.3196 321.286C95.1036 321.286 95.5516 320.81 95.5516 320.194C95.5516 318.612 92.0236 319.172 92.0236 316.68C92.0236 315.574 92.9616 314.664 94.3196 314.664C95.3276 314.664 96.1956 315.14 96.6856 315.826L95.8596 316.526C95.4816 315.994 94.9496 315.658 94.3336 315.658C93.5776 315.658 93.1716 316.106 93.1716 316.652C93.1716 318.234 96.7136 317.73 96.7136 320.138C96.6996 321.454 95.6496 322.28 94.3336 322.28C93.2136 322.28 92.3316 321.832 91.6876 321.034Z" fill="#3558A2"/>
  <circle cx="308" cy="192" r="108" stroke="#EEEEEE" stroke-width="16"/>
  <path d="M376.842 275.215C393.969 261.047 406.307 241.939 412.172 220.498C418.038 199.058 417.145 176.33 409.615 155.416C402.086 134.502 388.286 116.421 370.101 103.64C351.915 90.8586 330.228 84 308 84" stroke="#3558A2" stroke-width="16"/>
  <path d="M250.769 283.589C270.11 295.675 292.782 301.328 315.534 299.737C338.286 298.146 359.95 289.393 377.421 274.733" stroke="#417DC4" stroke-width="16"/>
  <path d="M203.583 219.588C210.6 246.146 227.473 269.033 250.769 283.589" stroke="#5982E0" stroke-width="16"/>
  <path d="M212.819 140.965C199.839 165.173 196.57 193.419 203.68 219.952" stroke="#B6CFFB" stroke-width="16"/>
  <path d="M238.003 109.754C227.637 118.576 219.032 129.278 212.642 141.297" stroke="#DAE6FD" stroke-width="16"/>
  <path d="M272.127 90.1319C259.287 94.6533 247.419 101.561 237.146 110.491" stroke="#E6EEFE" stroke-width="16"/>
  <path d="M277.507 88.3941C275.337 89.0328 273.188 89.7395 271.062 90.5132" stroke="#9FC3FC" stroke-width="16"/>
  <path d="M309.885 84.0164C298.554 83.8187 287.262 85.4056 276.424 88.7191" stroke="#7996E6" stroke-width="16"/>
</svg>
