<svg width="247" height="205" viewBox="0 0 247 205" fill="none" xmlns="http://www.w3.org/2000/svg">
<g clip-path="url(#clip0_61_12564)">
<path d="M246.203 140.17C231.331 192.961 181.17 200.101 164.124 201.846C147.077 203.59 117.725 205.405 75.7865 204.923C38.3932 204.491 40.1202 191.768 9.60704 168.269C-19.5077 145.845 25.0035 102.769 44.9377 93.5494L207.257 91.9023C207.25 91.8954 253.593 113.936 246.203 140.17Z" fill="url(#paint0_linear_61_12564)"/>
<path d="M120.235 140.457C112.005 140.296 93.721 143.067 79.3943 149.816C65.0747 156.565 71.1088 166.531 59.0126 171.472C52.2443 174.236 45.3851 179.177 47.6366 184.321C49.888 189.465 65.9836 191.391 93.672 192.996C121.353 194.601 131.324 198.545 154.517 191.712C188.316 181.753 224.038 165.896 194.749 151.651C165.459 137.407 150.629 145.105 138.078 144.142C125.528 143.179 128.464 140.617 120.235 140.457Z" fill="url(#paint1_linear_61_12564)"/>
<path d="M212.872 138.223L52.6778 149.613C52.6778 149.613 11.341 102.664 43.1547 32.4397C74.9684 -37.785 193.644 23.6598 213.55 52.0652C233.456 80.4705 212.872 138.223 212.872 138.223Z" fill="#FFEECA"/>
<path opacity="0.5" d="M78.7651 179.827C72.0178 178.298 67.9135 176.54 69.9691 177.698C72.0178 178.864 77.4925 179.91 79.8978 181.369C82.3031 182.828 84.0021 183.679 87.0506 183.91C90.0992 184.147 91.8681 184.482 94.0147 185.047C96.1612 185.612 100.231 187.176 97.4198 185.578C94.609 183.979 93.0917 183.128 87.0856 181.488C81.0795 179.848 80.8487 180.301 78.7651 179.827Z" fill="#C3DEF5"/>
<path opacity="0.5" d="M125.57 151.791C127.73 151.233 129.164 151.065 128.408 151.093C127.653 151.121 125.926 151.61 125.031 151.624C124.136 151.638 123.528 151.68 122.612 152.021C121.696 152.363 121.137 152.524 120.444 152.685C119.752 152.845 118.354 153.047 119.389 153.02C120.424 152.985 120.976 152.964 122.941 152.524C124.898 152.084 124.905 151.966 125.57 151.791Z" fill="#C3DEF5"/>
<path opacity="0.5" d="M142.085 162.651C150.349 160.522 155.803 159.88 152.922 159.978C150.042 160.075 143.448 161.953 140.022 161.988C136.596 162.03 134.268 162.197 130.779 163.516C127.29 164.835 125.157 165.442 122.486 166.057C119.815 166.671 114.501 167.452 118.445 167.32C122.388 167.194 124.521 167.11 132.016 165.435C139.519 163.774 139.533 163.307 142.085 162.651Z" fill="#C3DEF5"/>
<path d="M239.539 105.344C232.016 116.023 227.066 143.625 202.831 145.384C181.695 146.92 155.034 144.288 136.946 146.829C102.755 151.624 110.257 162.385 70.5215 162.33C34.8412 162.274 34.4776 155.56 19.1092 136.569C3.74073 117.579 36.1977 102.657 36.5263 101.471L43.4834 102.958C43.9518 101.283 39.3581 95.755 41.2179 95.5317L206.467 77.5254C207.936 77.3509 204.621 74.6639 205.586 75.6759C210.551 80.8545 245.818 96.432 239.539 105.344Z" fill="url(#paint2_linear_61_12564)"/>
<path d="M56.6073 89.2435C55.7683 89.7809 49.9509 93.7102 50.3075 94.6036C54.6286 105.47 17.9765 117.795 40.4418 123.344C69.3398 130.484 129.003 142.69 176.772 142.446C224.535 142.202 217.878 96.3065 217.878 96.3065L198.308 93.0751L63.6063 83.2065L56.6073 89.2435Z" fill="url(#paint3_linear_61_12564)"/>
<path d="M128.506 70.1971C141.725 70.1971 152.44 59.5012 152.44 46.3073C152.44 33.1133 141.725 22.4175 128.506 22.4175C115.288 22.4175 104.573 33.1133 104.573 46.3073C104.573 59.5012 115.288 70.1971 128.506 70.1971Z" fill="#FFEB84"/>
<path opacity="0.8" d="M137.659 34.2054C105.251 45.8536 84.4286 35.008 95.2313 46.5934C106.034 58.1789 132.051 44.5974 144.861 60.1749C157.67 75.7525 166.473 82.9481 180.478 67.7683C194.483 52.5886 202.887 48.1917 213.298 46.1956C223.703 44.1996 244.112 50.9903 229.31 35.008C214.508 19.0256 206.495 10.6366 177.283 15.0335C148.07 19.4304 147.664 30.6111 137.659 34.2054Z" fill="#FBFDFE"/>
<path d="M22.4304 122.08C17.1444 110.711 50.2167 76.248 65.0957 74.4195C79.9677 72.5909 104.894 84.4835 117.767 83.2621C130.639 82.0407 153.426 55.9455 181.457 52.8956C209.488 49.8457 227.436 127.098 227.436 127.098C227.436 127.098 224.171 132.661 207.978 132.291C191.777 131.921 121.374 109.623 89.4209 116.002C57.4674 122.38 27.7163 133.45 22.4304 122.08Z" fill="url(#paint4_linear_61_12564)"/>
</g>
<defs>
<linearGradient id="paint0_linear_61_12564" x1="1753.65" y1="-168.597" x2="1664.82" y2="-137.92" gradientUnits="userSpaceOnUse">
<stop stop-color="#82624B"/>
<stop offset="0.4872" stop-color="#55594F"/>
<stop offset="1" stop-color="#224D4F"/>
</linearGradient>
<linearGradient id="paint1_linear_61_12564" x1="152.304" y1="224.966" x2="107.88" y2="134.503" gradientUnits="userSpaceOnUse">
<stop stop-color="white"/>
<stop offset="0.4909" stop-color="#00BAEE"/>
</linearGradient>
<linearGradient id="paint2_linear_61_12564" x1="240.91" y1="108.759" x2="15.5172" y2="131.913" gradientUnits="userSpaceOnUse">
<stop stop-color="#084D4A"/>
<stop offset="0.8583" stop-color="#1E7B69"/>
</linearGradient>
<linearGradient id="paint3_linear_61_12564" x1="33.2379" y1="120.087" x2="218.617" y2="104.748" gradientUnits="userSpaceOnUse">
<stop stop-color="#01615C"/>
<stop offset="1" stop-color="#217774"/>
</linearGradient>
<linearGradient id="paint4_linear_61_12564" x1="21.8607" y1="92.5612" x2="227.426" y2="92.5612" gradientUnits="userSpaceOnUse">
<stop offset="0.0577741" stop-color="#6BBFA2"/>
<stop offset="0.6107" stop-color="#77BFBB"/>
<stop offset="1" stop-color="#429A9D"/>
</linearGradient>
<clipPath id="clip0_61_12564">
<rect width="247" height="205" fill="white" transform="translate(0 0.000488281)"/>
</clipPath>
</defs>
</svg>
