<svg width="224" height="218" viewBox="0 0 224 218" fill="none" xmlns="http://www.w3.org/2000/svg">
<g clip-path="url(#clip0_61_12607)">
<path d="M193.717 163.979L31.2062 163.839C31.2062 163.839 -10.1739 116.701 21.6753 46.1973C53.5245 -24.3069 172.322 37.3822 192.25 65.8992C212.177 94.4162 193.717 163.979 193.717 163.979Z" fill="#FFEECA"/>
<path d="M217.495 161.511C217.495 161.511 204.757 185.48 188.523 187.849C172.289 190.218 163.905 216.259 149.847 217.852C135.798 219.445 108.616 208.178 78.0196 212.14C47.4235 216.102 10.8995 172.142 10.8995 172.142L24.3466 123.808L209.382 139.614L217.495 161.511Z" fill="url(#paint0_linear_61_12607)"/>
<path opacity="0.5" d="M73.6004 137.253C71.8443 136.857 70.7807 136.395 71.3166 136.7C71.8525 137.006 73.2706 137.278 73.8972 137.658C74.5238 138.037 74.9608 138.26 75.7605 138.318C76.552 138.376 77.0137 138.466 77.5661 138.615C78.1185 138.764 79.1821 139.168 78.4483 138.755C77.7145 138.343 77.327 138.12 75.7605 137.691C74.2023 137.253 74.1363 137.377 73.6004 137.253Z" fill="#C3DEF5"/>
<path opacity="0.5" d="M87.3772 130.469C89.1168 130.023 90.2628 129.883 89.661 129.908C89.0591 129.924 87.6658 130.32 86.9402 130.337C86.2229 130.345 85.7283 130.378 84.9945 130.659C84.2607 130.939 83.8072 131.063 83.2466 131.195C82.686 131.327 81.5647 131.492 82.3974 131.459C83.2301 131.434 83.6753 131.418 85.2583 131.063C86.833 130.708 86.8413 130.609 87.3772 130.469Z" fill="#C3DEF5"/>
<path opacity="0.3" d="M67.0707 30.1932C19.0949 47.4849 -11.7403 31.3817 4.26268 48.5827C20.2656 65.7837 58.7683 45.6196 77.7311 68.755C96.6939 91.8905 109.729 102.563 130.464 80.0215C151.2 57.4803 163.641 50.9598 179.05 47.9884C194.459 45.017 224.676 55.1032 202.754 31.3817C180.831 7.66023 168.975 -4.80304 125.723 1.72573C82.4718 8.25451 81.8782 24.8612 67.0707 30.1932Z" fill="#FBFDFE"/>
<path d="M217.981 133.465C210.429 122.198 204.188 124.699 186.75 123.956C169.313 123.213 153.582 127.794 138.494 127.324C123.407 126.853 96.2155 120.514 68.0269 115.884C35.5264 110.544 23.7942 107.63 10.7511 125.31C-2.29202 142.99 3.1165 165.894 10.8912 172.134C18.666 178.382 35.3615 203.044 95.6879 185.687C156.014 168.329 208.129 178.341 217.404 170.78C226.671 163.211 225.533 144.731 217.981 133.465Z" fill="url(#paint1_linear_61_12607)"/>
<path d="M106.324 131.896C98.0706 131.748 57.4078 120.531 45.7168 130.114C30.2827 142.758 57.4737 155.527 44.9171 159.654C38.0328 161.916 31.2474 166.554 33.5064 171.152C35.7655 175.757 51.9086 177.482 79.6849 178.918C107.461 180.355 148.982 195.046 172.248 188.93C206.15 180.016 210.454 154.661 181.07 141.908C151.686 129.156 136.812 136.048 124.223 135.19C111.633 134.331 114.576 132.037 106.324 131.896Z" fill="url(#paint2_linear_61_12607)"/>
<path opacity="0.15" d="M113.389 104.469C113.101 97.1728 113.768 92.5177 113.142 94.9195C112.515 97.3214 112.944 103.19 112.12 106.046C111.295 108.893 110.891 110.866 111.485 114.035C112.078 117.205 112.218 119.103 112.235 121.439C112.243 123.783 111.773 128.356 112.631 125.054C113.488 121.753 113.942 119.97 113.966 113.4C113.999 106.83 113.48 106.722 113.389 104.469Z" fill="#C3DEF5"/>
<path d="M108.698 152.168C108.698 152.168 103.99 153.546 106.431 155.618C108.879 157.69 114.766 155.618 114.766 155.618C114.766 155.618 112.227 156.245 110.512 156.056C108.789 155.866 105.713 155.932 106.439 154.925C107.156 153.918 107.519 152.226 108.698 152.168Z" fill="url(#paint3_linear_61_12607)"/>
<path d="M98.5323 152.936C98.5323 152.936 89.0097 155.725 93.9565 159.902C98.9033 164.078 110.809 159.902 110.809 159.902C110.809 159.902 104.716 162.898 101.237 162.518C97.7573 162.139 92.489 160.529 93.9565 158.507C95.4241 156.485 96.1496 153.068 98.5323 152.936Z" fill="url(#paint4_linear_61_12607)"/>
<path d="M117.61 154.661C117.61 154.661 122.475 153.86 120.348 151.367C118.221 148.875 112.087 150.237 112.087 150.237C112.087 150.237 114.692 149.923 116.366 150.352C118.047 150.781 121.106 151.136 120.241 152.085C119.375 153.035 118.789 154.76 117.61 154.661Z" fill="url(#paint5_linear_61_12607)"/>
<path d="M121.667 155.461C121.667 155.461 129.879 154.107 126.284 149.898C122.689 145.689 112.334 147.991 112.334 147.991C112.334 147.991 117.157 147.24 120.051 147.76C122.912 148.272 127.892 151.054 126.441 152.655C124.99 154.256 123.646 155.626 121.667 155.461Z" fill="url(#paint6_linear_61_12607)"/>
<path d="M93.0826 151.912C93.0826 151.912 74.0126 157.492 83.9145 165.861C93.8163 174.23 117.652 165.861 117.652 165.861C117.652 165.861 104.097 168.684 97.0483 168.816C88.7458 168.973 79.8004 164.342 82.7355 160.281C85.6706 156.221 88.3171 152.16 93.0826 151.912Z" fill="url(#paint7_linear_61_12607)"/>
<path d="M118.691 153.769C117.775 155.313 118.13 156.65 114.313 157.186C110.561 157.715 110.462 156.972 109.679 155.387C108.896 153.794 109.679 70.0342 109.679 70.0342H118.897C118.905 70.0259 119.078 153.381 118.691 153.769Z" fill="url(#paint8_linear_61_12607)"/>
<path d="M104.971 79.8232C104.996 80.4753 105.532 80.987 106.183 80.9788C106.925 80.9622 107.725 80.9623 108.632 80.9623C109.803 80.9623 111.007 80.9705 112.169 80.9788C113.34 80.987 114.543 80.9953 115.722 80.9953C118.254 80.9953 120.158 80.9457 121.906 80.8384C122.219 80.8219 122.516 80.6734 122.73 80.434C122.937 80.1946 123.044 79.881 123.027 79.5674C122.78 75.7541 123.67 72.7167 125.6 70.7853C128.972 67.4095 134.908 67.1454 142.328 67.1454C142.815 67.1454 143.309 67.1454 143.804 67.1454C144.307 67.1454 144.818 67.1454 145.329 67.1454H172.545V75.655C172.545 76.1338 172.833 76.5712 173.279 76.7611C173.79 76.9757 174.367 77.0087 174.804 77.0087C175.035 77.0087 175.274 77.0004 175.497 76.9922C175.859 76.9757 176.206 76.9674 176.436 76.9839C176.766 77.0087 177.096 76.9014 177.343 76.6703C177.591 76.4474 177.731 76.1255 177.731 75.7871V40.6011C177.797 39.2309 176.783 39.0163 176.577 38.9833C176.486 38.9668 176.395 38.9668 176.304 38.9751C176.09 38.9916 175.769 38.9833 175.422 38.9668C175.208 38.9585 174.985 38.9503 174.763 38.9503C174.326 38.9503 173.765 38.9751 173.262 39.2062C172.833 39.396 172.553 39.8252 172.553 40.2957V48.9869C170.657 49.0612 168.216 49.0942 165.009 49.0942C163.121 49.0942 161.175 49.086 159.287 49.0695C157.465 49.0612 155.75 49.053 154.143 49.053C153.335 49.053 152.617 49.053 151.966 49.0612C151.933 48.046 151.958 46.42 151.966 45.413C151.983 44.1007 151.999 43.2753 151.958 42.8544C151.908 42.2353 151.389 41.7566 150.771 41.7566H147.745C147.687 40.7661 147.704 39.6601 147.72 38.5871C147.728 38.1249 147.737 37.6627 147.737 37.1922C148.297 37.2913 148.907 37.4151 149.567 37.5389C152.51 38.1084 156.179 38.8265 159.353 38.8265C160.145 38.8265 160.887 38.7852 161.546 38.6944C163.542 38.4303 165.669 37.1097 165.636 34.8316C165.603 32.5371 163.583 31.1092 160.236 30.9936C160.038 30.9854 159.823 30.9854 159.601 30.9854C155.717 30.9854 149.913 32.0253 146.797 32.8177C146.286 32.6774 145.791 32.5453 145.238 32.5453C144.802 32.5453 144.365 32.6279 143.895 32.8012C140.852 32.0831 135.114 30.9854 131.115 30.9854C130.876 30.9854 130.637 30.9936 130.415 30.9936C129.491 31.0266 128.172 31.1834 127.075 31.7199C125.756 32.372 125.023 33.4863 125.014 34.8399C124.998 36.9941 127.059 38.4055 129.104 38.6944C129.78 38.7852 130.538 38.8347 131.346 38.8347C134.619 38.8347 138.354 38.0919 141.363 37.4894C141.932 37.3738 142.452 37.2748 142.938 37.184C142.988 38.1249 142.963 39.1484 142.946 40.1471C142.938 40.6753 142.93 41.2201 142.922 41.7566H140.02C139.508 41.7566 139.055 42.0785 138.89 42.5655C138.667 43.2093 138.651 44.6702 138.692 47.9139C138.7 48.3019 138.7 48.6981 138.709 49.0447C138.61 49.0447 138.511 49.0447 138.412 49.0447C128.345 49.0447 119.812 51.917 113.736 57.3481C109.506 61.1283 104.559 68.0945 104.971 79.8232Z" fill="#685E56"/>
</g>
<defs>
<linearGradient id="paint0_linear_61_12607" x1="217.52" y1="170.497" x2="10.8879" y2="171.128" gradientUnits="userSpaceOnUse">
<stop stop-color="#429A9D"/>
<stop offset="1" stop-color="#224D4F"/>
</linearGradient>
<linearGradient id="paint1_linear_61_12607" x1="223.978" y1="150.674" x2="2.88243" y2="152.029" gradientUnits="userSpaceOnUse">
<stop stop-color="#429A9D"/>
<stop offset="1" stop-color="#1E7B69"/>
</linearGradient>
<linearGradient id="paint2_linear_61_12607" x1="154.124" y1="241.106" x2="88.0604" y2="106.974" gradientUnits="userSpaceOnUse">
<stop stop-color="white"/>
<stop offset="0.4909" stop-color="#00BAEE"/>
</linearGradient>
<linearGradient id="paint3_linear_61_12607" x1="112.193" y1="159.104" x2="108.669" y2="151.949" gradientUnits="userSpaceOnUse">
<stop offset="0.1944" stop-color="white" stop-opacity="0.1"/>
<stop offset="1" stop-color="white" stop-opacity="0.5"/>
</linearGradient>
<linearGradient id="paint4_linear_61_12607" x1="105.608" y1="166.97" x2="98.4812" y2="152.5" gradientUnits="userSpaceOnUse">
<stop offset="0.1944" stop-color="white" stop-opacity="0.1"/>
<stop offset="1" stop-color="white" stop-opacity="0.5"/>
</linearGradient>
<linearGradient id="paint5_linear_61_12607" x1="114.763" y1="147.766" x2="116.311" y2="155.082" gradientUnits="userSpaceOnUse">
<stop offset="0.1944" stop-color="white" stop-opacity="0.1"/>
<stop offset="1" stop-color="white" stop-opacity="0.5"/>
</linearGradient>
<linearGradient id="paint6_linear_61_12607" x1="116.847" y1="143.785" x2="119.483" y2="156.246" gradientUnits="userSpaceOnUse">
<stop offset="0.1944" stop-color="white" stop-opacity="0.1"/>
<stop offset="1" stop-color="white" stop-opacity="0.5"/>
</linearGradient>
<linearGradient id="paint7_linear_61_12607" x1="107.273" y1="180.061" x2="92.8819" y2="150.841" gradientUnits="userSpaceOnUse">
<stop offset="0.1944" stop-color="white" stop-opacity="0.1"/>
<stop offset="1" stop-color="white" stop-opacity="0.5"/>
</linearGradient>
<linearGradient id="paint8_linear_61_12607" x1="144.185" y1="173.525" x2="95.8586" y2="75.404" gradientUnits="userSpaceOnUse">
<stop offset="0.3761" stop-color="#00BAEE"/>
<stop offset="0.5843" stop-color="#61C5F1"/>
<stop offset="0.9877" stop-color="#3BA0DA"/>
</linearGradient>
<clipPath id="clip0_61_12607">
<rect width="224" height="218" fill="white" transform="translate(0 0.000488281)"/>
</clipPath>
</defs>
</svg>
