<svg width="223" height="209" viewBox="0 0 223 209" fill="none" xmlns="http://www.w3.org/2000/svg">
<g clip-path="url(#clip0_61_12579)">
<path opacity="0.4" d="M68.39 80.4681C55.6285 85.0371 47.4286 80.7787 51.6848 85.327C55.9409 89.8684 66.1821 84.5402 71.2297 90.6552C76.2705 96.7633 79.742 99.5861 85.2549 93.6299C90.7747 87.6736 94.0796 85.9551 98.1761 85.1683C102.273 84.3815 103.932 89.3024 104.48 80.7787C105.147 70.3846 96.0029 70.9023 83.9912 72.9452C72.5212 74.8984 72.3267 79.0602 68.39 80.4681Z" fill="#FBFDFE"/>
<path d="M61.2455 71.9717C61.2455 71.9717 73.4099 88.1702 80.1725 97.1977C89.8443 110.111 98.558 123.079 104.987 125.55C111.417 128.021 117.429 143.274 117.429 143.274L56.8922 157.492L61.2455 71.9717Z" fill="url(#paint0_linear_61_12579)"/>
<path d="M106.23 120.484C106.23 120.484 121.2 121.996 119.547 123.231C117.895 124.467 107.438 125.64 103.71 126.572C99.9813 127.504 90.3373 129.353 90.6497 131.417C90.9621 133.48 96.5583 133.48 98.5302 133.888C100.502 134.302 106.508 136.255 97.2873 140.582C88.0599 144.91 66.3973 152.736 66.3973 152.736L58.1072 155.518L58.3155 164.38H160.928L158.755 137.49C158.755 137.49 126.421 133.984 118.332 133.37C110.25 132.749 94.4962 131.003 103.203 128.628C111.91 126.261 118.235 125.847 122.172 124.198C126.108 122.548 123.727 121.934 117.61 121.209C111.479 120.498 106.23 120.484 106.23 120.484Z" fill="url(#paint1_linear_61_12579)"/>
<path opacity="0.15" d="M106.39 172.241C111.146 160.432 115.548 153.496 112.826 156.884C110.104 160.266 106.598 169.901 103.231 173.849C99.8702 177.797 97.8151 180.633 96.5028 186.1C95.1906 191.566 94.0588 194.679 92.3994 198.406C90.747 202.133 86.713 209.069 90.4484 204.431C94.1838 199.793 96.1904 197.281 100.926 186.852C105.661 176.423 104.925 175.885 106.39 172.241Z" fill="#C3DEF5"/>
<path opacity="0.15" d="M138.55 148.602C126.24 145.138 118.839 141.514 122.512 143.854C126.185 146.194 136.19 148.644 140.488 151.556C144.785 154.462 147.847 156.194 153.45 156.919C159.054 157.644 162.289 158.437 166.198 159.68C170.1 160.922 177.467 164.18 172.433 160.977C167.399 157.775 164.677 156.056 153.749 152.467C142.814 148.872 142.348 149.672 138.55 148.602Z" fill="#C3DEF5"/>
<path d="M92.5313 152.992C89.0806 156.305 86.4978 158.003 87.9558 157.264C89.4069 156.519 92.1009 153.765 93.8575 152.93C95.6141 152.095 96.7597 151.439 98.0511 149.769C99.3426 148.099 100.217 147.208 101.356 146.187C102.502 145.165 104.953 143.405 102.953 144.42C100.96 145.434 99.8841 145.987 96.6486 148.83C93.4201 151.667 93.5936 151.97 92.5313 152.992Z" fill="#C3DEF5"/>
<path opacity="0.5" d="M95.7113 132.031C94.4129 131.741 93.6284 131.403 94.0241 131.624C94.4199 131.845 95.4683 132.045 95.9335 132.328C96.3987 132.604 96.725 132.77 97.3082 132.811C97.8914 132.852 98.2317 132.921 98.6413 133.032C99.051 133.142 99.8355 133.439 99.294 133.135C98.7524 132.832 98.4608 132.666 97.3082 132.355C96.1557 132.038 96.114 132.121 95.7113 132.031Z" fill="#C3DEF5"/>
<path opacity="0.5" d="M105.89 127.062C107.174 126.731 108.021 126.634 107.577 126.648C107.133 126.662 106.105 126.951 105.571 126.958C105.036 126.965 104.675 126.993 104.133 127.193C103.592 127.4 103.258 127.49 102.842 127.586C102.425 127.683 101.599 127.8 102.217 127.78C102.828 127.759 103.161 127.745 104.328 127.49C105.494 127.234 105.494 127.158 105.89 127.062Z" fill="#C3DEF5"/>
<path d="M127.56 96.9633C133.741 96.9633 138.752 91.9821 138.752 85.8376C138.752 79.693 133.741 74.7119 127.56 74.7119C121.378 74.7119 116.367 79.693 116.367 85.8376C116.367 91.9821 121.378 96.9633 127.56 96.9633Z" fill="#FFEB84"/>
<path d="M189.819 164.159H27.8351C27.8351 164.159 -17.712 112.644 17.344 35.5927C52.3999 -41.4588 183.153 25.9578 205.087 57.1263C227.02 88.2948 189.819 164.159 189.819 164.159Z" fill="#FFEECA"/>
<path d="M173.822 74.0564C211.315 75.4782 227.916 94.8377 221.736 78.7979C215.557 62.7651 183.73 65.8778 177.154 45.0137C170.586 24.1496 164.629 13.3413 144.279 22.9348C123.928 32.5283 113.638 33.536 102.314 31.3274C90.9899 29.1188 73.146 14.0108 81.575 36.0897C90.004 58.1685 94.6629 69.8532 125.969 77.2795C157.276 84.7059 162.247 73.6147 173.822 74.0564Z" fill="#FFFFFB"/>
<path opacity="0.4" d="M58.5515 82.8907C45.7275 87.4804 37.486 83.2082 41.763 87.7703C46.04 92.3324 56.3297 86.9835 61.3982 93.1192C66.4667 99.2618 69.9522 102.092 75.4928 96.1077C81.0334 90.1238 84.3592 88.3915 88.4765 87.6047C92.5938 86.8179 100.669 89.4958 94.8086 83.1944C88.9486 76.9 85.7826 73.594 74.2222 75.3264C62.6688 77.0725 62.5091 81.4759 58.5515 82.8907Z" fill="#FBFDFE"/>
<path d="M10.5813 37.2903C14.5945 21.7682 41.4367 67.5891 52.2333 82.007C67.6748 102.623 86.0464 118.952 96.3084 122.9C106.57 126.848 116.166 151.197 116.166 151.197L37.2361 186.755C37.2361 186.755 -23.9886 171.019 10.5813 37.2903Z" fill="url(#paint2_linear_61_12579)"/>
<path d="M7.24865 153.634C1.83299 142.039 28.6752 119.063 43.9015 117.199C59.1278 115.336 84.6439 127.455 97.822 126.213C111 124.971 134.329 98.3574 163.025 95.2516C191.721 92.1458 210.093 170.902 210.093 170.902L195.72 179.805L29.0154 183.084C29.0085 183.084 12.6643 165.229 7.24865 153.634Z" fill="url(#paint3_linear_61_12579)"/>
<path d="M96.3501 126.413C96.3501 126.413 117.888 128.587 115.499 130.368C113.111 132.148 98.0789 133.839 92.7118 135.171C87.3448 136.504 73.4793 139.174 73.9237 142.135C74.368 145.096 82.4221 145.096 85.2549 145.69C88.0877 146.283 96.7389 149.099 83.4636 155.325C70.1883 161.55 54.6773 156.822 43.2211 163.241C39.076 165.567 30.2721 174.277 29.557 175.906C28.8488 177.528 23.7247 188.053 55.6632 194.127C87.6017 200.2 112.722 198.53 175.009 189.564C237.296 180.599 207.683 160.991 186.243 152.847C164.809 144.71 125.359 145.842 113.729 144.951C102.099 144.061 79.4366 141.542 91.962 138.132C104.487 134.723 113.583 134.129 119.249 131.762C124.914 129.388 121.484 128.504 112.687 127.462C103.89 126.42 96.3501 126.413 96.3501 126.413Z" fill="url(#paint4_linear_61_12579)"/>
<path opacity="0.15" d="M96.7388 175.105C101.523 163.241 105.945 156.27 103.21 159.673C100.474 163.076 96.9471 172.752 93.5728 176.714C90.1984 180.675 88.1363 183.533 86.8171 189.026C85.4979 194.52 84.3592 197.647 82.6929 201.394C81.0265 205.142 76.9786 212.106 80.7279 207.454C84.4842 202.795 86.4977 200.269 91.2538 189.792C96.0168 179.309 95.26 178.763 96.7388 175.105Z" fill="#C3DEF5"/>
<path opacity="0.15" d="M131.76 150.818C119.387 147.34 109.236 144.234 112.93 146.58C116.624 148.927 126.671 151.398 130.996 154.317C135.315 157.237 141.126 156.719 146.764 157.451C152.395 158.175 152.902 161.233 156.832 162.482C160.762 163.731 170.989 169.577 165.934 166.354C160.88 163.131 158.797 157.534 147.813 153.931C136.822 150.321 135.579 151.895 131.76 150.818Z" fill="#C3DEF5"/>
<path d="M85.3104 158.244C81.8389 161.571 79.2491 163.283 80.7141 162.537C82.1722 161.792 84.88 159.017 86.6435 158.182C88.414 157.34 91.3024 157.885 92.6008 156.208C93.8991 154.531 93.0312 152.433 94.1769 151.405C95.3225 150.376 94.0588 148.754 94.0588 148.754C92.0522 149.776 93.7672 151.902 90.5178 154.759C87.2684 157.616 86.3797 157.216 85.3104 158.244Z" fill="#C3DEF5"/>
<path opacity="0.5" d="M86.0047 134.702C84.7063 134.405 83.9148 134.067 84.3106 134.295C84.7064 134.523 85.7617 134.723 86.2269 134.999C86.6921 135.282 87.0184 135.441 87.6086 135.489C88.1988 135.537 88.539 135.599 88.9486 135.71C89.3583 135.82 90.1498 136.117 89.6082 135.813C89.0666 135.51 88.775 135.344 87.6155 135.027C86.456 134.709 86.4074 134.792 86.0047 134.702Z" fill="#C3DEF5"/>
<path opacity="0.5" d="M96.2321 129.705C97.5235 129.374 98.3775 129.278 97.9262 129.291C97.4749 129.305 96.4473 129.595 95.9127 129.602C95.3781 129.609 95.017 129.636 94.4685 129.843C93.92 130.051 93.5867 130.14 93.1701 130.237C92.7535 130.333 91.9204 130.451 92.5383 130.437C93.1562 130.423 93.4895 130.402 94.656 130.147C95.8294 129.878 95.8363 129.809 96.2321 129.705Z" fill="#C3DEF5"/>
<path d="M153.555 100.021C162.528 100.021 169.802 92.7899 169.802 83.8704C169.802 74.9509 162.528 67.7202 153.555 67.7202C144.582 67.7202 137.308 74.9509 137.308 83.8704C137.308 92.7899 144.582 100.021 153.555 100.021Z" fill="#FFEB84"/>
</g>
<defs>
<linearGradient id="paint0_linear_61_12579" x1="53.656" y1="101.757" x2="86.9755" y2="149.139" gradientUnits="userSpaceOnUse">
<stop stop-color="#429A9D"/>
<stop offset="0.1913" stop-color="#7DAE9D"/>
<stop offset="0.4592" stop-color="#B6CA9C"/>
<stop offset="0.6914" stop-color="#DBDE99"/>
<stop offset="0.8759" stop-color="#F0EB97"/>
<stop offset="0.9897" stop-color="#F7F095"/>
</linearGradient>
<linearGradient id="paint1_linear_61_12579" x1="133.642" y1="201.692" x2="95.86" y2="124.436" gradientUnits="userSpaceOnUse">
<stop stop-color="white"/>
<stop offset="0.5155" stop-color="#ABDDF9"/>
<stop offset="0.6227" stop-color="#B3E0F9"/>
<stop offset="1" stop-color="#00BAEE"/>
</linearGradient>
<linearGradient id="paint2_linear_61_12579" x1="9.28019" y1="78.4334" x2="66.3448" y2="159.582" gradientUnits="userSpaceOnUse">
<stop stop-color="#429A9D"/>
<stop offset="0.2786" stop-color="#2F9A9A"/>
<stop offset="0.7196" stop-color="#009995"/>
<stop offset="0.9927" stop-color="#009993"/>
</linearGradient>
<linearGradient id="paint3_linear_61_12579" x1="6.53636" y1="139.126" x2="210.089" y2="139.126" gradientUnits="userSpaceOnUse">
<stop offset="0.0577741" stop-color="#6BBFA2"/>
<stop offset="0.6107" stop-color="#77BFBB"/>
<stop offset="1" stop-color="#429A9D"/>
</linearGradient>
<linearGradient id="paint4_linear_61_12579" x1="56.6545" y1="90.8575" x2="106.457" y2="157.867" gradientUnits="userSpaceOnUse">
<stop stop-color="white"/>
<stop offset="0.5155" stop-color="#ABDDF9"/>
<stop offset="0.6227" stop-color="#B3E0F9"/>
<stop offset="1" stop-color="#00BAEE"/>
</linearGradient>
<clipPath id="clip0_61_12579">
<rect width="223" height="209" fill="white"/>
</clipPath>
</defs>
</svg>
